<svg width="119" height="119" viewBox="0 0 119 119" fill="none" xmlns="http://www.w3.org/2000/svg">
<path d="M119 59.5035C119 63.7331 118.562 67.8709 117.708 71.8604C112.023 98.7913 88.1254 119 59.4965 119C57.2508 119 55.0334 118.88 52.8512 118.633C23.1136 115.328 0 90.1203 0 59.5035C0 26.6343 26.6375 0 59.5035 0C92.3625 0 119 26.6343 119 59.5035Z" fill="#E8F2FA"/>
<path d="M59.0728 97.0895L58.7903 84.076C57.8934 83.2075 56.8765 82.3037 55.7325 81.4069C53.5574 79.6911 51.46 78.3918 49.6239 77.4174C49.6239 77.4174 52.936 72.6653 52.5617 72.6653L45.641 73.8304C45.641 73.8304 45.2103 73.5974 45.4645 68.5063C46.319 64.6651 48.2257 62.3844 49.7369 61.1205C49.4898 61.2052 40.5847 64.8346 35.8744 66.3033C34.3914 66.7623 33.2615 67.9768 32.9226 69.4949C31.4466 76.0829 31.1924 91.6666 31.143 97.0895H59.0728V97.0895Z" fill="#A9C2FF"/>
<path d="M45.4009 74.2611L52.4346 73.0678C52.8159 73.0678 49.4545 77.9541 49.4545 77.9541C51.3188 78.9567 53.4515 80.2913 55.6619 82.0565C56.82 82.9815 57.8511 83.9065 58.7691 84.8033V88.1785H59.8566C59.786 86.8157 59.7648 85.8059 59.7648 85.8059L60.93 83.1016C60.93 83.1016 49.0307 69.1489 50.7538 63.6483C51.5095 61.4806 51.7425 59.8071 51.7425 59.8071C51.7425 59.8071 50.7892 60.1814 49.5816 61.1982C49.5816 61.1982 49.5816 61.1982 49.5745 61.2052C48.0421 62.5045 46.1071 64.8487 45.2385 68.8029C44.9701 74.0281 45.4009 74.2611 45.4009 74.2611Z" fill="#7D9DF4"/>
<path d="M59.2705 85.2976C59.1081 85.1281 58.9386 84.9657 58.762 84.7963C58.9315 84.9657 59.101 85.1352 59.2705 85.2976Z" fill="#CCCDCE"/>
<path d="M45.6481 73.788L52.5687 72.623C52.943 72.623 49.631 77.3751 49.631 77.3751C51.4671 78.3495 53.5645 79.6487 55.7395 81.3646C56.8765 82.2684 57.8934 83.1651 58.7973 84.0336V88.1714H59.9202C59.8142 86.4415 59.7789 85.0081 59.7789 85.0081L60.923 82.3813C60.923 82.3813 49.2143 68.8029 50.9092 63.4577C51.6507 61.3535 51.8837 59.7224 51.8837 59.7224C51.8837 59.7224 50.9445 60.0825 49.7581 61.0711C49.7581 61.0711 49.7581 61.0711 49.751 61.0711C48.2398 62.335 46.3331 64.6157 45.4786 68.4569C45.2173 73.555 45.6481 73.788 45.6481 73.788Z" fill="#99AEF9"/>
<path d="M59.2917 84.5209C59.1293 84.3585 58.9668 84.1961 58.7903 84.0337C58.9668 84.1961 59.1293 84.3585 59.2917 84.5209Z" fill="white"/>
<path d="M87.2568 97.0895C87.1014 91.2924 86.7695 85.2128 86.2116 78.8791C85.8656 74.9249 85.4489 71.0978 84.9758 67.3837C84.9617 67.1648 84.884 66.5787 84.4391 66.0209C84.1354 65.6396 83.7117 65.3501 83.2244 65.2018L69.715 61.0852C71.4452 62.6316 73.3519 65.922 73.3943 72.976C71.3887 73.3644 67.9707 73.5974 66.9962 73.202C67.8507 73.9222 70.513 76.3724 70.513 76.3724C70.393 76.2594 67.8154 78.0741 67.6812 78.2083C65.8592 80.1006 61.5585 80.0653 60.3298 82.3955C59.9131 83.1863 58.1265 92.5281 58.4301 97.1037H87.2568V97.0895Z" fill="#A9C2FF"/>
<path d="M51.6719 54.3772C51.6648 54.3772 51.6507 54.3772 51.6507 54.3843C51.6436 54.3843 51.6366 54.3843 51.6366 54.3843C51.6366 54.3843 51.7213 54.8432 51.799 55.5705C52.0109 57.4488 52.1945 61.1346 50.9163 63.4577C52.1803 66.2751 52.9218 68.9653 58.8044 69.1419V53.198C55.45 53.5581 52.0744 54.2925 51.6719 54.3772Z" fill="#F9A064"/>
<path d="M65.8239 54.8997C65.8098 54.7797 65.8098 54.6596 65.8027 54.5396C65.7957 54.4902 65.7957 54.4407 65.7957 54.3913C65.7321 52.8379 62.2788 52.8167 58.7973 53.198V69.1489C59.6448 69.1772 60.6052 69.1489 61.6856 69.0642C65.4214 68.2169 67.4552 66.3527 68.6416 62.7869C67.1939 61.0923 66.0499 57.9077 65.8239 54.8997Z" fill="#F9A064"/>
<path d="M51.6719 54.3772C51.6648 54.3772 51.6507 54.3772 51.6507 54.3842C51.6436 54.3842 51.6366 54.3842 51.6366 54.3842C51.6366 54.3842 55.3158 59.6659 58.8044 59.8848V53.1909C55.45 53.5581 52.0744 54.2924 51.6719 54.3772Z" fill="#F9A064"/>
<path d="M65.7957 54.3913C65.7321 52.8379 62.2788 52.8167 58.7973 53.198V59.8919C58.9386 59.8989 59.0798 59.906 59.221 59.8989C61.5868 59.6377 64.3056 56.9192 65.8027 54.5396C65.7957 54.4902 65.7957 54.4407 65.7957 54.3913Z" fill="#F9A064"/>
<path d="M58.0347 68.7182C53.6563 67.8427 51.3682 64.2274 50.9092 63.4578C49.6734 67.3413 55.5136 75.5534 58.7974 79.7688V68.8524C58.4725 68.81 58.2183 68.7536 58.0347 68.7182Z" fill="white"/>
<path d="M63.1263 68.3793C61.3679 69.036 59.7931 68.9795 58.7973 68.8454V79.7688C60.0402 81.3576 60.9159 82.3814 60.9159 82.3814L65.8592 73.2091C65.951 73.0326 66.0428 72.856 66.1347 72.6795C67.6671 69.6503 68.5075 66.3175 68.5357 62.9211C68.2744 63.5778 66.8267 66.9954 63.1263 68.3793Z" fill="white"/>
<path d="M58.5007 97.0895C58.8538 90.8122 59.1716 85.9825 60.923 83.7582C63.5359 80.4325 70.7108 76.8737 70.7108 76.8737C70.7108 76.8737 68.0061 74.3811 67.1374 73.6468C67.0386 73.6044 66.9609 73.562 66.9185 73.5056C66.8832 73.4632 66.8691 73.442 66.8761 73.442C66.8903 73.442 66.9891 73.5197 67.1374 73.6468C68.1332 74.0563 71.6006 73.8163 73.6344 73.4208C73.585 66.2397 71.65 62.8857 69.8916 61.3111C68.4156 59.9907 67.0598 59.9342 67.0598 59.9342C67.0598 59.9342 67.6318 61.2264 68.7052 63.1117C68.7052 63.1399 68.7052 63.1682 68.7052 63.1894C68.6769 66.6493 67.8224 70.0456 66.2688 73.1313C66.177 73.3149 66.0852 73.4914 65.9864 73.675L59.666 82.5578C58.9951 83.3981 58.3171 84.7044 57.8369 86.4626C57.7027 86.9428 57.6392 93.7072 57.5968 97.0966H58.5007V97.0895Z" fill="#7D9DF4"/>
<path d="M58.0347 97.0896C58.0488 96.2634 58.0558 95.2396 58.0629 94.1381C57.9782 95.2325 57.9358 96.2281 57.9217 97.0896H58.0347Z" fill="#F0F1F2"/>
<path d="M59.2917 86.0813C60.5346 80.7785 68.6204 77.7069 70.506 76.3512C70.506 76.3512 67.8436 73.901 66.9891 73.1808C66.8903 73.1384 66.8197 73.096 66.7702 73.0395C66.7349 72.9972 66.7208 72.976 66.7279 72.976C66.742 72.976 66.8338 73.0537 66.9891 73.1737C67.9707 73.5762 71.3816 73.3361 73.3872 72.9477C73.3378 65.9008 71.4381 62.6033 69.708 61.0569C68.2532 59.7577 66.9185 59.7083 66.9185 59.7083C66.9185 59.7083 67.4764 60.9722 68.5428 62.8292C68.5357 62.8575 68.5357 62.8857 68.5357 62.9069C68.5075 66.3033 67.6671 69.6361 66.1347 72.6653C66.0429 72.8418 65.951 73.0184 65.8592 73.1949L59.6377 81.9082C59.1504 82.918 58.6632 84.1325 58.2889 85.5305C58.1406 86.0742 58.0982 90.4874 58.07 94.1239C58.2536 91.7231 58.642 88.8563 59.2917 86.0813Z" fill="#99AEF9"/>
<path d="M58.8337 19.0366C58.8192 19.0366 58.8046 19.0366 58.7973 19.0366V19.0512C58.8119 19.0439 58.8192 19.0366 58.8337 19.0366Z" fill="#754C29"/>
<path d="M67.9142 22.5389C67.1163 22.0587 66.2547 21.6703 65.3508 21.3879C63.2252 20.7242 61.0289 19.8557 58.7973 19.8345V31.5558C58.8609 31.5558 58.9245 31.5629 58.988 31.5629C60.2592 31.5629 61.3467 31.8383 62.4978 32.3678C62.985 32.5938 63.5006 32.9963 64.0302 32.9963C63.8819 32.7774 63.7054 32.5514 63.5006 32.3678C64.2844 32.9116 65.3296 33.2575 66.1205 33.8012C67.3705 34.6627 68.7264 36.1243 69.1077 37.6354C69.5879 39.5278 68.6204 41.5331 69.0724 43.4608C69.2136 42.9453 69.8704 41.9991 70.3647 41.5472C70.0611 41.8791 71.2192 41.7944 71.2686 41.7802C71.537 41.7026 71.7135 41.5755 71.8407 41.4131C72.0455 41.1518 72.1231 40.7846 72.2785 40.3539C72.794 38.8852 73.14 37.3176 73.0906 35.7572C73.1542 35.8278 73.2883 35.9831 73.4366 36.1667C73.6909 36.4844 73.9592 36.8869 73.9098 37.0635C75.5552 31.5276 72.7446 25.4127 67.9142 22.5389Z" fill="#1E3865"/>
<path d="M56.7494 20.0746C57.392 19.6509 58.077 19.312 58.7974 19.0507V19.0366C57.385 19.0931 55.9867 19.3402 54.652 19.778C53.9035 20.0252 53.162 20.3288 52.5405 20.816C51.7496 21.4233 51.2482 22.3836 50.9445 23.3086C50.2948 23.0261 48.7342 23.3933 48.0562 23.6828C46.3684 24.4101 45.5563 25.8505 44.4123 27.178C43.9744 27.6935 43.6072 28.1666 43.3247 28.6608C42.894 29.3952 42.6397 30.186 42.5267 31.2452C42.3926 32.5232 42.4703 33.8084 42.5479 35.0864C42.7457 34.4297 43.0635 33.7801 43.5084 33.2576C43.5366 33.8437 43.1906 34.2885 43.0705 34.8322C42.9152 35.5383 43.0352 36.3221 43.1764 37.0141C43.473 38.4475 44.1086 39.8738 45.0196 41.0248C45.1467 41.1872 45.3021 41.3496 45.4645 41.519C45.6057 41.6532 45.747 41.7874 45.9023 41.9286C46.7498 42.7124 47.7455 43.5597 47.8514 44.527C47.6325 42.5288 47.004 40.7706 47.1311 38.8923C47.1452 38.624 47.1876 38.3486 47.237 38.0662C47.3147 37.6354 47.4418 37.2047 47.6254 36.7599C47.7102 37.007 47.8585 37.2683 47.922 37.5154C48.0209 35.0229 49.4121 34.2673 50.8174 32.5021C51.453 31.7042 52.3287 31.0969 52.5264 30.0307C53.2538 30.9627 53.9811 30.6238 54.9698 30.8427C56.3116 31.1393 57.4132 31.5276 58.7974 31.5629V19.8416C58.1194 19.8275 57.4344 19.8981 56.7494 20.0746Z" fill="#1E3865"/>
<path d="M70.5766 41.3708C69.934 41.745 69.2772 42.6912 69.0653 43.4538C68.6134 41.5332 69.5809 39.5208 69.1007 37.6284C68.7193 36.1174 67.3634 34.6557 66.1205 33.7943C65.3296 33.2506 64.2844 32.9116 63.5006 32.3609C63.7054 32.5445 63.8819 32.7634 64.0302 32.9893C63.5006 32.9964 62.9851 32.5868 62.4978 32.3679C61.3467 31.8384 60.2592 31.563 58.988 31.563C58.9245 31.563 58.8609 31.5559 58.7973 31.5559V58.2114C60.5487 58.1973 60.7111 57.8442 61.4879 57.2793C62.4201 56.5944 63.4229 56.1354 64.4327 55.5776C64.8635 55.3446 65.1954 55.0834 65.4779 54.7797C65.8451 54.3843 66.1276 53.9253 66.4171 53.3393C66.7137 52.7461 67.8719 50.2606 68.3309 49.6746C68.3027 49.7169 68.8959 49.8864 68.9524 49.8935C69.1925 49.9147 69.4679 49.8864 69.6797 49.7734C70.054 49.5757 70.3506 49.1097 70.5625 48.7496C71.0709 47.8811 71.2475 46.8784 71.6006 45.9463C71.989 44.9366 72.6881 43.9269 72.6599 42.8112C72.6387 41.6462 71.6712 40.7282 70.5766 41.3708Z" fill="#FFAE73"/>
<path d="M54.9698 30.8357C53.9811 30.6168 53.2538 30.9487 52.5264 30.0166C52.3286 31.0758 51.453 31.6901 50.8174 32.488C49.4121 34.2532 48.0209 35.0088 47.922 37.5013C47.8514 37.2542 47.7031 36.9929 47.6254 36.7458C47.4418 37.1977 47.3218 37.6284 47.237 38.0591C47.23 38.3416 47.1946 38.617 47.1311 38.8853C47.011 40.7635 47.6325 42.5217 47.8514 44.513C47.7243 43.3832 46.3684 42.3946 45.4645 41.5049C45.3868 41.5685 45.3091 41.632 45.2314 41.6885C45.1467 41.7521 45.0761 41.8227 45.0266 41.9004C44.2286 43.0301 45.4221 44.9084 45.8176 45.9322C46.1354 46.7513 46.3048 47.6269 46.6933 48.4177C46.8557 48.7566 47.0675 49.1238 47.2794 49.4345C47.4842 49.7311 48.0209 49.8229 48.3599 49.7734C48.5364 49.7452 48.713 49.6605 48.8048 49.5051C49.4191 50.8961 50.3231 51.9694 51.0081 53.3251C51.5024 54.3137 51.9614 54.9704 52.9007 55.507C52.936 55.5282 52.9572 55.5423 52.9925 55.5635C54.0094 56.1143 55.0051 56.5803 55.9373 57.2652C56.7282 57.8442 56.7 58.2043 58.7055 58.2043C58.7338 58.2043 58.762 58.2043 58.7903 58.2043V31.5559C57.4132 31.5206 56.3045 31.1322 54.9698 30.8357Z" fill="#FFAE73"/>
<path d="M47.9715 46.5112C48.035 46.949 48.0421 47.4927 47.5407 47.6127C47.3994 47.648 47.2511 47.5986 47.1382 47.4927C46.7074 47.0831 46.7709 46.4759 46.891 45.9463C46.9828 45.5509 47.1028 45.1413 47.0534 44.7389C46.9545 43.9621 46.0789 43.1925 45.3939 43.5173C45.5704 43.4326 45.641 43.2631 45.8882 43.2137C46.1919 43.1501 46.3402 43.1854 46.6579 43.3761C46.7709 43.4467 46.8839 43.5314 46.9757 43.6373C47.6395 44.3999 47.8232 45.5015 47.9715 46.5112Z" fill="#C0876C"/>
<path d="M69.2278 46.6806C69.1642 47.1184 69.1571 47.6621 69.6585 47.7822C69.7998 47.8175 69.9481 47.768 70.0611 47.6621C70.4918 47.2526 70.4283 46.6453 70.3082 46.1157C70.2164 45.7203 70.0964 45.3108 70.1458 44.9083C70.2447 44.1316 71.1204 43.3619 71.8054 43.6867C71.6288 43.602 71.5582 43.4325 71.311 43.3831C71.0074 43.3196 70.8591 43.3549 70.5413 43.5455C70.4283 43.6161 70.3153 43.7009 70.2235 43.8068C69.5526 44.5764 69.3761 45.6709 69.2278 46.6806Z" fill="#C0876C"/>
<path d="M44.7018 88.0443C43.3177 88.821 42.3219 89.9931 42.2866 91.6737C42.2796 91.9137 42.3007 92.1679 42.4208 92.3727C42.5903 92.6622 42.9363 92.8105 43.2753 92.8317C44.0945 92.8882 44.8077 92.3374 45.5845 92.0691C45.8176 91.9844 46.0647 91.942 46.3119 91.9067V87.5359C45.747 87.5994 45.1891 87.7689 44.7018 88.0443Z" fill="#FC9F38"/>
<path d="M51.114 90.8335C50.9728 89.4566 48.9884 87.8537 47.7172 87.5783C47.2653 87.4795 46.7851 87.4724 46.3119 87.5289V91.8997C46.6085 91.8644 46.9051 91.8644 47.1946 91.9067C48.4163 92.0833 51.3612 93.2201 51.114 90.8335Z" fill="#FC9F38"/>
<path d="M40.1822 86.4344C40.0127 87.7054 41.2132 89.1106 42.5479 88.9199C44.0592 88.701 42.9222 86.3567 42.2019 85.7071C41.4392 85.0081 40.4858 85.0222 40.2246 86.1661C40.2104 86.2579 40.1963 86.3497 40.1822 86.4344Z" fill="#FC9F38"/>
<path d="M43.9109 82.2896C43.5083 82.3814 43.1905 82.6568 42.9716 83.0169C42.6115 83.61 42.5267 84.4291 42.781 85.0011C42.9151 85.3047 43.1411 85.566 43.36 85.8201C43.8473 86.378 44.4052 86.9782 45.1467 87.0417C45.295 87.0558 45.4433 87.0417 45.5704 86.9782C45.6905 86.9146 45.7893 86.8158 45.867 86.7028C46.2695 86.145 46.3472 85.4035 46.1919 84.7327C45.9729 83.7583 45.1467 82.0142 43.9109 82.2896Z" fill="#FC9F38"/>
<path d="M53.7128 86.1449C53.734 86.844 53.2961 87.663 52.8089 88.0514C52.1945 88.5316 50.768 88.8776 50.203 88.122C50.0335 87.8961 49.9982 87.5995 50.0194 87.3171C50.1183 86.0037 51.7496 84.4926 53.0913 85.1423C53.5221 85.347 53.6987 85.7213 53.7128 86.1449Z" fill="#FC9F38"/>
<path d="M49.9205 82.3884C50.3725 82.918 50.5844 83.7159 50.4219 84.3161C50.3372 84.6409 50.1536 84.9304 49.977 85.2199C49.5886 85.8483 49.1225 86.5333 48.4022 86.7098C48.261 86.7451 48.1127 86.7592 47.9715 86.7098C47.8443 86.6674 47.7313 86.5827 47.6325 86.4838C47.1452 85.9966 46.9545 85.2764 47.004 84.5915C47.0746 83.6029 47.6184 81.7459 48.8754 81.8235C49.292 81.8447 49.6451 82.0707 49.9205 82.3884Z" fill="#FC9F38"/>
<path d="M57.2155 41.0177C51.5871 39.0759 46.9475 40.6575 46.891 40.7211C46.5803 41.1024 46.891 41.6602 46.891 41.6673C46.9051 41.6885 47.1381 41.7449 47.1664 41.7591C47.3924 41.865 47.7596 42.0415 47.8726 42.2675C47.9856 42.5005 47.9503 42.8818 47.9926 43.143C48.0633 43.6302 48.1551 44.1104 48.3175 44.5764C48.5223 45.1766 48.9177 45.8474 49.518 46.2075C50.768 46.9489 53.3385 46.7936 54.6379 46.4688C56.0785 46.0239 57.3496 43.4325 57.4909 42.6135C57.5827 42.1121 58.1688 41.9991 58.5149 41.978V41.1306C58.2324 41.1165 57.738 41.0883 57.2155 41.0177ZM52.3286 45.9322C51.4953 45.8404 50.4078 45.6709 49.857 45.0354C49.6239 44.7671 49.4968 44.4423 49.398 44.1175C49.2285 43.5526 49.0731 42.6982 49.3132 42.0556C49.3909 41.8579 49.5039 41.6814 49.6663 41.5402C50.3231 40.9753 51.4388 40.9329 52.2792 40.9612C54.193 41.0106 56.0361 41.2366 56.1844 42.5993C56.135 43.3902 55.4147 46.2711 52.3286 45.9322Z" fill="#4C4B4B"/>
<path d="M70.1882 40.7211C70.1317 40.6576 65.6121 38.8994 59.8637 41.0177C59.327 41.0954 58.8185 41.1166 58.536 41.1307C58.529 41.1307 58.5149 41.1307 58.5078 41.1307V41.978C58.5149 41.978 58.529 41.978 58.536 41.978C58.875 41.9992 59.4965 42.1051 59.5883 42.6206C59.7224 43.4396 61.0006 46.0311 62.4413 46.4759C63.7407 46.8007 66.3112 46.9561 67.5611 46.2146C68.1614 45.8616 68.5498 45.1837 68.7617 44.5835C68.9241 44.1175 69.0159 43.6303 69.0865 43.1501C69.1289 42.8889 69.0936 42.5076 69.2066 42.2746C69.3196 42.0486 69.6797 41.8721 69.9128 41.7662C69.941 41.7521 70.1811 41.6956 70.1882 41.6744C70.1952 41.6603 70.506 41.1024 70.1882 40.7211ZM67.6883 44.1105C67.5894 44.4353 67.4623 44.7601 67.2292 45.0284C66.6784 45.6709 65.5838 45.8333 64.7576 45.9251C61.6645 46.2641 60.9512 43.3902 60.9018 42.5853C61.0501 41.2295 62.8932 41.0036 64.807 40.9471C65.6474 40.9259 66.7632 40.9683 67.4199 41.5261C67.5823 41.6673 67.6953 41.8438 67.773 42.0416C68.0202 42.6912 67.8577 43.5526 67.6883 44.1105Z" fill="#373434"/>
<path d="M66.8903 96.9342L67.3775 96.0869C64.4115 94.4911 63.2675 90.9747 63.9737 85.6365C64.3974 82.4237 65.4355 79.1262 66.3677 76.6125C66.0358 76.5489 65.7039 76.4713 65.3931 76.3654C62.985 82.8545 60.3439 93.4107 66.8903 96.9342Z" fill="#A5A7A8"/>
<path d="M51.9402 57.823C51.9473 58.402 51.9402 59.0163 51.8908 59.6377C49.6028 63.3518 49.2497 67.8497 49.1014 72.1852L48.0986 72.157C48.1833 69.6503 48.3457 66.9741 48.9389 64.411C49.5463 61.7984 50.5279 59.6306 51.9402 57.823Z" fill="#393B42"/>
<path d="M79.6935 74.6283C79.404 74.7907 79.1074 74.946 78.8037 75.0802C78.3305 74.3035 77.8927 73.6327 77.5326 73.089C76.8829 72.1075 75.7741 71.4932 74.5666 71.4367C73.7615 71.4014 73.2389 71.3731 72.8929 71.359C72.4692 71.3449 72.0455 71.3802 71.6359 71.472C71.304 71.5497 70.8026 71.6556 70.047 71.8251C68.8676 72.0863 67.8931 72.8842 67.434 73.9646C67.1304 74.6707 66.7561 75.5815 66.3677 76.6266C66.0358 76.563 65.7039 76.4853 65.3932 76.3794C65.7816 75.3273 66.17 74.3882 66.5089 73.5974C67.0951 72.2346 68.3309 71.2178 69.828 70.8859C69.828 70.8859 71.0074 70.6247 71.6641 70.4764C71.3534 69.1065 69.7857 64.3474 69.595 63.8884C68.6981 61.6289 67.6742 59.4117 66.2759 57.6818C66.1276 57.0816 66.0146 56.4743 65.9299 55.8671C66.5584 56.4531 67.1445 57.1451 67.7095 57.9501C68.9453 59.7295 69.8351 61.7772 70.5342 63.5424C70.619 63.7613 71.2051 65.4913 71.7347 67.1789C72.3138 69.0006 72.568 69.9256 72.6669 70.4128C72.681 70.4128 74.6089 70.4764 74.6089 70.4764C76.1414 70.547 77.5467 71.3308 78.3729 72.5665C78.7755 73.1596 79.2203 73.8586 79.6935 74.6283Z" fill="#393B42"/>
<path d="M79.6935 74.6283C79.3969 74.7907 79.1073 74.946 78.8037 75.0802C80.2443 77.4315 82.0168 80.7008 83.0973 83.9842C84.778 89.1105 84.3049 92.7681 81.6779 94.8512L82.3134 95.5996C88.2666 90.8687 83.295 80.5243 79.6935 74.6283Z" fill="#A5A7A8"/>
<path d="M51.3541 74.6989C51.5377 76.3089 50.3301 77.7634 48.6565 77.94C46.9828 78.1165 45.4786 76.9585 45.295 75.3486C45.1114 73.7386 46.319 72.2841 47.9926 72.1075C49.6663 71.924 51.1705 73.089 51.3541 74.6989Z" fill="#393B42"/>
<path d="M50.7185 74.7696C50.8668 76.0406 49.9135 77.1845 48.5929 77.3257C47.2723 77.4669 46.0859 76.549 45.9447 75.278C45.7964 74.007 46.7498 72.8631 48.0703 72.7219C49.3838 72.5806 50.5702 73.4986 50.7185 74.7696Z" fill="#A5A7A8"/>
<path d="M62.8297 51.9764C62.8297 51.9764 61.5232 53.9888 58.6279 54.2359C56.9118 54.3771 55.4288 52.4848 55.4288 52.4848C55.4288 52.4848 58.4443 51.0867 62.8297 51.9764Z" fill="white"/>
</svg>
