<svg width="119" height="119" viewBox="0 0 119 119" fill="none" xmlns="http://www.w3.org/2000/svg">
<path d="M119 59.5C119 92.3621 92.3621 119 59.5 119C58.4611 119 57.4221 118.972 56.4019 118.925C24.9812 117.306 0 91.3232 0 59.5C0 26.6379 26.6379 0 59.5 0C89.9847 0 115.106 22.9221 118.588 52.4615C118.869 54.764 119 57.1226 119 59.5Z" fill="#E8F2FA"/>
<path d="M93.6444 71.3963C96.3588 74.1761 96.6021 78.285 94.3277 80.9432C94.3183 80.9619 94.309 80.9713 94.2903 80.9806C94.1311 81.1678 93.9533 81.3457 93.7661 81.5235C93.6725 81.6078 93.5789 81.692 93.4853 81.7669C93.2794 81.9353 93.0641 82.0945 92.8395 82.2349C89.9754 84.0413 85.932 83.5171 83.3019 80.8403C80.6812 78.154 80.3629 74.2323 82.394 71.5647C82.5531 71.3588 82.731 71.1529 82.9181 70.9657C83.0024 70.8815 83.096 70.7879 83.1896 70.7036C83.3768 70.5352 83.5733 70.376 83.7793 70.2263C83.7886 70.2169 83.8073 70.2076 83.826 70.1982C86.6901 68.1484 90.9301 68.6164 93.6444 71.3963Z" fill="#E0E0E0"/>
<path d="M93.3262 71.6865C95.8721 74.2885 96.0967 78.154 93.9627 80.6531C93.9533 80.6625 93.944 80.6812 93.9346 80.6905C93.7849 80.8684 93.6164 81.0369 93.4385 81.196C93.3543 81.2802 93.2607 81.3551 93.1765 81.4206C92.9799 81.5797 92.774 81.7295 92.5681 81.8605C89.8818 83.5546 86.0818 83.0679 83.6201 80.5501C81.1585 78.0324 80.8684 74.3446 82.7684 71.8456C82.9182 71.649 83.0773 71.4618 83.2551 71.284C83.3394 71.1998 83.4236 71.1249 83.5078 71.0406C83.6857 70.8815 83.8729 70.7318 84.0601 70.5914C84.0694 70.582 84.0881 70.5726 84.0975 70.5633C86.8025 68.6445 90.7804 69.0751 93.3262 71.6865Z" fill="#CCCCCC"/>
<path d="M83.3113 71.2278L93.2326 81.3738C93.0361 81.5329 92.8302 81.6826 92.6243 81.8137L82.8246 71.7894C82.9743 71.5928 83.1428 71.4056 83.3113 71.2278Z" fill="#F2F2F2"/>
<path d="M84.1162 70.5352L93.9908 80.6343C93.841 80.8122 93.6725 80.9807 93.4947 81.1398C93.4105 81.2146 93.3169 81.2895 93.2326 81.3644L83.3113 71.2278C83.3955 71.1435 83.4798 71.0687 83.564 70.9844C83.7418 70.8159 83.929 70.6662 84.1162 70.5352Z" fill="#A7A7A8"/>
<path d="M34.1163 37.6168H21.3496V51.3476H34.1163V37.6168Z" fill="#B3D3F6"/>
<path d="M27.4241 37.8883H21.827V50.7767H27.4241V37.8883Z" fill="#DCEAFF"/>
<path d="M33.8917 37.8883H27.4241V50.7767H33.8917V37.8883Z" fill="#DCEAFF"/>
<path d="M26.3103 45.4509C25.4585 45.9095 24.8408 46.6115 24.8221 47.613C24.8221 47.7534 24.8314 47.9032 24.9063 48.0342C25.0093 48.2027 25.2246 48.2963 25.4305 48.3056C25.9359 48.3431 26.3758 48.0155 26.8531 47.8564C27.0029 47.8096 27.1527 47.7815 27.3024 47.7628V45.1608C26.9561 45.1888 26.6098 45.2824 26.3103 45.4509Z" fill="#FC9F38"/>
<path d="M30.2695 47.117C30.1852 46.3027 28.9591 45.3387 28.1729 45.1796C27.8921 45.1234 27.6019 45.1141 27.3024 45.1515V47.7535C27.4803 47.7348 27.6675 47.7348 27.8453 47.7535C28.6034 47.8565 30.4192 48.5304 30.2695 47.117Z" fill="#FC9F38"/>
<path d="M23.5211 44.4868C23.4181 45.245 24.1576 46.0874 24.9812 45.9657C25.9172 45.8347 25.2059 44.4401 24.7659 44.0469C24.298 43.6351 23.7083 43.6351 23.5492 44.3184C23.5398 44.3839 23.5305 44.4401 23.5211 44.4868Z" fill="#FC9F38"/>
<path d="M25.8236 42.0159C25.5709 42.072 25.3743 42.2312 25.2433 42.4464C25.0187 42.8021 24.9719 43.2888 25.1216 43.6258C25.2059 43.813 25.3462 43.9627 25.4773 44.1125C25.7768 44.4494 26.1231 44.8051 26.5817 44.8425C26.6753 44.8519 26.7596 44.8425 26.8438 44.8051C26.9187 44.7677 26.9748 44.7115 27.031 44.6366C27.2837 44.309 27.3305 43.8598 27.2276 43.4573C27.0965 42.8957 26.5817 41.8568 25.8236 42.0159Z" fill="#FC9F38"/>
<path d="M31.87 44.3184C31.8794 44.7302 31.6173 45.2263 31.3084 45.4509C30.9247 45.7411 30.0449 45.947 29.6986 45.4884C29.5956 45.3573 29.5769 45.1795 29.5862 45.011C29.6424 44.2248 30.6532 43.3263 31.4863 43.71C31.7577 43.8411 31.87 44.0657 31.87 44.3184Z" fill="#FC9F38"/>
<path d="M29.5301 42.0721C29.8109 42.3903 29.9419 42.8583 29.8389 43.2233C29.7828 43.4199 29.6705 43.5884 29.5675 43.7662C29.3242 44.1406 29.0434 44.5524 28.5941 44.6554C28.5099 44.6741 28.4163 44.6834 28.332 44.6554C28.2478 44.6273 28.1823 44.5805 28.1261 44.5243C27.8266 44.2342 27.7049 43.8036 27.733 43.3918C27.7798 42.8021 28.1074 41.6977 28.8936 41.7445C29.1463 41.7538 29.3616 41.8849 29.5301 42.0721Z" fill="#FC9F38"/>
<path d="M46.0126 48.5023L36.6341 48.4555L36.6435 47.2762L40.2095 45.3387L42.4652 45.3481L46.0126 47.3137V48.5023Z" fill="#CDDFF2"/>
<path d="M36.6419 47.2747L36.6348 48.9875L46.0133 49.0265L46.0204 47.3137L36.6419 47.2747Z" fill="#7492A5"/>
<path d="M36.6346 48.9886L36.5153 76.1226L45.8937 76.1638L46.013 49.0298L36.6346 48.9886Z" fill="#C5CED8"/>
<path d="M35.7582 82.2342L35.7523 83.479L46.6002 83.5308L46.6062 82.2859L35.7582 82.2342Z" fill="#C5CED8"/>
<path d="M37.4661 48.9994L37.3196 82.2546L45.0414 82.2887L45.1879 49.0334L37.4661 48.9994Z" fill="#D0DAE8"/>
<path opacity="0.25" d="M40.8351 49.0142L40.6898 82.2694L41.6726 82.2737L41.8179 49.0185L40.8351 49.0142Z" fill="white"/>
<path d="M41.4825 45.3481L41.0051 45.3387L41.2672 28.3882H41.3702L41.4825 45.3481Z" fill="#B2B1AF"/>
<path d="M40.7731 41.8475L40.7578 45.3387L41.8341 45.3435L41.8495 41.8523L40.7731 41.8475Z" fill="#FFBFE6"/>
<path d="M33.942 76.1106L33.9338 77.8235L48.4601 77.8931L48.4683 76.1803L33.942 76.1106Z" fill="#C5CED8"/>
<path d="M40.1208 43.6273L40.1137 45.3401L42.4724 45.3499L42.4795 43.6371L40.1208 43.6273Z" fill="#7492A5"/>
<path d="M37.5489 50.7499L37.5466 51.3677L44.3511 51.3928L44.3534 50.7751L37.5489 50.7499Z" fill="#7492A5"/>
<path d="M37.5415 52.6531L37.5392 53.2709L40.9368 53.2834L40.9391 52.6657L37.5415 52.6531Z" fill="#7492A5"/>
<path d="M37.5296 54.8267L37.5272 55.4445L40.9248 55.4577L40.9272 54.8399L37.5296 54.8267Z" fill="#7492A5"/>
<path d="M37.514 56.9634L37.5116 57.5812L44.3161 57.6077L44.3186 56.9899L37.514 56.9634Z" fill="#7492A5"/>
<path d="M37.5066 58.8671L37.5042 59.4849L40.9018 59.4981L40.9042 58.8803L37.5066 58.8671Z" fill="#7492A5"/>
<path d="M37.5039 61.0412L37.5016 61.6589L40.8992 61.6716L40.9015 61.0538L37.5039 61.0412Z" fill="#7492A5"/>
<path d="M37.4884 63.2743L37.4849 63.8921L44.2894 63.9305L44.2929 63.3128L37.4884 63.2743Z" fill="#7492A5"/>
<path d="M37.4859 65.1814L37.4765 65.7991L40.8834 65.8179V65.1908L37.4859 65.1814Z" fill="#7492A5"/>
<path d="M37.4765 67.3529L37.4671 67.98L40.8741 67.9894V67.3716L37.4765 67.3529Z" fill="#7492A5"/>
<path d="M37.4668 69.6566L37.4644 70.2743L44.2689 70.3008L44.2713 69.683L37.4668 69.6566Z" fill="#7492A5"/>
<path d="M37.4513 71.5563L37.4477 72.1741L40.8453 72.1939L40.8489 71.5762L37.4513 71.5563Z" fill="#7492A5"/>
<path d="M37.4486 73.7306L37.4451 74.3484L40.8427 74.3676L40.8462 73.7498L37.4486 73.7306Z" fill="#7492A5"/>
<path d="M53.0886 62.8414L51.1698 64.5168H64.0208L62.102 62.8414H53.0886Z" fill="#AED2F4"/>
<path d="M51.0575 67.9238V83.1147H64.1331V67.9238V64.5449H51.0575V67.9238Z" fill="#C3DAF6"/>
<path d="M62.6449 60.0054H52.5644V61.4187H62.6449V60.0054Z" fill="#AED2F4"/>
<path d="M62.0926 61.3625H53.1166V62.8414H62.0926V61.3625Z" fill="#C7E0FF"/>
<path d="M53.4442 65.8459H51.7595V81.43H53.4442V65.8459Z" fill="#AED2F4"/>
<path d="M60.0616 71.1248C59.7808 71.1342 59.5 71.1903 59.2286 71.2933C58.901 71.4149 58.6015 71.5834 58.3581 71.8081C57.6562 72.4445 57.2443 73.2495 57.4596 74.2042C57.4877 74.3446 57.5345 74.4849 57.6374 74.5785C57.7778 74.7189 58.0025 74.7564 58.2084 74.7189C58.6951 74.6347 59.0414 74.2229 59.4532 73.9608C59.5843 73.8766 59.7153 73.8204 59.8557 73.7642C60.0242 73.7081 60.1927 73.6613 60.3799 73.6426C61.1193 73.5677 63.0193 73.8017 62.5232 72.482C62.2424 71.7425 60.8478 71.1061 60.0616 71.1248Z" fill="#FC9F38"/>
<path d="M57.2162 72.6036C58.0773 72.2666 57.0665 71.0967 56.5517 70.8252C55.9995 70.5351 55.4472 70.6755 55.4566 71.3587C55.4566 71.4149 55.4566 71.4711 55.466 71.5179C55.5408 72.2666 56.4581 72.9031 57.2162 72.6036Z" fill="#FC9F38"/>
<path d="M57.2443 70.7317C57.6094 70.9844 58.0306 71.2465 58.4705 71.1716C58.5547 71.1529 58.6483 71.1342 58.7138 71.078C58.7793 71.0312 58.8168 70.9563 58.8542 70.8815C59.0133 70.5071 58.9478 70.0765 58.7606 69.7115C58.4892 69.1967 57.7498 68.3169 57.0665 68.6445C56.8419 68.7474 56.6921 68.9533 56.6172 69.1873C56.4862 69.5804 56.5611 70.0578 56.7951 70.3386C56.9074 70.4977 57.0759 70.6194 57.2443 70.7317Z" fill="#FC9F38"/>
<path d="M62.8602 68.9814C61.971 68.8036 61.2316 69.8893 61.3626 70.6474C61.3907 70.8066 61.4562 70.975 61.5872 71.078C62.0271 71.4337 62.8227 71.0312 63.1129 70.6755C63.3469 70.3854 63.4873 69.8612 63.3749 69.4681C63.3094 69.2341 63.1503 69.0469 62.8602 68.9814Z" fill="#FC9F38"/>
<path d="M60.0803 70.5913C60.1646 70.6006 60.2582 70.5726 60.333 70.5258C60.7355 70.3292 60.904 69.8706 61.0444 69.4588C61.1099 69.2716 61.1754 69.0844 61.1754 68.8878C61.1848 68.5228 60.9414 68.1016 60.6045 67.8676C60.3986 67.7272 60.1552 67.643 59.9118 67.6898C59.1537 67.8208 59.1069 68.9533 59.2099 69.5243C59.2847 69.9174 59.5 70.3105 59.8557 70.5164C59.9212 70.5538 59.9961 70.5913 60.0803 70.5913Z" fill="#FC9F38"/>
<path d="M69.5805 66.6976C69.5805 64.2173 71.4618 62.1394 73.9141 61.7276C73.6239 61.6808 73.3244 61.6527 73.0249 61.6527C71.5928 61.6527 70.2825 62.2236 69.3371 63.1315C68.3918 64.0488 67.8021 65.3124 67.8021 66.6976V70.9282H69.5898V66.6976H69.5805Z" fill="#99AEF9"/>
<path d="M69.5804 77.8919V72.4071H67.7927V77.8919C67.7927 80.6624 70.142 82.9368 73.0155 82.9368C73.3243 82.9368 73.6145 82.9087 73.9046 82.8619C71.4618 82.4501 69.5804 80.3723 69.5804 77.8919Z" fill="#99AEF9"/>
<path d="M73.914 61.7277C71.4618 62.1395 69.5804 64.2174 69.5804 66.6977V70.9283H78.2476V66.6977C78.2476 64.2174 76.3663 62.1395 73.914 61.7277Z" fill="#A9C2FF"/>
<path d="M69.5804 77.8919C69.5804 80.3723 71.4618 82.4501 73.914 82.862C76.3663 82.4501 78.2476 80.3723 78.2476 77.8919V72.4071H69.5804V77.8919V77.8919Z" fill="#A9C2FF"/>
<path d="M69.5898 70.9282H67.8021V72.4164H69.5898V70.9282Z" fill="#F27F11"/>
<path d="M78.2476 70.9282H69.5804V72.4164H78.2476V70.9282Z" fill="#FC9F38"/>
<path d="M69.0376 26.7689L67.7553 27.1527L70.713 36.3065L69.7958 36.9243L66.7351 27.4615L65.7149 27.7704L68.9066 37.645L67.8864 37.9538L64.6853 28.0793L63.6651 28.3882L66.8568 38.2627L65.8366 38.5716L62.6449 28.697L61.6247 29.0059L64.8164 38.8805L63.7962 39.1893L60.6045 29.3148L59.5843 29.6236L62.7759 39.4982L61.7557 39.8071L58.564 29.9325L57.5438 30.2414L60.7355 40.1159L59.7153 40.4248L56.5236 30.5503L55.5034 30.8591L58.6951 40.7337L57.6749 41.0426L54.4832 31.168L53.463 31.4769L56.6547 41.3514L55.6344 41.6603L52.4147 31.7764L51.3945 32.0853L54.5861 41.9598L53.5659 42.2687L50.3743 32.3941L49.354 32.703L52.4147 42.1657H51.2915L48.3338 33.0119L47.0141 33.4144L49.7565 41.8849C50.9546 45.5914 56.0276 44.5057 62.1208 42.6618C68.214 40.8273 73.0249 38.9272 71.8268 35.2301L69.0376 26.7689Z" fill="#1E3865"/>
<path d="M27.265 58.2926H23.6615L23.6709 58.2552L25.4679 52.6206L27.2463 58.2552L27.265 58.2926Z" fill="#9EA8B8"/>
<path d="M25.6645 62.7105L23.6615 61.1287L24.0078 74.8688C23.3432 74.3166 22.5851 74.0545 21.8457 74.1855C20.1141 74.485 19.1033 76.7969 19.5806 79.3521C20.0673 81.9073 21.8644 83.7325 23.596 83.433C24.8689 83.2177 25.7487 81.9073 25.9359 80.2226L25.6645 62.7105ZM23.2684 81.795C22.1546 81.9916 20.9939 80.8122 20.6851 79.1556C20.3762 77.5082 21.0314 76.0107 22.1452 75.8141C23.259 75.6176 24.4196 76.7969 24.7378 78.4536C25.0467 80.1009 24.3915 81.5985 23.2684 81.795Z" fill="#899DB3"/>
<path d="M30.4379 74.1949C29.6049 74.0451 28.7438 74.4008 28.0325 75.0934L27.2743 58.4892L27.265 58.302H23.6708V58.4892V61.138L25.6738 62.7104C25.7393 64.0489 25.8142 65.3873 25.8704 66.7258C25.9921 69.2155 26.1137 71.7052 26.2354 74.1949C26.329 76.1791 26.3571 78.1728 26.3384 80.1664C26.329 81.4768 27.2088 83.1896 28.6689 83.4517C30.4005 83.7512 32.1976 81.9354 32.6936 79.3802C33.1804 76.8156 32.1695 74.5037 30.4379 74.1949ZM31.5798 79.1743C31.2616 80.8216 30.101 82.0009 28.9778 81.795C27.864 81.5984 27.2088 80.1009 27.5271 78.4536C27.8453 76.8063 29.0059 75.6269 30.1197 75.8328C31.2429 76.0294 31.8887 77.5269 31.5798 79.1743Z" fill="#9EA8B8"/>
<path d="M26.3009 60.8946C26.3009 61.3439 25.9172 61.7089 25.4492 61.7089C24.9812 61.7089 24.6068 61.3439 24.6068 60.8946C24.6068 60.4453 24.9906 60.0803 25.4585 60.0803C25.9265 60.0897 26.3009 60.4453 26.3009 60.8946Z" fill="#B8C3DE"/>
<path d="M27.2744 58.4798H23.6615V58.2926L23.6709 58.2551H27.2463L27.265 58.2926L27.2744 58.4798Z" fill="#899DB3"/>
<path d="M77.7515 47.7161V51.8999C77.3491 51.6659 76.8998 51.4413 76.3944 51.2354C73.6145 50.0748 69.3652 49.326 64.6104 49.326C59.5094 49.326 54.9979 50.1777 52.2462 51.4881C51.7127 51.7408 51.2447 52.0122 50.8516 52.3024C50.6269 52.162 50.421 52.0122 50.2338 51.8625V47.8752C52.059 46.3964 55.859 45.2639 60.5202 44.8614C61.6808 44.7771 62.8601 44.7303 64.0301 44.7303C66.5947 44.7303 69.2154 44.9363 71.4992 45.3294C73.4741 45.6944 75.1776 46.2092 76.4973 46.8176C76.5348 46.8363 76.5628 46.855 76.6003 46.8737C77.0776 47.1452 77.4614 47.4166 77.7515 47.7161Z" fill="#F27F11"/>
<path d="M77.7515 47.7161C77.5269 47.5289 77.218 47.2574 76.7968 47.0047C76.7407 46.9673 76.6751 46.9392 76.6096 46.9018C76.5722 46.883 76.5441 46.8643 76.5067 46.8456C75.2805 46.1998 73.5209 45.7037 71.5086 45.348C69.2248 44.9549 66.604 44.749 64.0395 44.749C62.8695 44.749 61.6902 44.7958 60.5295 44.8801C55.8497 45.217 51.5723 46.2466 50.2057 47.8752C50.056 48.7363 49.9343 49.7565 49.9249 50.8984C49.9156 52.2462 50.056 53.4255 50.2432 54.3896C51.1885 54.9231 52.4146 55.6063 53.9403 56.1399C54.3147 56.2709 54.6984 56.4019 55.1009 56.5049C55.3068 56.561 55.5221 56.6172 55.7374 56.664C55.9807 56.7202 56.2334 56.7763 56.4861 56.8231C56.7669 56.8793 57.0477 56.9354 57.3379 56.9822C58.5734 57.1975 59.9024 57.3566 61.297 57.4502C62.2517 57.5157 63.2439 57.5532 64.2454 57.5532C65.1252 57.5532 65.9769 57.5251 66.8099 57.4783C71.5928 57.1975 75.6081 56.1679 77.7515 54.7453C77.9574 53.7906 78.1259 52.5831 78.1259 51.1885C78.1165 49.8314 77.9481 48.652 77.7515 47.7161ZM64.0395 52.4615C63.0192 52.4615 62.0271 52.4334 61.0911 52.3772C59.9118 52.3024 58.8074 52.1994 57.7965 52.0496C57.5157 52.0122 57.2349 51.9654 56.9635 51.9186C56.664 51.8718 56.3645 51.8156 56.0837 51.7595C55.6999 51.6846 55.3349 51.6004 54.9886 51.5161C54.3802 51.3664 53.8186 51.2073 53.3225 51.0388C51.5723 50.4304 50.5708 49.7003 50.5708 49.0077C50.5708 47.3791 56.1024 45.554 64.0301 45.554C71.9672 45.554 77.4894 47.3791 77.4894 49.0077C77.4894 49.6255 76.7032 50.2713 75.2899 50.8329C73.3805 51.6004 70.3105 52.2088 66.5198 52.4053C65.7429 52.4427 64.9006 52.4615 64.0395 52.4615Z" fill="#FC9F38"/>
<path d="M53.4442 53.6033L55.1009 56.5049C54.6985 56.3925 54.3054 56.2709 53.9403 56.1398L52.5364 53.6782C52.4334 53.5004 52.4896 53.2757 52.658 53.1541L54.998 51.5161C55.3443 51.6004 55.7093 51.6846 56.0837 51.7595L53.4442 53.6033Z" fill="#A5A7A8"/>
<path d="M61.8586 54.9325C61.8586 55.466 61.4094 55.8965 60.8571 55.8965C60.3049 55.8965 59.8557 55.466 59.8557 54.9325C59.8557 54.399 60.3049 53.9684 60.8571 53.9684C61.4094 53.959 61.8586 54.399 61.8586 54.9325Z" fill="#F27F11"/>
<path d="M65.4902 54.9325C65.4902 55.466 65.041 55.8965 64.4887 55.8965C63.9365 55.8965 63.4872 55.466 63.4872 54.9325C63.4872 54.399 63.9365 53.9684 64.4887 53.9684C65.041 53.959 65.4902 54.399 65.4902 54.9325Z" fill="#F27F11"/>
<path d="M69.9548 54.9325C69.9548 55.466 69.5056 55.8965 68.9533 55.8965C68.4011 55.8965 67.9518 55.466 67.9518 54.9325C67.9518 54.399 68.4011 53.9684 68.9533 53.9684C69.5056 53.959 69.9548 54.399 69.9548 54.9325Z" fill="#F27F11"/>
<path d="M73.5397 54.2398C73.5397 54.7733 73.0904 55.2039 72.5382 55.2039C71.9859 55.2039 71.5367 54.7733 71.5367 54.2398C71.5367 53.7063 71.9859 53.2758 72.5382 53.2758C73.0904 53.2664 73.5397 53.7063 73.5397 54.2398Z" fill="#F27F11"/>
<path d="M76.4224 53.2664C76.4224 53.7999 75.9732 54.2305 75.4209 54.2305C74.8687 54.2305 74.4194 53.7999 74.4194 53.2664C74.4194 52.7329 74.8687 52.3024 75.4209 52.3024C75.9732 52.3024 76.4224 52.7423 76.4224 53.2664Z" fill="#F27F11"/>
<path d="M66.9972 54.9323C66.9972 54.7358 66.8474 54.5673 66.6509 54.5299L66.5292 52.2835C66.5198 52.0683 66.3326 51.8998 66.108 51.8998H61.5217C61.3065 51.8998 61.1099 52.0495 61.0912 52.2648C61.0631 52.5082 61.2597 52.7047 61.5124 52.7047H64.3109C65.1065 52.7047 65.7523 53.3037 65.7991 54.0712L65.8272 54.5205H64.3765C64.1612 54.5205 63.9646 54.6796 63.9459 54.8855C63.9178 55.1289 64.1144 55.3255 64.3671 55.3255H65.874L65.8927 55.625C65.9395 56.4486 65.2563 57.1319 64.4045 57.1319H61.7276C61.5124 57.1319 61.3158 57.2816 61.2971 57.4969C61.269 57.7403 61.4656 57.9368 61.7089 57.9368H66.4075C66.5198 57.9368 66.6322 57.89 66.707 57.8152C66.7819 57.7309 66.8287 57.628 66.8194 57.5156L66.707 55.2974C66.8662 55.2693 66.9972 55.1102 66.9972 54.9323Z" fill="#A5A7A8"/>
<path d="M57.5157 51.6003C57.2911 51.5348 57.0571 51.6565 56.9916 51.8624C56.9541 51.9747 56.093 54.6703 56.5142 56.9728C56.5517 57.1694 56.7295 57.3098 56.9261 57.3098C56.9541 57.3098 56.9729 57.3098 57.0009 57.3004C57.2256 57.263 57.3847 57.0571 57.3379 56.8324C56.9541 54.7265 57.7872 52.1245 57.7965 52.0964C57.8527 51.8905 57.731 51.6658 57.5157 51.6003Z" fill="#A5A7A8"/>
<path d="M101.085 51.6097C101.076 50.9358 101.048 50.2619 101.011 49.588C100.936 48.2402 100.187 47.0141 98.9982 46.2934C98.6519 46.0874 98.1839 45.816 97.8937 45.6475C98.0435 45.1608 98.2307 44.384 98.5021 43.2046C98.8391 41.7445 99.148 40.2938 99.176 40.0878C99.4194 38.5154 99.6534 36.6715 99.5036 34.8651C99.3352 32.7311 98.6893 31.0557 97.5287 29.7453C96.8642 29.0059 96.0405 28.4256 95.0765 28.0231C94.4681 27.7704 93.8035 27.5926 93.1109 27.499C91.5291 27.2743 89.7976 27.4709 88.2345 28.0418C86.1847 28.8 84.3408 30.0635 82.6093 31.9261C81.1679 33.4705 79.9698 35.2208 78.9028 36.9055C77.4895 36.4563 75.917 37.1302 75.318 38.478C74.6815 39.9006 75.3742 41.5667 76.853 42.1751C78.3319 42.7835 80.0447 42.1189 80.6811 40.6962C81.1117 39.7322 80.9339 38.5996 80.2506 37.8041C82.4221 34.3877 84.893 30.9714 88.8241 29.5207C90.7148 28.8187 92.8114 28.8 94.4306 29.4645C95.1701 29.7734 95.7972 30.2133 96.2932 30.7749C98.2962 33.0212 98.0903 36.4656 97.5662 39.8538C97.51 40.2376 96.7799 43.5697 96.3962 44.983L95.3011 44.6648C93.9627 44.281 92.5119 44.5524 91.4168 45.3855C90.7429 45.8909 90.0784 46.4244 89.4325 46.9673C85.1083 50.5801 78.3506 57.4408 81.7669 62.8508L81.9728 63.1877L83.3674 62.3641L83.1615 62.0271C81.795 59.865 82.4501 57.029 85.099 53.6033C86.7931 51.4131 89.002 49.4102 90.5557 48.1092C91.1734 47.5944 91.8005 47.0983 92.4277 46.621C93.1109 46.1062 94.0095 45.9377 94.8425 46.181L96.1341 46.5461C96.2652 46.5835 96.3868 46.6303 96.5085 46.6771C96.6676 46.7426 96.8267 46.8269 96.9859 46.9205L98.1558 47.6318C98.8859 48.0811 99.3539 48.8392 99.4007 49.6816C99.4381 50.3087 99.4568 50.9545 99.4755 51.6003C99.513 53.6969 99.4288 56.795 98.811 59.6123C97.8938 63.7961 96.1154 66.136 93.5415 66.576L93.1483 66.6415L93.4291 68.1952L93.8223 68.1297C100.374 67.0065 101.188 57.3004 101.085 51.6097Z" fill="#A7A7A8"/>
<path d="M82.0945 62.6543L82.8058 62.2425C81.3457 59.9306 82.0102 56.9448 84.762 53.3881C86.4187 51.2447 88.5527 49.2698 90.2843 47.8284C90.069 47.6506 89.8724 47.4634 89.6852 47.2668C85.2206 50.9827 78.8747 57.5439 82.0945 62.6543Z" fill="#CCD0D4"/>
<path d="M100.608 49.6161C100.533 48.3994 99.8593 47.2856 98.7829 46.6304L97.4164 45.8254C97.5568 45.4323 97.7533 44.6742 98.109 43.1298C98.4366 41.7072 98.7455 40.2283 98.7735 40.0411C99.0169 38.4968 99.2415 36.6716 99.1011 34.9026C98.942 32.8528 98.3243 31.2523 97.2198 30.0075C96.1996 28.8656 94.7582 28.1355 93.0454 27.8921C91.5291 27.6769 89.8724 27.8641 88.3749 28.4163C86.3812 29.1464 84.5935 30.3912 82.8994 32.1976C81.3925 33.8075 80.1476 35.6701 79.0338 37.4391L79.7452 37.8509C81.9915 34.2942 84.528 30.6907 88.6744 29.1557C91.1828 28.2291 94.6085 28.2946 96.5927 30.5222C98.6987 32.8903 98.4928 36.4376 97.9593 39.9101C97.8937 40.3219 97.0139 44.356 96.6676 45.4698C96.1341 45.32 95.1794 45.0486 95.1794 45.0486C93.9626 44.7023 92.6523 44.9456 91.6508 45.6944C91.0798 46.1343 90.4059 46.6585 89.6759 47.2668C89.8631 47.4634 90.0596 47.6506 90.2749 47.8284C90.9956 47.2294 91.6414 46.724 92.1562 46.3309C92.9424 45.7318 93.9813 45.5447 94.936 45.8161C95.5444 45.9939 95.9563 46.1062 96.2277 46.1811C96.5646 46.2747 96.8829 46.4151 97.173 46.5929C97.4164 46.7427 97.7814 46.958 98.343 47.3043C99.1854 47.8191 99.7189 48.6989 99.775 49.6536C99.8031 50.1871 99.8312 50.8423 99.8499 51.5911C100.121 51.6098 100.402 51.6191 100.683 51.6191C100.674 50.8797 100.645 50.2058 100.608 49.6161Z" fill="#393B42"/>
<path d="M100.683 51.6191C100.402 51.6191 100.131 51.6191 99.8499 51.5911C99.8874 53.8468 99.7844 56.8981 99.176 59.6873C98.2214 64.0395 96.34 66.4824 93.5789 66.9504L93.7193 67.7367C99.9903 66.679 100.786 57.2724 100.683 51.6191Z" fill="#CCD0D4"/>
<path d="M80.3161 40.5465C79.7732 41.782 78.2944 42.3529 77.0121 41.8194C75.7298 41.2859 75.1495 39.8632 75.6924 38.6371C76.2352 37.4016 77.7141 36.8307 78.9964 37.3642C80.2693 37.8883 80.859 39.311 80.3161 40.5465Z" fill="#393B42"/>
<path d="M79.82 40.3405C79.3895 41.3139 78.2289 41.7632 77.218 41.342C76.2165 40.9302 75.7485 39.7976 76.1791 38.8336C76.6096 37.8602 77.7702 37.4109 78.7811 37.8321C79.7919 38.2439 80.2506 39.3765 79.82 40.3405Z" fill="#A5A7A8"/>
</svg>
