<svg width="119" height="119" viewBox="0 0 119 119" fill="none" xmlns="http://www.w3.org/2000/svg">
<path d="M119 59.5C119 61.1454 118.94 62.7666 118.806 64.3757C116.314 94.9604 90.7139 119 59.5 119C54.2493 119 49.1317 118.322 44.2802 117.028C18.8009 110.313 0 87.1086 0 59.5C0 26.6407 26.6407 0 59.5 0C92.3593 0 119 26.6407 119 59.5Z" fill="#E8F2FA"/>
<path d="M30.8751 20.9545L29.6532 23.725L87.3263 49.2527C88.0522 49.5672 88.8991 49.2769 89.2621 48.5752C89.2621 48.5631 89.2742 48.5631 89.2742 48.551C89.6855 47.7767 89.3468 46.833 88.5604 46.4821L30.8751 20.9545Z" fill="#A5A7A8"/>
<path d="M68.0415 58.4595C57.8909 58.4595 49.6277 49.9543 49.6277 39.5013C49.6277 29.0483 57.8909 20.5431 68.0415 20.5431C78.192 20.5431 86.4553 29.0362 86.4553 39.5013C86.4553 49.9543 78.192 58.4595 68.0415 58.4595Z" fill="#A5AAA5"/>
<path d="M85.802 39.5013C85.802 49.6156 77.8533 57.8062 68.0415 57.8062C58.2297 57.8062 50.281 49.6156 50.281 39.5013C50.281 29.3871 58.2297 21.1964 68.0415 21.1964C77.8533 21.1843 85.802 29.3871 85.802 39.5013Z" fill="white"/>
<path d="M69.3481 55.8946C78.1347 55.8946 85.2575 48.7717 85.2575 39.9852C85.2575 31.1987 78.1347 24.0758 69.3481 24.0758C60.5616 24.0758 53.4387 31.1987 53.4387 39.9852C53.4387 48.7717 60.5616 55.8946 69.3481 55.8946Z" fill="#D6D7D8"/>
<path d="M71.1508 33.3069C70.1224 36.3315 66.8316 37.9406 63.807 36.9122C60.7824 35.8839 59.1733 32.5931 60.2017 29.5685C61.2301 26.5439 64.5208 24.9348 67.5454 25.9632C70.57 26.9915 72.1912 30.2823 71.1508 33.3069Z" fill="#A5A7A8"/>
<path d="M70.074 32.9319C69.2513 35.3637 66.6017 36.6582 64.1821 35.8234C61.7503 35.0007 60.4558 32.3512 61.2905 29.9315C62.1132 27.4997 64.7628 26.2052 67.1825 27.04C69.6143 27.8748 70.9088 30.5122 70.074 32.9319Z" fill="#B3D3F6"/>
<path d="M68.3318 31.3228C67.8963 32.6052 66.4929 33.2948 65.1983 32.8593C63.9159 32.4237 63.2263 31.0203 63.6618 29.7379C64.0974 28.4555 65.5008 27.7659 66.7832 28.2014C68.0778 28.6248 68.7674 30.0283 68.3318 31.3228Z" fill="#8ABFF8"/>
<path d="M82.3902 38.6182C81.3618 41.6428 78.0711 43.2519 75.0465 42.2235C72.0219 41.1951 70.4128 37.9044 71.4411 34.8798C72.4695 31.8552 75.7603 30.2461 78.7849 31.2744C81.8095 32.3028 83.4307 35.5936 82.3902 38.6182Z" fill="#A5A7A8"/>
<path d="M81.3134 38.2431C80.4907 40.6749 77.8412 41.9694 75.4215 41.1346C73.0018 40.2998 71.6952 37.6624 72.53 35.2427C73.3527 32.8109 76.0022 31.5164 78.4219 32.3511C80.8537 33.1859 82.1482 35.8234 81.3134 38.2431Z" fill="#B3D3F6"/>
<path d="M79.5713 36.634C79.1357 37.9164 77.7323 38.606 76.4378 38.1705C75.1554 37.7349 74.4657 36.3315 74.9013 35.037C75.3368 33.7545 76.7402 33.0649 78.0348 33.5005C79.3172 33.9481 80.0068 35.3394 79.5713 36.634Z" fill="#8ABFF8"/>
<path d="M66.3114 44.3165C65.283 47.3411 61.9923 48.9502 58.9677 47.9219C55.9431 46.8935 54.334 43.6027 55.3623 40.5781C56.3907 37.5535 59.6815 35.9444 62.7061 36.9728C65.7307 38.0133 67.3398 41.304 66.3114 44.3165Z" fill="#A5A7A8"/>
<path d="M65.2346 43.9535C64.3998 46.3853 61.7624 47.6798 59.3427 46.8451C56.923 46.0103 55.6164 43.3728 56.4512 40.9531C57.286 38.5334 59.9234 37.2268 62.3431 38.0616C64.7628 38.8843 66.0573 41.5218 65.2346 43.9535Z" fill="#B3D3F6"/>
<path d="M63.4804 42.3323C63.0448 43.6147 61.6414 44.3044 60.359 43.8688C59.0766 43.4333 58.387 42.0299 58.8225 40.7474C59.258 39.465 60.6615 38.7754 61.9439 39.2109C63.2263 39.6465 63.9159 41.0499 63.4804 42.3323Z" fill="#8ABFF8"/>
<path d="M77.7202 50.3657C76.6918 53.3903 73.4011 54.9994 70.3765 53.9711C67.3519 52.9427 65.7428 49.6519 66.7711 46.6273C67.7995 43.6027 71.0903 41.9936 74.1149 43.022C77.1395 44.0504 78.7486 47.3411 77.7202 50.3657Z" fill="#A5A7A8"/>
<path d="M76.6435 49.9906C75.8087 52.4224 73.1712 53.7169 70.7515 52.8822C68.3318 52.0595 67.0252 49.4099 67.86 46.9902C68.6948 44.5584 71.3322 43.2639 73.7519 44.0987C76.1716 44.9335 77.4662 47.571 76.6435 49.9906Z" fill="#B3D3F6"/>
<path d="M74.8892 48.3815C74.4537 49.6639 73.0502 50.3536 71.7678 49.918C70.4854 49.4825 69.7958 48.0791 70.2313 46.7966C70.6669 45.5142 72.0703 44.8246 73.3527 45.2601C74.6351 45.6957 75.3247 47.087 74.8892 48.3815Z" fill="#8ABFF8"/>
<path d="M31.0808 87.3022H30.8509C30.0766 87.3022 29.4354 86.661 29.4354 85.8867V19.9503C29.4354 19.176 30.0766 18.5348 30.8509 18.5348H31.0808C31.8551 18.5348 32.4963 19.176 32.4963 19.9503V85.8867C32.4963 86.661 31.8551 87.3022 31.0808 87.3022Z" fill="#A5AAA5"/>
<path d="M34.3353 22.5757C34.3353 24.33 32.9077 25.7576 31.1534 25.7576C29.3992 25.7576 27.9716 24.33 27.9716 22.5757C27.9716 20.8214 29.3992 19.3938 31.1534 19.3938C32.9077 19.3938 34.3353 20.8214 34.3353 22.5757Z" fill="#4C4B4B"/>
<path d="M101.191 93.5813H24.3057L34.8071 77.4541H90.6897L101.191 93.5813Z" fill="#A5A7A8"/>
<path d="M101.191 93.5812H24.3057V97.1018H101.191V93.5812Z" fill="#D6D7D8"/>
<path d="M83.7573 83.6605C83.5154 83.8057 88.4394 84.3864 90.3026 84.3864C92.1657 84.3743 92.6376 85.1123 92.6739 86.0318C92.7102 86.9513 89.2863 87.3747 89.0443 87.3747C88.8024 87.3747 82.8379 86.9755 82.8379 86.9755C82.8379 86.9755 80.1762 85.3422 80.031 85.6326C79.8858 85.9108 83.7573 83.6605 83.7573 83.6605Z" fill="#E86E0A"/>
<path d="M70.812 77.1032C71.0056 76.8492 71.1991 76.6072 71.3685 76.3652C71.2959 76.341 71.187 76.3169 71.0902 76.2443C70.9209 76.6556 70.7273 77.0669 70.5095 77.4662C70.6063 77.3573 70.7152 77.2363 70.812 77.1032Z" fill="#DD9F65"/>
<path d="M92.8916 87.0239C92.8674 86.54 92.7102 86.2254 92.4924 86.0319C91.9117 85.5116 90.9196 85.7657 90.9196 85.7657C90.9196 85.7657 92.1657 86.0439 86.5279 85.6326C85.0035 85.5237 83.4065 85.4269 81.87 85.5842C81.3619 85.6447 80.8658 85.5721 80.3698 85.4511C79.7528 85.3059 79.1357 85.0761 78.5066 84.943L78.4703 90.5688C78.7728 90.5688 79.0874 90.5688 79.3898 90.5688C80.5029 90.5446 81.749 90.6655 82.8379 90.4357C85.0519 89.9638 87.2901 89.7582 89.5283 89.988C90.2905 90.0606 90.109 90.4962 90.968 90.1332C91.0648 90.0969 91.1616 90.0364 91.2463 89.9759C91.3914 89.988 91.5124 89.9638 91.6213 89.9275C91.7302 89.8913 91.827 89.8429 91.8996 89.7824C92.1536 89.5888 92.2867 89.3105 92.3351 89.2137C92.3351 89.2016 92.3472 89.1895 92.3472 89.1774C92.3593 89.1411 92.9642 88.7661 92.8916 87.0239Z" fill="#F27F11"/>
<path d="M78.6397 84.9188C77.5871 84.7373 76.5829 84.2775 75.5909 83.8299C74.9618 83.5516 74.3205 83.1766 73.9213 82.5596C73.5099 81.9426 73.3769 81.1562 72.9292 80.5391C72.6994 80.2367 72.4332 79.9705 72.1549 79.7043C72.0823 79.6439 71.4653 79.0631 71.0298 78.6155C71.2354 78.2283 71.4169 77.7807 71.5258 77.3331C71.6105 76.9943 71.6468 76.6555 71.6105 76.3289C71.6226 76.3047 71.6347 76.2805 71.6347 76.2563C71.6226 76.2442 71.6105 76.2321 71.5863 76.22C71.55 75.9901 71.4774 75.7845 71.3443 75.5909C71.3322 75.3973 71.3201 75.2279 71.1992 75.107C71.1145 75.0344 70.9693 74.9618 70.6789 75.0223C70.6547 75.0102 70.6305 74.9981 70.5942 74.986C70.6426 74.8529 70.6789 74.7198 70.7273 74.5988L71.1992 73.3043L70.5095 73.5221L70.933 71.6831C70.7273 71.7073 70.3765 71.7678 70.316 71.4411C70.316 71.4169 70.316 71.3927 70.316 71.3685C70.3281 71.3443 70.3402 71.308 70.3523 71.2717C70.3402 71.2597 70.3402 71.2476 70.3281 71.2355C70.2918 71.1024 70.1224 70.9451 70.0377 70.8362C70.0135 70.7999 69.9893 70.7757 69.9651 70.7394C69.8925 70.6547 69.832 70.5579 69.7473 70.4612C69.699 70.4007 69.6506 70.3402 69.6022 70.2918C69.5417 70.2192 69.4691 70.1345 69.4086 70.0498C69.3844 70.0135 69.3602 69.9893 69.3239 69.953C69.2997 69.9288 69.2755 69.9046 69.2513 69.8683C69.1545 69.7594 69.0577 69.6506 68.9609 69.5417C68.9126 69.4933 68.8642 69.4328 68.8158 69.3844C68.719 69.2755 68.6101 69.1666 68.5012 69.0577C68.4528 69.0093 68.4044 68.961 68.3681 68.9247C68.2471 68.8037 68.1141 68.6948 67.9931 68.5738C67.9568 68.5375 67.9205 68.5133 67.8842 68.477C67.7269 68.3318 67.5454 68.1867 67.3761 68.0415C66.9526 67.7027 66.4929 67.364 65.9847 67.0373C63.3594 65.3798 60.1533 64.7749 57.1892 64.291C55.4228 64.0006 53.5597 63.9038 51.7086 64.0127C50.7044 64.0853 49.7124 64.2063 48.7324 64.4119C48.5509 64.4482 48.3694 64.4966 48.188 64.5329C48.0791 64.5571 47.9823 64.5813 47.8734 64.6176C47.8129 64.6297 47.7403 64.6539 47.6798 64.666C47.5347 64.7023 47.4016 64.7386 47.2564 64.787C47.2443 64.787 47.2322 64.7991 47.2201 64.7991C44.4375 65.6218 41.8847 67.0857 39.961 69.3723C39.5618 69.8441 39.1867 70.3523 38.848 70.8967C38.5455 71.3685 38.2794 71.8646 38.0253 72.3969C37.9527 72.5663 37.868 72.7236 37.7954 72.8929C37.0574 74.623 36.8034 76.0748 36.6824 77.1879C36.5735 78.2888 36.3557 80.5633 36.7913 83.1887C37.0937 85.0035 37.5172 85.9229 37.6502 86.2012C38.4124 87.7982 39.4771 88.8024 40.1667 89.3589C53.1483 96.4849 58.2055 92.6255 58.2055 92.6255C59.6815 91.8633 59.8992 91.7302 59.8992 91.7302C60.0081 91.6697 60.1291 91.585 60.2622 91.5003C60.7098 91.2099 61.2301 90.8107 61.8108 90.2542C64.8596 88.7903 65.0895 90.351 65.5371 90.8954C67.4002 89.8549 69.8804 89.9517 71.913 90.109C74.1754 90.2784 76.4136 90.5082 78.676 90.5203L78.7123 84.8946C78.7002 84.9309 78.676 84.9188 78.6397 84.9188Z" fill="#FC9F38"/>
<path d="M36.3799 78.4461C35.8839 78.301 34.2143 81.132 34.3353 84.2534C34.3353 84.2534 34.4563 85.923 35.158 87.5563C36.4404 90.5567 39.1384 92.4924 41.8726 93.7869C45.115 95.3234 48.6114 96.1945 52.12 96.6785C54.9994 97.0777 58.1571 97.2592 61.0244 96.7148C61.956 96.5454 62.8755 96.255 63.7223 95.7953C64.2547 95.4928 65.6702 94.6822 65.8154 93.9926C66.0694 92.8554 66.2146 91.1979 65.3556 90.3268C64.3878 89.3468 62.8755 89.7824 62.6819 89.8429C62.5488 89.8792 62.4399 89.9155 62.331 89.9759C61.6051 90.3268 61.0244 90.9075 60.3832 91.4156C58.6047 92.8312 56.2092 93.5813 54.0073 93.4966C51.8175 93.4119 49.6035 92.8796 47.4863 92.3109C43.9414 91.3552 40.0578 90.0606 38.0737 86.5037C37.1905 84.9188 36.9002 83.0194 36.7066 81.1925C36.5009 79.2325 36.6219 78.5066 36.3799 78.4461Z" fill="#F27F11"/>
<path d="M92.2262 89.4072C92.8553 87.3868 91.0648 87.3142 91.0648 87.3142C92.4803 87.1206 92.7827 87.9675 92.6496 88.7539L92.2262 89.4072Z" fill="#82593D"/>
<path d="M91.2584 89.9517C91.3793 89.6976 91.4519 89.3468 91.4156 88.8386C91.3309 88.1006 90.3268 88.0765 90.3268 88.0765C90.3268 88.0765 91.2704 87.6409 91.6939 88.4878C91.8875 88.9475 91.9117 89.4073 91.8512 89.8065L91.2584 89.9517Z" fill="#82593D"/>
<path d="M92.565 75.4699L74.8529 59.4637L74.0544 58.7499L72.8929 57.6973C72.9534 57.649 73.026 57.6006 73.0865 57.5522C74.8529 56.2818 76.8249 56.2455 78.6276 55.5075C78.6518 55.5075 78.676 55.5075 78.7002 55.4954C84.4469 54.8542 90.3389 59.1976 92.2504 67.243C92.9279 70.1345 93.0005 72.9535 92.565 75.4699Z" fill="#CCD0D4"/>
<path d="M92.565 75.4698C91.9601 78.9542 90.3631 81.8457 88.0402 83.5395C87.7619 83.7452 87.4836 83.9266 87.1812 84.096C86.419 84.5316 85.5842 84.834 84.6889 85.0034C83.963 85.1486 83.225 85.1849 82.487 85.1244C79.7527 84.9308 77.0427 83.4669 74.7803 81.1077C69.832 81.144 67.0978 78.9905 66.3114 75.6634C65.2951 71.3927 66.9405 67.9083 69.1908 65.537C69.2997 63.3351 69.7958 61.3631 70.6063 59.6814C71.3444 58.9555 72.1066 58.2901 72.8929 57.6852L74.0544 58.7377L92.565 75.4698Z" fill="#BCC0C4"/>
<path d="M88.9838 78.6276C88.6935 78.434 88.4031 78.2283 88.1853 77.9501C87.8345 77.5266 87.9313 76.9338 87.5804 76.5345C87.3989 76.3168 87.3989 76.1474 87.1328 76.2442C86.9392 76.3168 86.7335 76.341 86.5278 76.3289C86.4915 76.9217 85.8019 77.2484 85.2091 77.2484C84.6163 77.2484 84.0235 77.0548 83.4428 77.1758C82.9346 77.2847 82.4991 77.6113 82.0514 77.8775C81.1078 78.434 79.9826 78.7486 78.8454 78.7969C77.7686 78.8453 76.6797 78.6639 75.7361 78.2283C75.6151 78.1678 75.4941 78.1073 75.3731 78.0469L82.4628 85.2333C82.5354 85.2454 82.5959 85.2696 82.6685 85.2938C82.741 85.318 83.5153 85.5842 83.4669 85.7051C83.5395 85.5479 83.6363 85.4027 83.7452 85.2696C83.9751 84.9792 84.1082 84.8341 84.4953 84.7615C84.8099 84.701 85.1123 84.8583 85.4269 84.8462C85.4148 84.8462 85.4148 84.3622 85.4148 84.338C85.4148 84.0961 85.4269 83.9388 85.5963 83.7452C85.7777 83.5274 86.0197 83.2371 86.2738 83.104C86.3585 83.0556 87.2054 82.9225 87.2296 82.9588C86.7698 82.2692 87.0239 81.8216 87.0844 81.1078C87.1086 81.1078 87.3868 81.0957 87.3868 81.0957C87.3505 80.5633 87.7377 80.6117 88.1611 80.4786C87.8708 80.2367 87.5683 79.9342 87.5804 79.5592C87.8103 79.5229 88.0522 79.4745 88.27 79.3777C88.3668 79.3293 89.0806 78.7002 88.9838 78.6276Z" fill="#FFAE73"/>
<path d="M75.1311 77.9259C74.4415 77.5629 73.9455 77.1516 73.3648 76.6555C72.7235 76.1111 71.8041 76.5829 71.0661 76.4136C71.0419 76.4136 70.4369 77.575 70.3765 77.6476C70.2313 77.8533 69.3723 78.6034 69.0698 78.2888C69.3239 78.555 69.6264 78.9542 69.9772 79.1115C70.0861 79.1599 71.0298 79.3051 71.0419 79.2325C70.9572 79.9221 70.6426 80.406 70.4006 81.0472C70.7636 80.9868 71.1387 80.9263 71.5016 80.8537C71.2838 81.3376 71.0661 81.8215 70.8483 82.3055C71.0177 82.2934 71.187 82.2208 71.3322 82.1119C72.3485 81.3013 71.8041 83.479 71.792 83.479C72.0702 83.4306 72.3485 83.3822 72.6147 83.3218C72.6631 83.7573 72.7235 84.1928 72.7719 84.6284C73.0744 84.4106 73.3769 84.2049 73.6914 84.0114C73.7519 83.9751 73.8124 83.9509 73.8729 83.963C73.9213 83.9751 73.9455 84.0356 73.9697 84.084C74.1633 84.4469 74.3568 84.8099 74.5504 85.1849C74.7682 84.9913 74.998 84.7978 75.2158 84.6042C75.2642 84.5558 75.3247 84.5074 75.3973 84.5316C75.4457 84.5437 75.482 84.5921 75.5062 84.6284C75.7965 85.076 76.0506 85.4148 76.2079 85.935C76.4136 85.7656 76.6192 85.6084 76.837 85.4632C76.9701 85.3785 77.1032 85.2817 77.2605 85.2454C77.5871 85.1486 77.8896 85.2575 78.192 85.3664C78.4824 85.4632 78.5792 85.6689 78.7969 85.8745C78.8453 85.9229 78.8937 85.9592 78.9421 85.9955C78.9542 86.0076 79.6075 85.439 79.7164 85.4148C80.4181 85.2333 80.7448 85.7898 81.144 86.2496C80.9747 86.056 81.4344 85.4753 81.6038 85.3785C81.8941 85.197 82.1724 85.1607 82.4628 85.2333L75.3731 78.0468C75.3005 78.0105 75.2158 77.9622 75.1311 77.9259Z" fill="#F7C49D"/>
<path d="M87.7619 73.3285C87.9433 73.3406 88.1248 73.3406 88.3063 73.3527C88.3547 72.784 88.0401 72.288 87.774 71.8041C87.7619 71.7799 87.7498 71.7678 87.7377 71.7436C87.3868 71.0902 87.4836 70.6426 87.5683 69.9167C87.653 69.0819 87.7377 68.1987 87.4473 67.4123C87.3747 67.2188 87.2779 67.0131 87.29 66.8074C87.3021 66.6259 87.3868 66.4566 87.4715 66.2993C87.9796 65.2951 88.1732 64.1337 88.0764 63.0085C88.028 62.4641 87.6772 60.2138 86.915 60.1896C86.6972 60.1896 86.2617 60.3469 86.056 60.3952C85.693 60.492 85.3422 60.6251 85.0034 60.7945C84.338 61.1212 83.721 61.5446 83.2008 62.0769C82.6926 62.5851 82.4144 63.2263 81.8699 63.5287C81.628 63.6618 81.3497 63.7344 80.9747 63.6981C80.3455 63.6376 79.789 63.444 79.1478 63.4682C79.0873 63.4682 79.0147 63.4682 78.9542 63.4803C78.4098 63.5045 77.8654 63.5287 77.3572 63.6618C76.9943 63.7586 76.6192 63.8675 76.2563 63.7828C75.857 63.6981 75.5546 63.4078 75.3247 63.0932C75.0706 62.7544 74.8287 62.5609 74.4657 62.3189C73.147 61.4478 71.5742 61.0849 70.0135 61.2179C70.0135 61.4236 69.8804 65.7669 71.0782 66.8921C71.0902 66.9042 70.316 68.3076 70.2555 68.4286C70.0014 68.9851 69.8078 69.3602 69.8078 69.9893C69.8078 70.4127 69.8199 70.8604 69.6021 71.2233C69.5175 71.3564 69.4086 71.4774 69.2997 71.5863C69.4449 71.6589 70.1708 71.8766 70.2797 71.6831C70.074 72.046 69.9046 72.4574 69.7836 72.8808C69.6989 73.1954 69.6384 73.522 69.6263 73.8366C69.8199 73.8729 70.0256 73.8487 70.195 73.764C70.2434 73.7398 70.2918 73.7156 70.3401 73.7398C70.3643 73.764 70.3764 73.8003 70.3764 73.8366C70.3885 74.1753 70.0377 74.6472 69.8925 74.9496C70.1103 75.0464 70.3522 75.0464 70.57 74.9617C70.6547 74.9254 70.4853 75.7844 70.4369 75.8449C70.2313 76.1716 69.9893 76.4619 69.7231 76.7402C70.1345 76.7644 70.5337 76.7765 70.9451 76.7644C70.7515 77.0427 70.5095 77.2846 70.2434 77.4782C71.1386 77.6718 71.55 76.9943 72.1791 76.5829C72.8566 76.1474 73.7156 77.0064 74.2721 77.3572C75.0464 77.8412 75.7723 78.2767 76.6555 78.5308C77.3572 78.7243 78.0952 78.8211 78.8332 78.809C79.8858 78.7969 80.9263 78.5792 81.8699 78.1194C82.5353 77.7928 83.3822 77.2967 84.1444 77.2846C85.1607 77.2604 85.8503 77.696 86.8424 77.1032C86.8545 77.0911 86.8787 77.079 86.8787 77.0548C86.8787 77.0427 86.8666 77.0185 86.8545 77.0064C86.673 76.837 86.552 76.6192 86.4915 76.3773C86.8303 76.5829 87.2779 76.6434 87.653 76.5103C87.6893 76.4982 87.7377 76.474 87.7498 76.4377C87.7861 76.3531 87.6772 76.2926 87.5925 76.2563C87.1569 76.0385 87.3142 75.4457 87.29 75.0464C87.6409 75.0827 87.9796 75.119 88.3305 75.1674C88.391 74.5383 88.1732 73.8608 87.7619 73.3285Z" fill="#FC9F38"/>
<path d="M87.7619 73.3285C87.9433 73.3406 88.1248 73.3406 88.3063 73.3527C88.391 73.3527 88.0038 72.1792 87.8708 72.0582C87.6651 71.8646 87.411 71.9009 87.1569 71.8041C85.4269 71.1992 83.4185 70.6911 81.6764 71.5985C80.7811 72.0582 79.6075 72.1671 78.6155 72.1066C77.6355 72.0461 76.6797 71.8283 75.7481 71.538C74.6109 71.1871 73.4615 71.0782 72.3122 71.4533C71.5016 71.7195 70.0619 71.9251 69.7836 72.9172C69.6989 73.2318 69.6384 73.5584 69.6263 73.873C69.8199 73.9093 70.0256 73.8851 70.195 73.8004C70.2434 73.7762 70.2918 73.752 70.3401 73.7762C70.3643 73.8004 70.3764 73.8367 70.3764 73.873C70.3885 74.2117 70.0377 74.6836 69.8925 74.986C69.8683 75.0344 70.3039 75.0465 70.3281 75.0465C70.57 75.0465 70.5942 75.1796 70.5579 75.3732C70.5337 75.5184 70.5216 75.7482 70.4369 75.8813C70.2313 76.208 69.9893 76.4983 69.7231 76.7766C70.1345 76.8008 70.5337 76.8129 70.9451 76.8008C70.7515 77.079 70.5095 77.321 70.2434 77.5146C70.3523 77.4299 70.9935 77.4662 71.2112 77.3573C71.5863 77.1879 71.8283 76.8129 72.2033 76.6314C72.8808 76.2927 74.0302 75.5305 74.8166 75.8813C75.5183 76.1838 75.8933 77.1032 76.7039 77.4662C77.3693 77.7687 78.1073 77.9259 78.8453 77.938C79.1841 77.938 79.5228 77.9138 79.8495 77.8412C81.0231 77.5872 81.9546 76.1959 83.225 76.3894C84.7494 76.6072 85.1486 78.1437 86.8545 77.1395C86.8666 77.1274 86.8908 77.1153 86.8908 77.0911C86.8908 77.0791 86.8787 77.0549 86.8666 77.0428C86.6851 76.8734 86.5641 76.6556 86.5036 76.4136C86.8424 76.6193 87.29 76.6798 87.6651 76.5467C87.7014 76.5346 87.7498 76.5104 87.7619 76.4741C87.7982 76.3894 87.6893 76.3289 87.6046 76.2927C87.169 76.0749 87.3263 75.4821 87.3021 75.0828C87.653 75.1191 87.9917 75.1554 88.3426 75.2038C88.391 74.5384 88.1732 73.8609 87.7619 73.3285Z" fill="#EAB081"/>
<path d="M83.9388 65.283L84.0356 65.3072C84.1324 65.4766 84.5437 65.0652 84.5437 65.0652L84.7615 65.6943C84.7494 65.658 85.2696 65.3314 85.2938 65.3072C85.3785 65.5249 85.5842 65.8274 85.7536 65.9847C85.8866 65.8758 86.0076 65.7427 86.1407 65.6217C86.0318 65.7306 86.4069 66.4807 86.5279 66.5775C86.794 66.7953 87.1691 66.8437 87.3626 66.638C87.8708 66.0936 87.9313 64.6539 87.9555 63.9522C87.9918 62.7423 87.7861 61.3752 87.1449 60.3226C84.1566 61.9196 83.8783 65.3193 83.9388 65.283Z" fill="#A47050"/>
<path d="M80.9868 67.2308C81.507 66.759 82.1362 66.4082 82.7411 66.0573C82.1966 66.0452 81.6401 66.1057 81.1199 66.263C81.0594 66.2751 80.9747 66.2993 80.9384 66.2509C80.9142 66.2267 80.9142 66.2025 80.9142 66.1662C80.89 65.9242 81.0352 65.7064 81.1925 65.5371C81.3498 65.3556 81.5433 65.2104 81.6522 64.9926C81.5433 65.2104 80.1157 65.8032 79.8979 65.5492C79.7044 65.3193 79.777 64.7023 79.9826 64.5087C79.7044 64.7628 79.4503 65.041 79.2204 65.3435C79.1962 65.0894 79.1841 64.8233 79.2083 64.5692C79.1236 64.6781 79.039 64.7749 78.9543 64.8838C78.8091 65.0652 78.6518 65.2588 78.5066 65.4403C78.2284 64.9926 77.8775 64.5934 77.4783 64.2546C77.7323 64.4724 77.575 65.4766 77.2968 65.6339C76.9943 65.8032 75.8692 65.3193 75.8813 64.9321C75.8692 65.3798 75.9297 65.8395 76.0748 66.263C75.6514 66.2509 75.2401 66.1541 74.8529 65.9847C75.2763 66.8558 76.2926 67.2671 76.9459 67.993C77.7928 68.9246 78.0711 70.6305 77.3452 71.7073C77.2968 71.7677 77.2484 71.8403 77.2 71.9008C76.8733 72.288 76.4257 72.5783 75.9781 72.8566C76.958 72.8203 77.9259 72.4332 78.8938 72.4211C79.172 72.409 79.4503 72.4332 79.7165 72.5057C80.1036 72.6025 80.4666 72.7961 80.8537 72.8566C80.89 72.8566 80.9384 72.8687 80.9747 72.8445C81.0352 72.7961 80.9868 72.6993 80.9384 72.6388C79.7286 70.9451 79.3293 68.7068 80.9868 67.2308Z" fill="#FFAE73"/>
<path d="M78.9664 74.3568L78.8817 74.4899L78.1316 75.603C78.1316 75.603 78.3252 76.1111 78.8696 76.099C79.0874 76.099 79.3535 76.0143 79.6923 75.7844C79.1962 74.8286 78.9664 74.3568 78.9664 74.3568Z" fill="#B77F59"/>
<path d="M78.8938 72.6509L78.8817 73.7276C78.9179 73.5704 78.93 73.4615 78.93 73.4615C78.93 73.4615 79.9221 73.1832 78.8938 72.6509Z" fill="#FFAE73"/>
<path d="M78.8817 73.5825V72.8203C78.0953 73.268 78.7244 73.522 78.8817 73.5825Z" fill="#FFAE73"/>
<path d="M80.0068 72.3969C79.4745 72.5541 79.1236 72.6993 78.8938 72.8324V72.6509C78.6639 72.5299 78.3251 72.3969 77.8533 72.2517C75.2884 71.4411 72.5421 74.1511 74.4053 75.7844C77.8412 77.4782 78.7002 74.6351 78.8817 73.7277V73.5946C78.9059 73.6067 78.918 73.6067 78.918 73.6067C78.918 73.6067 79.3172 77.9379 83.4065 75.9901C85.2938 74.3568 82.5838 71.6226 80.0068 72.3969Z" fill="#FFAE73"/>
<path d="M79.9705 71.5742C79.8012 71.5016 79.6197 71.4895 79.4382 71.5742C79.2204 71.6831 79.0995 71.8404 78.8333 71.8162C78.5671 71.792 78.3493 71.5742 78.0711 71.5984C77.7807 71.6226 77.4178 71.7557 77.2726 72.0218C77.079 72.3727 77.4178 72.7115 77.6718 72.9171C77.7323 72.9655 77.8049 73.026 77.8654 73.0744C77.9743 72.8445 78.1195 72.6026 78.2284 72.9413C78.2647 73.0623 78.18 73.2075 78.2163 73.3164C78.2889 73.5462 78.555 73.7398 78.676 73.9455C78.7244 74.0302 78.7728 74.1028 78.8696 74.1512C79.0632 74.2359 79.4987 73.6309 79.4382 73.4737C79.414 73.4253 79.4019 73.3648 79.3777 73.3164C79.3293 73.1712 79.3051 73.026 79.3535 72.8808C79.4019 72.7357 79.5471 72.6268 79.6923 72.651C79.8254 72.6752 79.91 72.8082 79.9705 72.9413C79.9826 72.9655 79.9947 72.9776 79.9947 73.0018C80.2004 72.8324 80.3698 72.6631 80.4182 72.409C80.515 72.046 80.273 71.7073 79.9705 71.5742Z" fill="#A47050"/>
<path d="M74.4779 65.2226C74.4779 65.2226 73.0744 62.5246 70.1466 61.3632C70.0498 61.8592 69.578 65.5734 70.9693 66.7833C71.0903 66.5292 70.9088 65.7186 70.9088 65.7186L71.6105 65.8396L71.7436 65.3556L72.4453 65.7307L72.893 65.2226C72.893 65.2226 73.6068 65.4887 73.6673 65.3798C73.7278 65.2589 74.0665 65.0169 74.4779 65.2226Z" fill="#B77F59"/>
<path d="M75.361 74.9013V74.9497C75.361 75.1433 75.6514 75.1433 75.6635 74.9497V74.9013C75.6635 74.7077 75.361 74.7077 75.361 74.9013Z" fill="#B77F59"/>
<path d="M77.1395 74.9497C77.1395 74.7803 76.8612 74.7803 76.837 74.9618C76.8249 75.0585 76.8733 75.1432 76.958 75.1916C77.1274 75.2763 77.2726 75.0464 77.1395 74.9497Z" fill="#B77F59"/>
<path d="M77.0064 73.6189V73.7157C77.0064 73.9093 77.3089 73.9093 77.3089 73.7157V73.6189C77.3089 73.4374 77.0064 73.4374 77.0064 73.6189Z" fill="#B77F59"/>
<path d="M75.5667 73.8125C75.3731 73.8125 75.3731 74.1029 75.5667 74.115C75.7603 74.115 75.7603 73.8125 75.5667 73.8125Z" fill="#B77F59"/>
<path d="M80.7206 74.4778L80.6722 74.4294C80.5391 74.2963 80.3214 74.502 80.4665 74.6351C80.4786 74.6472 80.5028 74.6714 80.5149 74.6835C80.6359 74.8287 80.8537 74.623 80.7206 74.4778Z" fill="#B77F59"/>
<path d="M81.4102 73.2075H81.3619C81.1683 73.2075 81.1683 73.4979 81.3619 73.51H81.4102C81.6038 73.51 81.6038 73.2075 81.4102 73.2075Z" fill="#B77F59"/>
<path d="M81.7974 74.7924V74.8408C81.7974 75.0344 82.0877 75.0344 82.0998 74.8408V74.7924C82.0998 74.5988 81.7974 74.5988 81.7974 74.7924Z" fill="#B77F59"/>
<path d="M83.1887 74.6472C83.1524 74.6109 83.1282 74.5867 83.0919 74.5504C82.9588 74.4173 82.741 74.623 82.8862 74.7561C82.9225 74.7924 82.9467 74.8166 82.983 74.8529C83.104 74.998 83.3218 74.7924 83.1887 74.6472Z" fill="#B77F59"/>
<path d="M82.7047 73.3044C82.6927 73.2923 82.6685 73.2681 82.6564 73.256C82.5233 73.1229 82.3055 73.3286 82.4507 73.4616L82.4991 73.51C82.6201 73.6552 82.8378 73.4495 82.7047 73.3044Z" fill="#B77F59"/>
<path d="M81.5433 75.6877H81.4949C81.3013 75.6877 81.3013 75.9781 81.4949 75.9902H81.5433C81.7369 75.9781 81.7369 75.6877 81.5433 75.6877Z" fill="#B77F59"/>
<path d="M82.487 85.1244C84.2171 84.955 85.9108 84.6163 87.1812 84.0839C87.6167 83.9146 87.9918 83.7089 88.3184 83.4911C88.2216 83.5032 88.1369 83.5153 88.0523 83.5274C87.3263 83.6363 86.5883 83.6968 85.8382 83.6968C77.3693 83.6968 72.784 75.4941 72.7961 67.8963C72.8082 64.4966 73.3406 61.8108 74.8529 59.4516C75.7482 58.0361 77.0064 56.7415 78.7002 55.4712C78.676 55.4712 78.6518 55.4833 78.6276 55.4833C77.0185 55.7253 75.1311 56.185 73.4374 57.2981C73.3164 57.3706 73.2075 57.4432 73.0865 57.5279C73.026 57.5763 72.9534 57.6247 72.8929 57.6731C72.1065 58.278 71.3443 58.9434 70.6063 59.6693C68.1262 62.1132 66.5292 64.8112 65.2225 68.6343L81.7611 85.1728C82.003 85.1728 82.245 85.1486 82.487 85.1244Z" fill="#EFEEED"/>
<path d="M65.2225 68.6464C65.2104 68.6948 65.1862 68.731 65.1741 68.7794C64.0853 75.4699 69.3118 81.7731 69.3118 81.7731C69.3118 81.7731 72.6994 84.2049 76.4983 84.9792C77.8533 85.2575 79.8011 85.3301 81.7611 85.1849L65.2225 68.6464Z" fill="#D6D7D8"/>
</svg>
