<?xml version="1.0" encoding="utf-8"?>
<!-- Generator: Adobe Illustrator 24.3.0, SVG Export Plug-In . SVG Version: 6.00 Build 0)  -->
<svg version="1.1" id="_x2018_лой_x5F_1" xmlns="http://www.w3.org/2000/svg" xmlns:xlink="http://www.w3.org/1999/xlink"
	 x="0px" y="0px" viewBox="0 0 3200 2000" style="enable-background:new 0 0 3200 2000;" xml:space="preserve">
<style type="text/css">
	.st0{fill:#FDFFFF;}
	.st1{fill:#EBF3FA;}
	.st2{fill:#C0D8FB;}
	.st3{fill:#DFEBFD;}
	.st4{fill:#B7D3F3;}
	.st5{fill:#C8DBF4;}
	.st6{fill:#D4E4F8;}
	.st7{fill:#9FC1F4;}
	.st8{fill:#9ABFE2;}
	.st9{fill:#BAD4F4;}
	.st10{opacity:0.5;}
	.st11{fill:#FFFFFF;}
	.st12{fill:#233862;}
	.st13{fill:#AEC3FF;}
	.st14{fill:#E58435;}
	.st15{fill:#F1A34F;}
	.st16{fill:#FFB27D;}
	.st17{fill:#E2915A;}
	.st18{fill:#9DB0F4;}
	.st19{fill:#C65447;}
	.st20{fill:#B0D4FF;}
	.st21{fill:#95C0F4;}
	.st22{fill:#CAE5FF;}
	.st23{fill:#2C3A64;}
	.st24{fill:#EF7E29;}
	.st25{fill:#F99746;}
	.st26{fill:#F9DDBF;}
	.st27{fill:#ED985F;}
	.st28{fill:#EAC3A2;}
	.st29{fill:#223D75;}
	.st30{fill:#2B478B;}
	.st31{fill:#E57970;}
	.st32{fill:#1D3972;}
	.st33{fill:#AF4138;}
	.st34{fill:#ED975D;}
	.st35{fill:#2E3552;}
	.st36{fill:#E8945B;}
	.st37{fill:#163560;}
	.st38{fill:#1C468A;}
	.st39{fill:#D86713;}
	.st40{fill:#D9935C;}
	.st41{fill:#466AA5;}
	.st42{fill:#ED7D2B;}
	.st43{fill:#BC6211;}
	.st44{fill:#FFDABB;}
</style>
<rect class="st0" width="3200" height="2000"/>
<g>
	<path class="st1" d="M2899.76,1611.63l-504.87,2.6l-643.88-1.8l-1439.53-4.02c0,0-206.51-128.62-201.49-352.76
		c3.2-143.21,45.88-445.52,493.17-516.19c419.51-66.28,307.98-487.9,926.53-446.47c244.07,16.35,352.36,178.6,540.99,135.38
		c797.14-182.66,972.14,197.18,1032.13,565.92C3124.96,1130.34,3065.18,1553.66,2899.76,1611.63z"/>
	<g>
		<path class="st2" d="M1285.15,591.32h-150.94c-6.93,0-12.6-5.67-12.6-12.6V433.04c0-6.93,5.67-12.6,12.6-12.6h150.94
			c6.93,0,12.6,5.67,12.6,12.6v145.68C1297.75,585.65,1292.08,591.32,1285.15,591.32z"/>
		<path class="st3" d="M1278.61,583.91h-137.86c-6.33,0-11.51-5.18-11.51-11.51V439.35c0-6.33,5.18-11.51,11.51-11.51h137.86
			c6.33,0,11.51,5.18,11.51,11.51v133.06C1290.12,578.74,1284.94,583.91,1278.61,583.91z"/>
		<g>
			<g>
				<path class="st4" d="M1206.03,443.44c0-2.02,1.63-3.65,3.65-3.65s3.65,1.63,3.65,3.65s-1.63,3.65-3.65,3.65
					S1206.03,445.45,1206.03,443.44z"/>
				<path class="st4" d="M1235.47,448.59c0.98-1.76,3.2-2.4,4.96-1.42c1.76,0.98,2.4,3.2,1.42,4.96c-0.98,1.76-3.2,2.4-4.96,1.42
					C1235.13,452.58,1234.49,450.36,1235.47,448.59z"/>
				<path class="st4" d="M1260.69,468.63c1.69-1.09,3.95-0.61,5.04,1.09c1.09,1.69,0.61,3.95-1.09,5.04
					c-1.69,1.09-3.95,0.61-5.04-1.09C1258.51,471.98,1259,469.73,1260.69,468.63z"/>
				<path class="st4" d="M1273.19,499.65c2.02,0,3.65,1.63,3.65,3.65c0,2.02-1.63,3.65-3.65,3.65s-3.65-1.63-3.65-3.65
					C1269.54,501.28,1271.17,499.65,1273.19,499.65z"/>
				<path class="st4" d="M1266.81,535.64c1.42,1.42,1.42,3.73,0,5.16s-3.73,1.42-5.16,0c-1.43-1.42-1.43-3.73,0-5.16
					C1263.07,534.22,1265.38,534.22,1266.81,535.64z"/>
				<path class="st4" d="M1243.9,558.61c1.42,1.42,1.42,3.74,0,5.16c-1.42,1.42-3.74,1.42-5.16,0c-1.43-1.42-1.43-3.74,0-5.16
					C1240.16,557.19,1242.47,557.19,1243.9,558.61z"/>
				<path class="st4" d="M1206.03,570.45c0-2.02,1.63-3.65,3.65-3.65s3.65,1.63,3.65,3.65c0,2.02-1.63,3.65-3.65,3.65
					S1206.03,572.47,1206.03,570.45z"/>
			</g>
			<g>
				<path class="st4" d="M1183.77,448.59c-0.98-1.76-3.2-2.4-4.96-1.42c-1.76,0.98-2.4,3.2-1.42,4.96c0.98,1.76,3.2,2.4,4.96,1.42
					C1184.12,452.58,1184.75,450.36,1183.77,448.59z"/>
				<path class="st4" d="M1158.55,468.63c-1.69-1.09-3.95-0.61-5.04,1.09c-1.09,1.69-0.61,3.95,1.09,5.04
					c1.69,1.09,3.95,0.61,5.04-1.09C1160.73,471.98,1160.24,469.73,1158.55,468.63z"/>
				<path class="st4" d="M1146.06,499.65c-2.02,0-3.65,1.63-3.65,3.65c0,2.02,1.63,3.65,3.65,3.65s3.65-1.63,3.65-3.65
					C1149.7,501.28,1148.07,499.65,1146.06,499.65z"/>
				<circle class="st4" cx="1155.02" cy="538.22" r="3.65"/>
				<path class="st4" d="M1175.35,558.61c-1.42,1.42-1.42,3.74,0,5.16c1.42,1.42,3.74,1.42,5.16,0c1.42-1.42,1.42-3.74,0-5.16
					S1176.77,557.19,1175.35,558.61z"/>
			</g>
		</g>
		<g>
			<path class="st4" d="M1208.7,503.3c0-2.02,1.63-3.65,3.65-3.65c2.01,0,3.65,1.63,3.65,3.65c0,2.02-1.63,3.65-3.65,3.65
				C1210.33,506.95,1208.7,505.31,1208.7,503.3z"/>
			<g>
				<rect x="1211.85" y="457.72" class="st4" width="1" height="45.58"/>
			</g>
			<g>
				
					<rect x="1208.61" y="492.25" transform="matrix(0.7867 -0.6174 0.6174 0.7867 -43.7111 861.0002)" class="st4" width="30.72" height="2.99"/>
			</g>
		</g>
	</g>
	<g>
		<g>
			<path class="st5" d="M501.07,1151.26c0,0-20.77-24.23-1.28-39.62c0,0,14.23-8.62,25.84-7.92c0,0-16.45,27.58-11.12,30.32
				c5.32,2.74,16.11-32.05,16.11-32.05s32.39-3.14,42.81,1.87c0,0-27.69,22.66-21.86,24.01c5.83,1.35,35.74-20.89,35.74-20.89
				s30.15,5.13,28.54,23.52c-1.61,18.39-12,24.07-16.56,23.58c-4.57-0.49-31.27-10.68-31.85-6.94
				c-0.58,3.74,15.49,15.97,26.75,16.54c0,0-21.25,23.44-35.38,16.67c-14.13-6.76-15.33-17.49-24.14-21.51
				c-8.81-4.02-16.32-4.01-12.69,0.09c3.64,4.1,19.57,8.09,24.61,17c5.04,8.91,9.55,14.92-5.06,12.72
				c-14.62-2.2-38.37-12.89-39.41-25.14C501.07,1151.26,501.07,1151.26,501.07,1151.26z"/>
			<g>
				<path class="st5" d="M601.04,1131c0,0-81.88-3.16-99.96,20.26c0,0-4,11.98-16.31,22.88l-1.92,5.23c0,0,14.19-14.96,19.27-15.87
					C502.11,1163.51,494.17,1134.5,601.04,1131z"/>
				<path class="st5" d="M484.77,1174.14c0,0-17.58,13-18.8,36.22l3.19,0.29c0,0,5.61-24.01,15.76-33.4
					C495.06,1167.86,484.77,1174.14,484.77,1174.14z"/>
			</g>
		</g>
		<g>
			<path class="st5" d="M428.46,1120.79c0,0,33.04-18.5,17.62-43.61c0,0-12.33-15.42-25.55-19.38c0,0,7.05,37.44,0,38.32
				c-7.05,0.88-4.85-42.28-4.85-42.28s-34.8-16.74-48.45-15.42c0,0,21.58,36.56,14.54,35.68c-7.05-0.88-31.27-37.88-31.27-37.88
				s-35.68-6.61-41.4,14.54c-5.73,21.14,3.52,31.71,8.81,33.04c5.29,1.32,39.2,0.88,38.32,5.29c-0.88,4.4-23.79,11.45-36.56,7.49
				c0,0,14.1,34.8,32.59,33.04c18.5-1.76,24.23-13.21,35.68-14.1c11.45-0.88,19.82,2.2,14.1,5.29s-25.11,1.01-34.36,8.87
				s-16.74,12.71,0.44,16.23c17.18,3.52,48.01,1.32,54.18-11.89S428.46,1120.79,428.46,1120.79z"/>
			<g>
				<path class="st5" d="M325.39,1057.36c0,0,92.5,29.95,103.07,63.43c0,0-0.44,14.98,8.81,32.15v6.61c0,0-9.69-22.46-14.98-25.55
					C422.29,1134.01,443,1104.93,325.39,1057.36z"/>
				<path class="st5" d="M437.27,1152.95c0,0,14.26,21.66,6.13,48.03l-3.67-0.99c0,0,3.56-29.04-3.9-43.65
					C428.37,1141.73,437.27,1152.95,437.27,1152.95z"/>
			</g>
		</g>
		<g>
			<path class="st6" d="M481.02,1095.28c0,0-43.55-24.39-23.23-57.48c0,0,16.26-20.32,33.68-25.55c0,0-9.29,49.35,0,50.51
				c9.29,1.16,6.39-55.74,6.39-55.74s45.87-22.06,63.87-20.32c0,0-28.45,48.19-19.16,47.03c9.29-1.16,41.22-49.93,41.22-49.93
				s47.03-8.71,54.58,19.16c7.55,27.87-4.65,41.8-11.61,43.55c-6.97,1.74-51.67,1.16-50.51,6.97c1.16,5.81,31.35,15.1,48.19,9.87
				c0,0-18.58,45.87-42.97,43.55c-24.39-2.32-31.93-17.42-47.03-18.58c-15.1-1.16-26.13,2.9-18.58,6.97
				c7.55,4.06,33.1,1.33,45.29,11.7c12.19,10.37,22.06,16.75-0.58,21.4c-22.64,4.64-63.29,1.74-71.42-15.68
				C481.02,1095.28,481.02,1095.28,481.02,1095.28z"/>
			<g>
				<path class="st6" d="M616.88,1011.67c0,0-121.93,39.48-135.87,83.61c0,0,0.58,19.74-11.61,42.38v8.71
					c0,0,12.77-29.61,19.74-33.68C489.15,1112.7,461.86,1074.38,616.88,1011.67z"/>
				<path class="st6" d="M469.41,1137.66c0,0-18.8,28.55-8.08,63.31l4.84-1.3c0,0-4.7-38.28,5.14-57.54
					C481.14,1122.88,469.41,1137.66,469.41,1137.66z"/>
			</g>
		</g>
		<path class="st6" d="M479.55,1276.35c47.11,0,85.3-38.19,85.3-85.3h-170.6C394.25,1238.16,432.44,1276.35,479.55,1276.35z"/>
		<path class="st6" d="M566.03,1280.69H393.07l0,0c0-5.81,4.71-10.52,10.52-10.52h151.91
			C561.32,1270.17,566.03,1274.88,566.03,1280.69L566.03,1280.69z"/>
		<rect x="391.45" y="1191.05" class="st7" width="175.35" height="2.62"/>
	</g>
	<g>
		<path class="st8" d="M640.75,1285.9v8.19c0,2.87-0.93,5.21-2.06,5.21H339.96c-1.13,0-2.06-2.34-2.06-5.21v-8.19
			c0-2.86,0.93-5.21,2.06-5.21h298.73C639.82,1280.69,640.75,1283.04,640.75,1285.9z"/>
		<path class="st9" d="M640.75,1285.9v8.19c0,2.87-0.85,5.21-1.89,5.21H401.7c-1.04,0-1.89-2.34-1.89-5.21v-8.19
			c0-2.86,0.85-5.21,1.89-5.21h237.16C639.9,1280.69,640.75,1283.04,640.75,1285.9z"/>
		<rect x="353.06" y="1299.29" class="st5" width="212.08" height="309.11"/>
		<rect x="412.49" y="1299.29" class="st3" width="212.08" height="309.11"/>
		<g>
			<g>
				<path class="st4" d="M613.18,1591.34H423.89v-283.32h189.29V1591.34z M425.94,1589.3h185.2v-279.23h-185.2V1589.3z"/>
			</g>
			<g>
				<rect x="424.91" y="1401.75" class="st4" width="187.24" height="2.04"/>
			</g>
			<g>
				<rect x="424.91" y="1497.3" class="st4" width="187.24" height="2.04"/>
			</g>
			<path class="st4" d="M537.72,1326.3h-34.75c-1.69,0-3.07-1.38-3.07-3.07l0,0c0-1.69,1.38-3.07,3.07-3.07h34.75
				c1.69,0,3.07,1.38,3.07,3.07l0,0C540.79,1324.92,539.41,1326.3,537.72,1326.3z"/>
			<path class="st4" d="M537.72,1419.73h-34.75c-1.69,0-3.07-1.38-3.07-3.07l0,0c0-1.69,1.38-3.07,3.07-3.07h34.75
				c1.69,0,3.07,1.38,3.07,3.07l0,0C540.79,1418.35,539.41,1419.73,537.72,1419.73z"/>
			<path class="st4" d="M537.72,1517.14h-34.75c-1.69,0-3.07-1.38-3.07-3.07l0,0c0-1.69,1.38-3.07,3.07-3.07h34.75
				c1.69,0,3.07,1.38,3.07,3.07l0,0C540.79,1515.76,539.41,1517.14,537.72,1517.14z"/>
		</g>
	</g>
	<g class="st10">
		<g>
			<rect x="2277.95" y="539.33" class="st9" width="586.6" height="1072.3"/>
			<rect x="2303.7" y="558.17" class="st3" width="535.81" height="1053.46"/>
			<path class="st5" d="M2748.63,1077.7c0-13.08,10.6-23.69,23.69-23.69c13.08,0,23.69,10.61,23.69,23.69
				c0,13.08-10.6,23.69-23.69,23.69C2759.23,1101.38,2748.63,1090.78,2748.63,1077.7z"/>
			<g>
				<rect x="2461.8" y="717.81" class="st11" width="221.18" height="69.82"/>
				<rect x="2502.85" y="739.46" class="st9" width="139.08" height="7.18"/>
				<rect x="2522.31" y="758.81" class="st9" width="100.15" height="7.18"/>
			</g>
		</g>
		<g>
			<path class="st9" d="M2685.63,790.29h-226.49v-75.13h226.49V790.29z M2464.46,784.98h215.87v-64.51h-215.87V784.98z"/>
		</g>
	</g>
	<g>
		<path class="st12" d="M2596.24,1607.73h-55.56c0.42-2.91,1.83-11.78,4.43-19.94c0.9-2.84,1.95-5.6,3.15-8
			c5.4-10.79,39.72-3.93,39.72-3.93s3.19,2.73,5.68,13.16C2594.77,1593.62,2595.74,1599.72,2596.24,1607.73z"/>
		<path class="st13" d="M2494.25,759.11c0,0-44.27,7.77-54.28,33.9c-10.01,26.13-66.55,448.22-66.55,448.22s28,22.19,88.1,14.22
			C2521.63,1247.49,2494.25,759.11,2494.25,759.11z"/>
		<path class="st12" d="M2428.36,1590.2c-0.15,7.56-1.1,14.71-3.84,17.53h-109.89c1.4-3.98,5.35-9.96,16.63-11.79
			c12.82-2.07,32.8-8.25,44.47-20.58c4.16-4.38,7.25-9.55,8.61-15.59c5.17-23.02,42.75,7.05,42.75,7.05
			S2428.6,1578.94,2428.36,1590.2z"/>
		<path class="st14" d="M2381.03,1579c12.28,3.92,35.75,15.88,50.66,10.25c9.63-3.63,63.5-159.44,66.99-227.58
			c0.26-4.96,1.23-11.87,2.76-20.3c3.19-17.59,8.77-41.75,15.2-68.42c17.24-71.46,40.55-160.85,40.04-189.42
			c-0.78-44.35-132.16-9.29-132.16-9.29s-9.04,36.38-10.84,89.04c-3.57,104.54-13.38,281.13-40.05,403.77
			C2372.5,1572.25,2375.94,1577.39,2381.03,1579z"/>
		<path class="st15" d="M2472.22,1083.68l69.45,503.37c0,0,30.5,7.35,54.22,1.47c0,0,20.33-267.71,18.64-332.44
			c-1.7-64.72,14.59-173.19-3.72-185.15C2592.5,1058.97,2472.22,1083.68,2472.22,1083.68z"/>
		<path class="st11" d="M2619.59,782.17c0,0-72.99-47.19-125.34-23.06c-8.34,3.85-17.86,14.58-24.67,22.09
			c-18.92,20.85-55.9,352.08-55.9,352.08s104.96,35.55,205.91-12.06V782.17z"/>
		<path class="st13" d="M2490.1,757.91c0,0-73.89,30.28-83.9,53.55c-10.01,23.27-42.53,166.15-42.53,182.9
			c0,16.75,56.63,3.75,65.75-23.28c7.57-22.44,33.11-91.38,46.57-134.98L2490.1,757.91z"/>
		<g>
			<path class="st16" d="M2505.45,780.98c16.13,3.16,39.83-0.21,57.17-11.64c-7.83-18.71-11.04-33.48-12.19-43.04
				c-0.07-0.51-0.12-1-0.17-1.48c-0.52-4.95-0.44-8.32-0.2-9.86h-41.7c0,0-11.4,5.21-11.4,8.82c0,1.93-0.02,3.77-0.05,5.53
				c-0.08,4.8-0.28,8.98-0.53,12.58c-0.79,11.7-2.13,17.21-2.13,17.21S2489.16,777.79,2505.45,780.98z"/>
			<path class="st17" d="M2496.39,741.89c31.59,6.11,49.93-11.16,54.05-15.59c0.58-0.63,0.88-1.01,0.88-1.01
				c-0.33-0.17-0.68-0.32-1.05-0.47c-11.76-4.76-38.45-0.98-53.35,4.49C2496.83,734.11,2496.64,738.3,2496.39,741.89z"/>
			<path class="st16" d="M2560.75,708.12c-5.65,30.38-44.85,29.39-61.8,27.48c-4.77-0.53-7.77-1.14-7.77-1.14
				c-5.38-1.44-8.38-9.9-9.77-21c-2.77-21.95,0.73-54.18,4.44-62.42c5.58-12.4,16.09-25.81,55.58-16.14
				C2580.92,644.59,2568,669.18,2560.75,708.12z"/>
			<path class="st12" d="M2484.39,634.09c5.4-7.47,16.84-16.6,27.23-22.22c22.33-12.08,50.9,0.38,51.02,0.43
				c32.25,14.18,40.67,38.85,23.57,77.29c-18.08,40.64-35.3,36.07-35.3,36.07s3.65-2.27,3.32-14.94c-0.02-0.72-0.05-1.32-0.08-1.84
				c-0.17-2.6,0.75-5.2,2.69-6.93c4.01-3.58,5.96-14.39,2.6-17.4c-4.05-3.63-9.73,0.78-11.55,4.17c-1.59,2.4-4.43,3.24-7.08,1.56
				c-10.04-6.35-3.52-19.04-13.11-26.8c-9.59-7.76-29.05-1.25-43.44-7.43C2465.44,649.03,2480.32,639.72,2484.39,634.09z"/>
		</g>
		<path class="st13" d="M2479.89,1272.24c6.36,1.63,12.64,2.98,18.9,4.01c5.53,0.94,11.03,1.64,16.55,2.11
			c31.23,2.72,62.61-1.68,99.28-12.19c8.26-2.37,16.79-5.05,25.65-8.03c0.94-0.32-2.41-97.29-6.28-197.32
			c-0.39-10.33-0.8-20.69-1.2-30.98c-0.18-4.36-0.34-8.7-0.52-13.03c-3.51-88.47-6.99-168.36-7.72-172.66
			c-1.68-9.73-3.25-18.03-4.96-25.22c-5-20.96-11.2-32.45-24.73-42.34c-1.32-1-12.14-6.46-21.68-11.2
			c-7.91-3.93-14.93-7.36-14.93-7.36c-0.01,0-0.01,0-0.01,0c-3.14,1.54-6.92,8.75-10.88,18.87c-7.26,18.65-15.1,47.21-20.56,68.53
			c-0.02,0.06-0.03,0.09-0.03,0.11c0,0.01,0,0.01,0,0.01c-3.51,13.77-6.03,24.5-6.75,27.57c-1.22,5.2-2.83,15.25-4.72,28.89
			c-2.57,18.56-5.64,43.75-8.88,72.33c-0.33,2.94-0.67,5.91-1,8.92c-0.38,3.43-0.78,6.9-1.16,10.4c-0.12,1.13-0.25,2.25-0.37,3.38
			c-1.25,11.32-2.51,23-3.76,34.88c-1.04,9.82-15.93,16.91-16.96,26.9c-0.59,5.86-1.83,59.96-3.42,77.22
			C2478.63,1148.36,2479.44,1266.45,2479.89,1272.24z"/>
		<path class="st18" d="M2587.62,879.81c0.05,0.2,2.53,89.46-64.61,100.3c-67.14,10.84-22.53,13.71-22.53,13.71
			s126.33-5.37,128.41-8.71C2630.97,981.78,2587.62,879.81,2587.62,879.81z"/>
		<path class="st18" d="M2530.89,1018.43c0,0,1.26,0.89,3.68,2.45c0.04,0.02,0.08,0.05,0.12,0.08
			c10.24,6.54,40.64,24.36,84.91,36.31c4.65,1.26,9.45,2.45,14.4,3.55c-0.39-10.33-0.8-20.69-1.2-30.98
			c5.85-0.46,11.44-1.2,16.64-2.3c-0.17-1.36-0.36-2.72-0.53-4.08c-5.63-2.31-11.23-4.54-16.62-6.65c-4.4-1.72-8.65-3.35-12.68-4.87
			c-18.18-6.91-31.66-11.59-31.66-11.59l-53.82,17.05L2530.89,1018.43z"/>
		<path class="st13" d="M2516.64,1016.94c0,0,6.91,1.73,17.92,3.94c0.04,0,0.08,0.01,0.12,0.03c20.3,4.08,54.43,9.8,84.91,9.49
			c4.5-0.05,8.92-0.22,13.2-0.56c5.85-0.46,11.44-1.2,16.64-2.3c11.14-2.35,20.48-6.33,26.58-12.55
			c45.35-46.19-24.75-211.96-39.48-228.09c-17.21-18.83-48.61-25.44-65.95-27.71c-0.73-0.09-1.42-0.18-2.09-0.27
			c-6.1-0.73-10.01-0.88-10.22-0.88c-0.01,0-0.01,0-0.01,0s1.36,4.37,3.64,11.79c0.88,2.87,1.91,6.2,3.04,9.91
			c10.65,34.88,31.2,103.43,40.26,142.09c3.32,14.15,5.1,24.29,4.29,27.31c-3.54,13.2-40.18,19.99-63.39,22.99
			c-9.68,1.25-17.03,1.84-18.67,1.97c-0.12,0-0.23,0.01-0.34,0.02l-1.34,5.5l-3.21,13.2l-3.16,12.97L2516.64,1016.94z"/>
		<polygon class="st12" points="2390.17,1096.4 2545.91,1089.84 2514.31,895.75 2358.57,902.31 		"/>
		<path class="st16" d="M2527.07,974.12c0,0-30.32-2.11-31.84,4.95c-3.54,16.47,26.06,30,35.66,29.07S2534.04,973.02,2527.07,974.12
			z"/>
		<path class="st16" d="M2367.08,941.72c0,0,29-9.07,32.12-2.55c7.26,15.21-18.42,35.21-27.96,36.53
			C2361.69,977.03,2360.04,942.27,2367.08,941.72z"/>
		<path class="st18" d="M2555.11,748.29c0,0,12.75,6.08,19.15,15.25c0,0-47.67,82.77-47.46,82
			C2527.01,844.76,2542.91,758.89,2555.11,748.29z"/>
		<path class="st18" d="M2495.73,749.45c-4.2,1.59-12.25,9.83-14.07,14.4l-5.67,72.26c0,0,12.1-53.03,18.26-77
			C2495.82,753.01,2495.53,751.16,2495.73,749.45z"/>
		<path class="st19" d="M2462.68,897.92c0,0-1.23-5.39-8.32-4.76c-7.09,0.63-46.92,2.58-46.92,2.58s-7.68-0.13-6.97,4.8
			L2462.68,897.92z"/>
		<path class="st11" d="M2508.37,714.97c0,0-5.17,4.71-13.51,3.25c-4.95-0.87-7.71-7.3-7.71-7.3S2496.65,709.21,2508.37,714.97z"/>
	</g>
	<g>
		<g>
			<path class="st20" d="M845.98,1612.38h-0.39c-2.29,0-4.14-1.89-4.08-4.18l6.19-268.41l18.24-2.13l-15.56,270.55
				C850.25,1610.56,848.32,1612.38,845.98,1612.38z"/>
		</g>
		<g>
			<path class="st21" d="M739.68,1612.38h-0.39c-2.29,0-4.14-1.89-4.08-4.18l6.19-268.41l18.24-2.13l-15.56,270.55
				C743.95,1610.56,742.01,1612.38,739.68,1612.38z"/>
		</g>
		<g>
			<path class="st20" d="M1033,1612.38h0.39c2.29,0,4.14-1.89,4.08-4.18l-6.19-268.41l-18.24-2.13l15.56,270.55
				C1028.73,1610.56,1030.67,1612.38,1033,1612.38z"/>
		</g>
		<path class="st20" d="M727.59,1323.15v-183.92c0-32.36,26.24-58.6,58.6-58.6H918.7c32.36,0,58.6,26.24,58.6,58.6v190.95
			L727.59,1323.15z"/>
		<path class="st21" d="M1001.04,1352.19H745.18c-9.72,0-17.6-7.88-17.6-17.59v-11.44h273.45V1352.19z"/>
		<path class="st22" d="M1031.7,1352.19H838.14c-7.19,0-13.01-5.82-13.01-13.01v-3.02c0-7.19,5.82-13.01,13.01-13.01h193.57
			c7.19,0,13.01,5.82,13.01,13.01v3.02C1044.71,1346.36,1038.89,1352.19,1031.7,1352.19z"/>
	</g>
	<g>
		<g>
			<path class="st20" d="M1358.13,1612.38h-0.39c-2.29,0-4.14-1.89-4.08-4.18l6.19-268.41l18.24-2.13l-15.56,270.55
				C1362.4,1610.56,1360.47,1612.38,1358.13,1612.38z"/>
		</g>
		<g>
			<path class="st21" d="M1251.83,1612.38h-0.39c-2.29,0-4.14-1.89-4.08-4.18l6.19-268.41l18.24-2.13l-15.56,270.55
				C1256.1,1610.56,1254.17,1612.38,1251.83,1612.38z"/>
		</g>
		<g>
			<path class="st20" d="M1545.16,1612.38h0.39c2.29,0,4.14-1.89,4.08-4.18l-6.19-268.41l-18.24-2.13l15.56,270.55
				C1540.89,1610.56,1542.82,1612.38,1545.16,1612.38z"/>
		</g>
		<path class="st20" d="M1239.74,1323.15v-183.92c0-32.36,26.24-58.6,58.6-58.6h132.51c32.36,0,58.6,26.24,58.6,58.6v190.95
			L1239.74,1323.15z"/>
		<path class="st21" d="M1513.19,1352.19h-255.86c-9.72,0-17.59-7.88-17.59-17.59v-11.44h273.45V1352.19z"/>
		<path class="st22" d="M1543.85,1352.19h-193.57c-7.19,0-13.01-5.82-13.01-13.01v-3.02c0-7.19,5.83-13.01,13.01-13.01h193.57
			c7.19,0,13.01,5.82,13.01,13.01v3.02C1556.86,1346.36,1551.04,1352.19,1543.85,1352.19z"/>
	</g>
	<g>
		<g>
			<path class="st20" d="M1835.76,1612.38h-0.39c-2.29,0-4.14-1.89-4.08-4.18l6.19-268.41l18.24-2.13l-15.56,270.55
				C1840.04,1610.56,1838.1,1612.38,1835.76,1612.38z"/>
		</g>
		<g>
			<path class="st21" d="M1729.46,1612.38h-0.39c-2.29,0-4.14-1.89-4.08-4.18l6.19-268.41l18.24-2.13l-15.56,270.55
				C1733.74,1610.56,1731.8,1612.38,1729.46,1612.38z"/>
		</g>
		<g>
			<path class="st20" d="M2022.79,1612.38h0.39c2.29,0,4.14-1.89,4.08-4.18l-6.19-268.41l-18.24-2.13l15.56,270.55
				C2018.52,1610.56,2020.45,1612.38,2022.79,1612.38z"/>
		</g>
		<path class="st20" d="M1717.38,1323.15v-183.92c0-32.36,26.24-58.6,58.6-58.6h132.51c32.36,0,58.6,26.24,58.6,58.6v190.95
			L1717.38,1323.15z"/>
		<path class="st21" d="M1990.83,1352.19h-255.86c-9.72,0-17.59-7.88-17.59-17.59v-11.44h273.45V1352.19z"/>
		<path class="st22" d="M2021.49,1352.19h-193.57c-7.19,0-13.01-5.82-13.01-13.01v-3.02c0-7.19,5.82-13.01,13.01-13.01h193.57
			c7.19,0,13.01,5.82,13.01,13.01v3.02C2034.5,1346.36,2028.67,1352.19,2021.49,1352.19z"/>
	</g>
	<g>
		<path class="st23" d="M1296.07,786.85c-0.86-2.08-10.91-24.24-45.01-12.15c0,0,17.31-4.5,22.96,1.88c0,0-14.71-4.82-22.79,1.78
			c-8.07,6.6-7.31,25.3-5.34,30.78s13.6,21.04,19.98,20.23c2.42-0.3,4.9-1.46,7.06-2.77c-0.62,3.11-1.12,6.46-1.43,10.1
			c-2.88,33.72,21.29,56.03,31.52,48.47c6.56-4.84,13.39,7.17,13.39,7.17l48.9-87.07C1365.31,805.26,1318.67,760.03,1296.07,786.85z
			"/>
		<path class="st16" d="M1387.8,991.93c-46.32,21.33-81.13-53.97-78.11-54.74c4.63-5.4,9.41-24.63,6.01-52.32l2.4,0.17l40.28,3.07
			c0,0,0.63,12.88,2.02,24.89c0.92,7.9,2.18,15.42,3.81,18.71c0.48,0.97,9.21,2.27,9.23,2.29
			C1374.12,934.77,1400.16,986.25,1387.8,991.93z"/>
		<path class="st12" d="M1683.46,1608.53h-81.17c0,0-1.95-12.75,2.29-22.42c4.06-9.28,6.66-11.83,2.24-22.56
			c5.16,5.47,20.22,9.43,31.96,7.8c1.44,2.4,9.28,15.26,14.08,18.81C1658.17,1594.09,1681.82,1592.7,1683.46,1608.53z"/>
		<path class="st12" d="M1540.54,1607.81h-81.17c0,0-1.95-12.75,2.29-22.42c4.06-9.28,11.98-15.49,14.3-26.19
			c5.16,5.47,8.16,13.07,19.9,11.44c1.44,2.4,9.28,15.26,14.08,18.82C1515.25,1593.37,1538.9,1591.97,1540.54,1607.81z"/>
		<path class="st24" d="M1260,1214.95c0,0-18.21,58.5,22.43,86.25c54.45,37.18,205.43,5.49,222.66,24.48
			c4.36,4.81-8.83,7.24-16.28,75.99c-10.71,98.88-19.38,154.18-19.38,154.18s1.86,11.31,13.3,17.14c7.5,3.83,17.01,1.46,17.01,1.46
			s110.89-250.93,99.84-285.74c-19.13-60.29-125.04-54.38-247.79-90C1276.82,1176.97,1260,1214.95,1260,1214.95z"/>
		<path class="st25" d="M1317.46,1213.68c53.91-5.14,201.01-7.75,232.82,14.77c39.15,27.73,92.37,344.77,92.37,344.77
			s-4.09,3.35-12.99,4.25c-8.28,0.84-26.26-4.63-26.26-4.63s-87.47-142.79-92.73-178.52c-5.26-35.73-2.55-67.5-17.35-68.57
			c-14.8-1.07-218.09,23.08-235.45-34.27c-13.56-44.79,2.69-88.13,2.69-88.13S1267.73,1218.42,1317.46,1213.68z"/>
		<path class="st26" d="M1429.55,1030.16c3.34,12.59,6.08,23.87,7.42,31.47c6.21,35.03,11.65,141.93,11.65,141.93
			c-55.06,87.6-208.33,61.25-208.33,61.25c-3.38-33.21,9.56-107.07,17.42-172.78c1.93-16.11,3.55-31.71,4.55-46.12
			c0.88-12.56,2.31-23.71,4.15-33.63c13.07-70.24,46.67-77.95,46.67-77.95c15.71,31.45,65.3,39.92,65.3,39.92
			c0.61-17.7-4.94-40.25-4.94-40.25c6.28,0.77,27.45,3.44,33.17,6.3c16.98,8.47,57.23,79.45,57.23,79.45
			S1474.27,1015.01,1429.55,1030.16z"/>
		<path class="st27" d="M1358.39,888.12c0,0,0.62,12.87,2.02,24.89c-22.08,2.13-36.17-17.09-42.3-27.96L1358.39,888.12z"/>
		<path class="st16" d="M1367.09,898.58c0,0-51.96,7.44-55.97-25.98c-4-33.42-13.4-54.97,19.61-61.14
			c33.01-6.17,40.99,5.77,44.96,16.59C1379.66,838.87,1380.5,895.78,1367.09,898.58z"/>
		<path class="st23" d="M1371.94,809.66c-9.24-9.04-15.06-6.07-18.11-2.62c-30.37-12.54-45.88,13.61-45.88,13.61
			c-0.64,24.42-15.79,40.28-15.79,40.28s10.21,4.85,31.4-3.71c6.47-2.61,11.86-8.26,16.23-14.84
			c-7.04,16.41-17.79,28.95-17.79,28.95c24.66-15.74,30.71-54.53,31.29-58.62c3.53,2.54,10.55,8.14,13.2,14.17
			c3.6,8.19,6.85,25.56,11.74,24.34C1378.22,851.22,1385.8,823.21,1371.94,809.66z"/>
		<path class="st28" d="M1367.32,1216.6c-0.89-0.51-69.03-5.25-91.26-118.27c1.93-16.11,2.38-9.5,4.22-19.42
			c9.51-1.52,7.05-57.6,12.16-41.95C1302.96,1069.17,1367.04,1215.26,1367.32,1216.6z"/>
		<path class="st28" d="M1315.02,923.29c0,0-8.96,5.74-8.97,14.26c0,0,10.58,29.79,72.34,36.7
			C1378.39,974.25,1321.54,945.44,1315.02,923.29z"/>
		<path class="st28" d="M1363.25,930.38c0,0,15.58,29.5,15.14,43.88c0,0,1.06-32.66-1.15-40.25s-15.35-10.72-15.35-10.72
			L1363.25,930.38z"/>
		<path class="st11" d="M1351.8,880.77c0.53,0,5.47,4.55,12,3.27c6.53-1.27,6.47-6.55,6.47-6.55s-4.46-0.73-8.37,0
			C1357.97,878.23,1351.8,880.77,1351.8,880.77z"/>
		<g>
			<path class="st29" d="M1486.92,1048.95c0,0,6.33-18.24-1.56-31.38c-2.89-4.81-6.76-9.71-10.51-14.01
				c-3.99-4.58-5.45-3.06-6.72,2.9c-0.98,4.63-4.07,10.05-4.29,13.3c-0.68,10.06-2.15,17.02,6.23,24.44
				C1478.46,1051.61,1486.92,1048.95,1486.92,1048.95z"/>
			<path class="st30" d="M1520.66,1159.04c0,0,41.32-6.42-10.38-33.18c-12.64-6.54-53.65-44.75-32.96-56.3
				c10.53-5.89,14.45-14.48,15.76-21.5c0.18-0.98,0.32-1.93,0.41-2.84c0-0.01,0-0.01,0-0.01c0.55-5.35-0.3-9.23-0.3-9.23
				s-0.52-8.42-13.67-15.07c-3.62-1.82-8.18-3.51-13.95-4.86c-0.01,0-0.02-0.01-0.04-0.01c-1.25-0.3-2.55-0.57-3.92-0.83
				c-13.42-2.53-16.58,3.1-22.42,1.17c-5.33-1.77-12.06-4.24-13.19-4.66c-0.1-0.04-0.16-0.06-0.16-0.06s-7.13-4.33-8.72,2.79
				c-0.17,0.76-0.33,1.49-0.48,2.17c-1.08,4.98-1.5,8.01-0.16,10.45c1.02,1.85,6.14,5.09,10.1,6.79c3.08,1.32,10.46,4.03,10.83,4.27
				c1.02,0.68-5.21,1.76-21.06-3.45c-0.29-0.09-0.58-0.18-0.87-0.27c-0.76-0.25-1.59,0.13-1.91,0.87c-0.57,1.34-1.02,3.62,0.67,6.17
				c2.7,4.08,16.94,8.43,13.66,11.72c-0.69,0.7-1.75,1.2-3.03,1.62c-0.01,0-0.01,0-0.01,0c-4.75,1.54-12.55,1.9-16.37,6.88
				c0,0,5.78-0.52,9.29,1.22c0,0-13.26,0.14-15.55,6.11c0,0,1.99-0.83,4.77,0.19c0,0-12.75,6.29-16.27,20.46
				c-0.31,1.23-0.55,2.52-0.7,3.88c-1.68,14.87-1.09,6.4,17.88,32.04c10.6,14.32,58.43,48.49,82.55,49.67
				C1520.4,1176.69,1520.66,1159.04,1520.66,1159.04z"/>
			<path class="st30" d="M1548.93,1210.63c-6.84-7.97-1.42-57-19.05-71.6c-17.63-14.59-75.52,9.53-75.52,9.53
				s5.61,34.41,46.56,50.75c20.39,8.14,27.86,20.16,31.63,30.11c-1.46,3.51-2.59,8.07-0.99,11.88c3.07,7.35,10.52,5.85,10.52,5.85
				C1553.44,1246.66,1555.77,1218.6,1548.93,1210.63z"/>
			<path class="st31" d="M1425.82,1035.03c0,0-9.86-2.27-10.45,0.33s26.73,7.08,27,5.39
				C1442.63,1039.06,1429.33,1035.82,1425.82,1035.03z"/>
			<path class="st30" d="M1483.36,1041.71c0,0,12.35-2.77,13.15-17.35c0.31-5.6-3.34-11.35-5.53-16.61
				c-2.34-5.61-4.21-4.62-7.29,0.62c-2.4,4.08-7.05,8.25-8.28,11.26C1471.58,1028.96,1483.36,1041.71,1483.36,1041.71z"/>
			<path class="st30" d="M1428.17,1078.61c0,0-42.08,4.6-54.33-4.3c0,0-1.26-8.93-3.56-11.66c-2.3-2.73-10-3.52-13.33-0.86
				c-3.33,2.66,8.65,19.61,10.85,21.08c2.21,1.47,42.11,45.8,58.57,49.37c6.84,1.48-4.94-20.83,1-27.35
				C1433.31,1098.36,1428.17,1078.61,1428.17,1078.61z"/>
			<path class="st30" d="M1450.55,1056.98c0,0-42.27,2.32-54.02-7.22c0,0-0.78-8.99-2.93-11.83c-2.15-2.85-9.79-4.05-13.26-1.58
				c-3.47,2.48,7.58,20.05,9.7,21.63c2.12,1.58,39.58,48,55.82,52.45c6.75,1.85-3.8-21.06,2.47-27.26
				C1454.62,1076.97,1450.55,1056.98,1450.55,1056.98z"/>
			<path class="st32" d="M1426,1011.73c-1.63,2.1-5.15,5.78-9.35,4.91c0.15-0.69,0.31-1.41,0.48-2.17c1.59-7.11,8.72-2.79,8.72-2.79
				S1425.9,1011.7,1426,1011.73z"/>
			<path class="st30" d="M1524.98,1141c0,0,9.55-3.2,15.81-8.02c7.66-5.91,6.88-19.44-15.36-22.17c0,0,6.38-7.46,18.4-3.29
				c0,0-0.12-2.63-1.8-4.77c0,0,15.6,2.3,17.87,15.17c0,0,4.09-6.33,3.47-10.01c0,0,14.28,9.61,6.68,24.58c0,0,3.8-0.96,6.06-5
				c0,0-5.39,28.18-43.44,24.42L1524.98,1141z"/>
			<path class="st29" d="M1477.19,1021.65c0,0,0.74-1.81,3.46-4.67c2.72-2.86,4.47-8.58,5.15-8.23c0.68,0.35,2.73,16.36-3.01,18.98
				C1482.79,1027.73,1478.53,1027.75,1477.19,1021.65z"/>
			<path class="st30" d="M1521.37,1236.5c-1.82-10.35,27.82-49.77,20.09-71.31c-7.74-21.54-69.84-30.28-69.84-30.28
				s-12.7,32.47,14.2,67.39c13.4,17.39,13.7,31.54,11.87,42.02c-3.04,2.28-6.34,5.62-6.91,9.72c-1.1,7.89,6.08,10.39,6.08,10.39
				C1506.89,1269.8,1523.19,1246.85,1521.37,1236.5z"/>
		</g>
		<path class="st16" d="M1280.28,1028.25c1.13,7.89,23.16,181.79,62.23,195.57s129.88-64.72,129.88-64.72l-13.91-16.6
			c0,0-82.9,25.32-84.4,21.38c-1.5-3.94-31.86-108.05-31.86-108.05L1280.28,1028.25z"/>
		<path class="st26" d="M1304.95,960.8c0,0-24.56,12.29-33.13,29.12c-8.57,16.83-9.62,70.55,3.65,140.39
			c0,0,50.69-21.08,76.85-56.83C1352.31,1073.49,1331.92,950.7,1304.95,960.8z"/>
		<path class="st16" d="M1458.48,1142.5c0,0,3.24-5.81,4.81-12.19c1.57-6.38,6.45-13.86,6.82-19.78c0.38-5.92,3.94-1.98,5.25,1.77
			c1.31,3.75-1.5,15.38,1.13,13.69c2.63-1.69,11.95-15.81,9.82-20.47c-2.13-4.66,15.47,4.06,15.58,14.61
			c0.11,10.55-7.58,22.74-11.52,25.93c-3.94,3.19-17.98,13.04-17.98,13.04L1458.48,1142.5z"/>
	</g>
	<g>
		<path class="st16" d="M2166.31,1505.36c1.85,9.24,15.03,7.7,29.75,4.1s11.22,0.68,32.18-1.64c20.95-2.32,27.3-10.13,27.94-13.25
			c0.57-2.76-9.78-3.74-20.89-5.02c-1.4-0.16-2.8-0.33-4.2-0.5c-12.54-1.57-21.72-9.66-33.11-16.31
			c-10.79-6.29-26.89-31.94-26.89-31.94l-28.74,2.28c0,0,15.08,22.9,20.91,32.86c3.43,5.86,3.25,13.6,2.82,19.58
			C2165.87,1498.78,2165.65,1502.1,2166.31,1505.36z"/>
		<path class="st12" d="M2196.06,1509.46c14.72-3.6,11.22,0.68,32.18-1.64c20.95-2.32,27.3-10.13,27.94-13.25
			c0.57-2.76-9.78-3.74-20.89-5.02l-0.1,0.21c0,0-12.57,8.91-30.01,9.33c-14.21,0.34-29.27-3.73-39.09-3.57
			c-0.22,3.25-0.43,6.57,0.22,9.83C2168.16,1514.6,2181.33,1513.06,2196.06,1509.46z"/>
		<path class="st16" d="M1919.37,1546.71c-5.71,7.5,4.16,16.36,16.6,25.03c12.44,8.66,6.92,8.87,22.52,23.04
			c15.6,14.18,25.66,13.77,28.42,12.19c2.45-1.4-3.67-9.81-10.05-18.98c-0.81-1.15-1.6-2.32-2.4-3.48
			c-7.12-10.44-7.12-22.68-9.67-35.62c-2.42-12.25,17.59-57.29,17.59-57.29l-32.15-4.05c0,0-4.2,27.2-7.81,38.16
			c-2.12,6.45-11.05,10.7-15.82,14.33C1924.01,1542.03,1921.37,1544.07,1919.37,1546.71z"/>
		<path class="st12" d="M1935.97,1571.74c12.44,8.66,6.92,8.87,22.52,23.04c15.6,14.18,25.66,13.77,28.42,12.19
			c2.45-1.4-3.67-9.81-10.05-18.98l-0.23,0.06c0,0-14.99-3.53-26.84-16.33c-9.66-10.43-16.57-24.42-23.18-31.67
			c-2.58,1.98-5.22,4.02-7.23,6.67C1913.66,1554.21,1923.53,1563.08,1935.97,1571.74z"/>
		<path class="st16" d="M2033.81,1179.49c0,0,29.95,8.09,33.03,12.74c3.08,4.65,9.11,18.86,8.85,22.57
			c-0.26,3.71-8.43-7.34-11.5-10.16c-1.98-1.83-9.17-2.9-12.7-3.48c-8.9-1.45-13.19-5.52-16.53-7.55c-2.24-1.36-4.95-1.11-4.95-1.11
			L2033.81,1179.49z"/>
		<path class="st16" d="M2064.22,1200.37c0,0,1.82,10.19,3.21,12.03s2.69,2.24,2.69,2.24l-0.21-8.8L2064.22,1200.37z"/>
		<path class="st16" d="M2066.84,1192.22l12.18,16.5c0,0-1.29,0.77-3.25-0.37c-1.96-1.15-6.07-5.66-6.07-5.66L2066.84,1192.22z"/>
		<path class="st16" d="M2034.96,1193.61c0,0,2.78,6.74,8.32,9.16c5.54,2.42,9.61,6.04,10.5,4.74c0.89-1.31-4.2-8.17-4.2-8.17
			L2034.96,1193.61z"/>
		<path class="st33" d="M2050.65,1316.49l-29.36,79l-38.33,103.15c0,0-10.4,1-20.36-1.86c-9.17-2.65-19.69-9.59-19.69-9.59
			s10.64-110.76,30.5-174.34c5.09-16.32,10.79-29.52,17.08-36.95C2021.26,1239.54,2050.65,1316.49,2050.65,1316.49z"/>
		<path class="st19" d="M2020.8,1191.03c-19.23-6.2-77.19-2.5-132.3,8.28l-8.44-14.76l-119.03-9.3c0,0-39.28,87.1-17.77,142.6
			c3.16,8.16,9.44,13.39,20.15,13.56c0,0,1.73,0,1.74,0c0,0,70.84-0.04,93.85-0.04c59.2,0,125.28-40.69,133.83-42.4
			c13.99-2.8,19.59,25.19,33.58,54.57c13.99,29.38,131.53,130.13,131.53,130.13s18.06,0.18,25.53-2.62
			c8.03-3.01,10.96-6.92,10.96-6.92S2064.17,1205.02,2020.8,1191.03z"/>
		<path class="st12" d="M1875.37,837.95c-15.25-8.01-38.45-9.09-42.22-9.6c-45.1-6.06-72.25,59.48-73.85,79.34
			c-2.94,36.61-22.31,42.19-49.56,65.11c-54.65,45.97-38.62,99.38-8.74,119.23c17.93,11.91,49.54,0,49.54,0
			c0.45,0.31,86.43-48.07,128.82-71.41C1942.9,1011.59,1914.23,858.35,1875.37,837.95z"/>
		<path class="st16" d="M1843.83,1000.76c0.19,0.12-20.85,7.3-34.92,1.07c-13.24-5.85-23.26-27.63-23.07-27.64
			c6.02-0.28,12.63-5.54,17.72-40.08l2.56,0.92l43.11,15.51c0,0-3.12,13.83-5.14,27C1842.39,988.6,1841.48,999.19,1843.83,1000.76z"
			/>
		<path class="st34" d="M1849.23,950.54c0,0-3.12,13.83-5.14,27c-24.76-4.46-34.48-29.13-37.96-42.51L1849.23,950.54z"/>
		<path class="st16" d="M1855.65,964.27c0,0-58.98-7.92-53.49-44.57c5.5-36.65,1.58-62.36,39.47-58.86
			c37.89,3.5,43.09,18.59,44.24,31.27C1887.02,904.79,1871.14,965.38,1855.65,964.27z"/>
		<path class="st12" d="M1883.73,872.02c0,0-37.76,32.54-63.44,35.16c-25.68,2.62-35.4-5.62-35.4-5.62s15.14-12.57,24.25-32.85
			c2.68-5.98,8.36-10.08,14.89-10.65C1842.36,856.48,1877.12,855.75,1883.73,872.02z"/>
		<path class="st12" d="M1860.13,869.1c0,0,12.63,12.21,16.61,21.27c3.84,8.74,4.99,29.65,1.93,37.95c0,0,19.68-38.27,8.54-56.86
			C1875.39,851.75,1860.13,869.1,1860.13,869.1z"/>
		<path class="st11" d="M1893.5,1087.64c-1.78,119.39-0.49,94.44-13.55,105.77c-3.15,2.73-11.99,4.35-23.64,5.12
			c-36.61,2.43-100.96-3.6-103.41-10.37c-8.44-23.41-2.48-30.68-9.53-66.52c-0.73-3.81-1.64-7.94-2.71-12.43
			c-5.87-24.62-11.59-32.99,9.25-72.54c18.9-35.82,38.53-64.9,40.3-63.85c49.86,29.6,53.88,4.72,53.88,4.72
			S1894.37,1029.41,1893.5,1087.64z"/>
		<path class="st19" d="M2021.29,1395.5l-39.2,107.45c0,0-14.08,4.59-24.34,3.09c-10.45-1.52-16.18-7.22-16.18-7.22
			s11.98-122.38,31.83-185.96L2021.29,1395.5z"/>
		<path class="st11" d="M1844.09,977.54c0,0,51.31,8.7,57.33,30.79c6.02,22.09,50.08,143.82,50.08,143.82s-34.69,12.82-46.74,0.77
			c-12.05-12.05-41.93-111.79-41.93-111.79L1844.09,977.54z"/>
		<path class="st3" d="M1856.31,1198.54c-36.61,2.43-100.96-3.6-103.41-10.37c-8.44-23.41-2.48-30.68-9.53-66.52l17.17-39.1
			c0,0-2.43,44.74,13.9,59.31c16.31,14.56,66.86,28.11,74.79,40.28C1853.06,1187.98,1855.58,1193.83,1856.31,1198.54z"/>
		<path class="st11" d="M1941.15,1123.37l97.22,57.1c0,0-2.82,11.83-5.69,12.88c-15.2,5.57-104.51-5.28-127.91-40.43
			L1941.15,1123.37z"/>
		<g>
			<path class="st30" d="M1775.97,1213.31l181.13-19.87c1.04-1.99,1.92-3.92,2.63-5.81c0,0,0-0.01,0.01-0.01
				c0.54-1.41,1-2.8,1.37-4.16c5.37-19.61-6.62-32.92-22.22-37.08c-18.13-4.82-31.07,9.19-31.07,9.19s-35.27-26.6-94.79-18.06
				c-34.66,4.98-50,30.79-56.76,51.49C1752.06,1201.87,1762.52,1214.78,1775.97,1213.31z"/>
			<path class="st30" d="M1932.72,1145.42c0,0,7.87-11.99,19.77-12.16c0,0,5,9.38-3.46,22.8
				C1940.57,1169.47,1932.72,1145.42,1932.72,1145.42z"/>
			<path class="st30" d="M1950.28,1166.13c0,0,11.43-8.66,22.7-4.84c0,0,1.57,10.52-10.9,20.33S1950.28,1166.13,1950.28,1166.13z"/>
			<path class="st35" d="M1780.25,1195.54c0,0,18.21,5.75,38.29-1.33c21.23-7.48,76.14-17.19,86.23,4.97l-124.31,13.98
				L1780.25,1195.54z"/>
			<path class="st30" d="M1944.28,1187.8l22.96-0.25c0,0,8.67-3.78,11.25-3.5c2.58,0.28,5.15,6.47,5.15,6.47l-35.8,3.93
				L1944.28,1187.8z"/>
			<path class="st30" d="M1774.37,1192.62c0,0,16.52,10.87,37.98,4.68s66.59-10.04,73.46-5.59c0,0,6.39,2.65,2.68,7.6
				c-3.71,4.95-37.28,5.74-51.25,7.62c-10.21,1.37-62.11,9.67-70.25,5.17S1774.37,1192.62,1774.37,1192.62z"/>
			<path class="st35" d="M1941.66,1174.27c0,0-5.46-5.24-6.2-3.88c-0.75,1.36-0.69,4.97,0.62,5.68
				C1937.39,1176.77,1943.11,1177.18,1941.66,1174.27z"/>
			<path class="st35" d="M1936.39,1186.17c0.89,0.8,23.35,1.47,23.35,1.47s0-0.01,0.01-0.01c0.54-1.41,1-2.8,1.37-4.16
				C1956.97,1188.05,1935.5,1185.35,1936.39,1186.17z"/>
			<path class="st35" d="M1946.73,1150.63c0,0,5.28-2.28,3.58-12.6c0,0-9.23,2.43-11.84,5.84c-2.61,3.41,0.24,2.26,3.21,3.49
				C1944.66,1148.59,1945.67,1152.59,1946.73,1150.63z"/>
			<path class="st35" d="M1962.22,1174.48c0,0,5.75-0.21,7.92-10.43c0,0-9.48-1.09-13.15,1.14c-3.67,2.22-0.6,2.19,1.73,4.42
				C1961.04,1171.83,1960.52,1175.92,1962.22,1174.48z"/>
			<path class="st11" d="M1933.64,1185.27c0,0-8.57-0.48-11.76-3.68c0,0,3.47,0.61,4.97,0.02c0,0-5.79-1.01-7.27-2.86
				c-1.48-1.85-2.5-3.4-4.15-1.61c-1.65,1.79-3.77,6.99-1.49,8.44C1916.24,1187.04,1933.64,1185.27,1933.64,1185.27z"/>
		</g>
		<path class="st16" d="M1858.06,1180.46c0,0,7.57,9.76,10.05,10.93c2.48,1.17,4.08,0.87,4.08,0.87l-5.1-9.18L1858.06,1180.46z"/>
		<path class="st16" d="M1856.31,1170.41l22,10.69c0,0-0.94,1.53-3.64,1.41c-2.71-0.12-9.54-2.62-9.54-2.62L1856.31,1170.41z"/>
		<path class="st34" d="M1814.36,1175.25c0,0,36.12-8.04,41.95-4.84c5.83,3.21,20.07,14.88,21.85,18.94s-12.97-3.08-17.77-4.37
			c-3.11-0.83-11.29,2.01-15.34,3.36c-17.05,5.68-27.49,2.76-27.49,2.76L1814.36,1175.25z"/>
		<path class="st11" d="M1790.18,972.8c0,0-48.5,2.99-65.29,26.4c-23.63,32.96-70.51,173.44-43.65,192.17
			c30.26,21.1,137.71,5.52,137.71,5.52s3.58-16.71-1.4-24.8c-4.97-8.08-85.82-21.14-89.55-24.88c-3.73-3.73,36.86-57.69,32.54-68.01
			C1746.69,1046.12,1790.18,972.8,1790.18,972.8z"/>
	</g>
	<g>
		<g>
			<g>
				<g>
					<path class="st16" d="M1157.06,863.5c0-0.61-8.96-19.14-6.11-20.56c2.85-1.43,7.96-1.21,8.55,2.04
						C1160.1,848.21,1157.06,863.5,1157.06,863.5z"/>
					<path class="st12" d="M1023.32,633.23c0,0-52.54-63.13-80.35-22.74c0,0-20.75,8.61-28.26,43.93
						c-7.66,36.04,16.31,63.43,28.7,56.66c7.95-4.34,13.96,9.57,13.96,9.57L1023.32,633.23z"/>
					<path class="st16" d="M1088.48,969.19c41.77-15.39,82-86.87,82-86.87l-13.17-9.22c-10.97,16.05-60.33,46.87-60.33,46.87
						c-1.13-13.52-2.76-25.8-4.78-36.91c-13.7-75.54-45.05-97.92-53.47-102.67c-1.36-0.77-2.12-1.07-2.12-1.07s0.03,0.56,0.09,1.61
						c0.12,2.27,0.39,6.85,0.83,13.13C1040.79,840.82,1053.58,982.06,1088.48,969.19z"/>
					<path class="st12" d="M948.7,604.09c0,0-7.06-28.26-48.57-19.43c0,0,19.87-2.5,25.31,5.15c0,0-15.75-7.21-25.61-1.18
						c-9.86,6.03-11.48,26.34-10.01,32.52c1.47,6.18,12.36,24.58,19.57,24.58c7.21,0,15.75-6.33,15.75-6.33L948.7,604.09z"/>
					<path class="st16" d="M886.6,1046.32c20.64-46.28,30.51-59.36,30.85-73.92c0.27-11.51-5.4-23.94-16.43-54.4
						c-2.6-7.18-4.39-14.56-5.49-22.02c-8.72-58.73,25.24-122.22,46.35-126.54c5.87-1.55,15.83-22.76,15.71-56.94l2.64,0.52
						l44.45,8.8c0,0-1.01,13.99-1.04,27.16c-0.03,10.98,0.63,21.39,3.12,22.7c3.2,0.29,5.09,0.48,5.09,0.48s37.06,51.47,40.18,99.33
						c3.12,47.87-29.68,68.66,0.25,164.32C1082.81,1133.5,875.2,1071.89,886.6,1046.32z"/>
					<path class="st36" d="M1004.67,721.81c0,0-1.01,13.99-1.04,27.16c-24.87-0.7-38.02-23.39-43.4-35.96L1004.67,721.81z"/>
					<path class="st12" d="M955.64,708.17c0,0-13.03-20.59-16.16-38.2c-2.23-12.57,4.17-59.17,51-52.46c0,0,13.6,1.34,26.39,9.98
						c10.17,6.87,24.84,21.69,8.43,62.36l-4.26,13.74L955.64,708.17z"/>
					<path class="st16" d="M1012.98,734.29c0,0-58.84,0.97-58.89-35.68c-0.04-36.65-7.66-61.22,29.91-63.39
						c37.57-2.17,44.88,11.81,47.87,24.04C1034.86,671.49,1028.28,733.09,1012.98,734.29z"/>
					<path class="st12" d="M1010.8,634.32c0,0-16.11,43-40.84,49.36c-24.73,6.36-35.45-0.27-35.45-0.27s18.97-15.07,22.9-41.37
						C957.41,642.05,998.65,613.85,1010.8,634.32z"/>
					<path class="st12" d="M1006.81,637.81c0,0,12.03,9.6,14.97,18.93c2.93,9.33,4.25,28.55,9.85,27.9c0,0,12.14-29.23-1.5-45.76
						C1015.66,621.35,1006.81,637.81,1006.81,637.81z"/>
					<path class="st37" d="M938.71,1490.39c14.8,58.89,37.09,104.04,37.09,104.04l19.4-1.35c0,0-9.52-45.27-8.97-106.44
						c0.38-42.76,5.67-93.3,22.57-141.56c58.06-165.83,48.68-286.51,48.68-286.51l-109.19,12.77l-5.09,0.6
						c-0.45,50.15-1.75,118.23-2.88,171.47c-1,47.88-1.88,83.75-1.88,83.75C917.45,1372.37,925.08,1436.19,938.71,1490.39z"/>
					<path class="st16" d="M810.07,1095.48l17.67,5.3c0,0,58.28-96.69,63.57-121.85c1.73-8.19,5.97-24.58,10.91-42.95
						c10.23-38.03,23.44-84.57,23.44-84.57l4.35-18.84l14.83-64.24c0,0-28.4,2.9-45.02,9.85c-5.5,2.3-9.7,5.04-11.16,8.25
						c-12.21,26.84-24.39,94.57-32.96,142.88c-4.77,26.93-8.41,47.83-10.31,52.26C840.1,993.93,823.91,1061.92,810.07,1095.48z"/>
					<path class="st38" d="M876.06,1480.98c6.28,67,33.92,110.33,33.92,110.33l9.27,6.74c0,0,8.77-47.21,14.98-103.37
						c5.92-53.38,14.03-109.87,23.2-127.11c36.41-68.38,47.37-326.51,47.37-326.51l-110.71-5.49
						c-11.13,18.72-15.99,49.42-17.14,84.32c-2.91,88.1,17.8,202.97,20.89,219.58c0,0.01,0,0.02,0.01,0.04
						c0.24,1.28-0.13,2.55-0.73,3.71C875.11,1386.84,871.93,1436.72,876.06,1480.98z"/>
					<path class="st12" d="M1009.04,639.27c0,0-11.48,45.03-42.68,59.45c0,0,31.2-27.67,33.85-57.39
						C1002.86,611.6,1009.04,639.27,1009.04,639.27z"/>
					<path class="st25" d="M872.73,1079.73c-0.19,3.73,0.01,6.71,0.69,8.85c2.36,7.41,10.45,10.79,30,8.77
						c11.95-1.24,17.28-21.28,19.66-38.36c7.18,24.45,17.23,38.17,30.22,41.05c18.96,4.22,114.6,15.85,120.86-29.62
						c6.89-50-13.73-138.54-14.86-186.28c2.81-16.93,3.77-31.62,3.47-44.24c-0.8-34.01-10.78-53.07-18.45-60.74
						c-2.17-1.67-4.35-2.71-13.07-4.21c-4.46-0.76-10.64-1.64-19.39-2.79c0,0-3.57-0.4-3.49-0.27c1.62,2.89,23.28,35.69,21.59,44.13
						c-1.77,8.83-78.59,0.88-83.89-3.97c-5.3-4.85-13.68-42.05-13.68-42.05s-27.2,2.97-40.51,12.65c0,0,0.05,0.06,0.14,0.17
						c-1.61,1.15-2.81,2.38-3.5,3.68c-14.2,27.03-28.37,95.25-38.34,143.9c24.17,13.32,45.28,9.35,51.83,7.59
						C893.43,994.03,874,1054.2,872.73,1079.73z"/>
					<path class="st16" d="M1157.3,873.1c-0.01-1.82-1.52-28.1,3.15-33.62c4.68-5.52,14.23-13.37,17.24-13.13
						c3,0.24,14.76,15.85,11.22,27.82c-3.53,11.97-18.44,28.16-18.44,28.16L1157.3,873.1z"/>
					<g>
						<path class="st15" d="M1135.85,840.95l27.24,8.16c0.9,0.27,1.86-0.24,2.13-1.15l15.57-51.94c0.27-0.9-0.24-1.86-1.15-2.13
							l-27.24-8.16c-0.9-0.27-1.86,0.24-2.13,1.15l-15.57,51.94C1134.43,839.72,1134.94,840.68,1135.85,840.95z"/>
						<path class="st39" d="M1142.93,843.07l24.71,7.41c1.6,0.48,3.29-0.43,3.77-2.03l14.81-49.41c0.48-1.6-0.43-3.29-2.03-3.77
							l-24.71-7.41c-1.6-0.48-3.29,0.43-3.77,2.03l-14.81,49.41C1140.41,840.9,1141.32,842.59,1142.93,843.07z"/>
					</g>
					<path class="st16" d="M876.06,1480.98c6.28,67,33.92,110.33,33.92,110.33l9.44,8.59c0,0,8.6-49.06,14.81-105.22
						C927.7,1495.16,898.86,1496.21,876.06,1480.98z"/>
					<path class="st40" d="M938.71,1490.39c14.8,58.89,37.09,104.04,37.09,104.04l19.4-1.35c0,0-9.52-45.27-8.97-106.44
						C979.65,1489.96,966.06,1493.33,938.71,1490.39z"/>
					<g>
						<path class="st12" d="M964.62,1610.7h12.39c4.15-0.65,7.21-1.85,11.47-2.41c6.46-0.85,9.44,1.8,10.03,2.41
							c0.08,0.08,0.11,0.12,0.11,0.12h52.63c1.32-1.89,0.05-6.27-1.19-9.49c-0.84-2.19-2.67-3.85-4.93-4.5
							c-5.58-1.62-16.58-3.05-26.66-12.18c-5.67-5.12-27.37-18.83-27.37-18.83l-0.11-0.03c-0.48,0.01-2.75,0.71-12.62,9.04
							c-5.1,4.3-13.8-6.08-13.8-6.08s-1.63,1.35-2.85,3.87c-0.98,1.99-1.7,4.72-1.13,8.08c0.79,4.74-1.75,13.55-3.77,19.51
							c-1.23,3.61-2.26,6.17-2.26,6.17S953.97,1609.37,964.62,1610.7z"/>
						<path class="st41" d="M961.72,1572.63c2.96,2.08,9.2,6.19,13.34,6.73c5.59,0.73,16.04-13.54,16.04-13.54l-0.11-0.03
							c-0.48,0.01-2.75,0.71-12.62,9.04c-5.1,4.3-13.8-6.08-13.8-6.08S962.94,1570.11,961.72,1572.63z"/>
						<path class="st41" d="M964.62,1610.7h12.39c4.15-0.65,7.21-1.85,11.47-2.41c6.46-0.85,9.44,1.8,10.03,2.41
							c0.08,0.08,0.11,0.12,0.11,0.12h52.63c1.32-1.89,0.05-6.27-1.19-9.49c-1.6-1.42-2.05,6.17-2.93,7.38
							c-0.88,1.21-42.93,0.44-45.36-1.32c-2.43-1.77-9.71-4.86-19.87-2.43c-8.84,2.11-21.86-3.3-25.09-4.74
							c-1.23,3.61-2.26,6.17-2.26,6.17S953.97,1609.37,964.62,1610.7z"/>
					</g>
					<g>
						<path class="st12" d="M898.51,1610.7h12.39c4.15-0.65,7.21-1.85,11.47-2.41c6.46-0.85,9.44,1.8,10.03,2.41
							c0.08,0.08,0.11,0.12,0.11,0.12h52.63c1.32-1.89,0.05-6.27-1.19-9.49c-0.84-2.19-2.67-3.85-4.93-4.5
							c-5.58-1.62-16.58-3.05-26.66-12.18c-5.67-5.12-27.37-18.83-27.37-18.83l-0.12-0.03c-0.48,0.01-2.75,0.71-12.62,9.04
							c-5.1,4.3-13.8-6.08-13.8-6.08s-1.63,1.35-2.85,3.87c-0.98,1.99-1.7,4.72-1.13,8.08c0.79,4.74-1.75,13.55-3.77,19.51
							c-1.23,3.61-2.26,6.17-2.26,6.17S887.86,1609.37,898.51,1610.7z"/>
						<path class="st41" d="M895.61,1572.63c2.96,2.08,9.2,6.19,13.34,6.73c5.59,0.73,16.04-13.54,16.04-13.54l-0.12-0.03
							c-0.48,0.01-2.75,0.71-12.62,9.04c-5.1,4.3-13.8-6.08-13.8-6.08S896.83,1570.11,895.61,1572.63z"/>
						<path class="st41" d="M898.51,1610.7h12.39c4.15-0.65,7.21-1.85,11.47-2.41c6.46-0.85,9.44,1.8,10.03,2.41
							c0.08,0.08,0.11,0.12,0.11,0.12h52.63c1.32-1.89,0.05-6.27-1.19-9.49c-1.6-1.42-2.05,6.17-2.93,7.38
							c-0.88,1.21-42.93,0.44-45.36-1.32c-2.43-1.77-9.71-4.86-19.87-2.43c-8.84,2.11-21.86-3.3-25.09-4.74
							c-1.23,3.61-2.26,6.17-2.26,6.17S887.86,1609.37,898.51,1610.7z"/>
					</g>
					<path class="st25" d="M1041.02,777.6c0,0,36.7,18.47,48.92,93c0,0-12.02,16.48-28.95,21.34c-2.42,0.69-4.94,1.15-7.54,1.29
						C1032.67,894.33,1041.02,777.6,1041.02,777.6z"/>
					<path class="st16" d="M1180.51,828.36c0,0-11.34-17.45-14.11-16.48c-3.96,1.39,10.28,23.53,10.28,23.53
						s-10.55-16.55-12.2-15.31c-3.76,2.84,2.22,13.23,8.15,21.21c0,0-10.61-9.72-10.96-7.97c-1.21,6.13,11.65,20.98,11.65,20.98
						l7.19-16.42V828.36z"/>
					<path class="st16" d="M1189.02,844.57c-0.55-2.13-3.32-43.81-4.5-39.86s-4.01,25.81-4.01,25.81L1189.02,844.57z"/>
				</g>
			</g>
			<path class="st11" d="M1001.48,712.53c0,0,1.02,4.32,11.76,3.65c0,0,9.02-0.56,8.75-5.31
				C1021.99,710.88,1013.24,707.5,1001.48,712.53z"/>
		</g>
		<path class="st16" d="M810.07,1095.48c0,0-21.31,14.17-24.57,20.14c-3.26,5.97-10.86,27.96-10.86,27.96s5.43,0.81,10.86-8.69
			s23.35-8.69,29.32-13.84c5.97-5.16,12.92-20.27,12.92-20.27L810.07,1095.48z"/>
		<path class="st16" d="M825.42,1105.45c0,0-3.54,16.68-7.89,21.57c-4.34,4.89-10.32,13.03-12.76,10.86
			c-2.44-2.17,2.71-20.36,2.71-20.36L825.42,1105.45z"/>
		<path class="st16" d="M788.49,1117.52c-0.54,0.81-19.27,20.72-19.27,20.72s6.79,3.08,8.69,0
			C779.8,1135.16,788.49,1117.52,788.49,1117.52z"/>
	</g>
	<g>
		<g>
			<path class="st42" d="M1074.87,1392.36c-6.98,3.59-18.53,6.83-22.6,16.03c-1.45,3.26-0.67,14.69,4.23,14.02
				c2.69-0.37,3.47-3.98,3.62-7.16c0.15-3.15,2.08-5.95,4.95-7.28l31.86-13.98l-6-12.33
				C1090.93,1381.67,1077.94,1390.79,1074.87,1392.36z"/>
			<path class="st15" d="M1390.73,1610.76h-192.92c0,2.3-34.71,0-34.71,0s2.45-11.87,8.23-15.21c1.31-0.75,10.95,1.55,13.31,1.45
				c-1-0.62-21.42-6.96-16.84-38.19l-10.9,50.35c-0.15,0.93-0.95,1.6-1.89,1.6h-42.71c-0.92,0-1.71-0.65-1.88-1.56
				c-0.64-3.39-1.7-11.46,1.67-15.57c2.66-3.24,11.01-2.5,17.08-1.45c1.36,0.23,2.61,0.49,3.65,0.71c1.4,0.3,2.63-0.98,2.26-2.37
				c0,0-3.17-9.33-8.95-22.29c-5.78-12.96-14.17-29.56-24.6-44.11c-2.09-2.91-4.26-5.75-6.51-8.45
				c-8.07-9.71-13.54-33.04-6.48-43.34c0.93-1.35,5.09-5.8,3.59-5.14c-3.08,1.36-5.3,3.6-6.82,5.69c-1.07,1.46-3.39,0.74-3.45-1.07
				c-0.85-24.33,17.52-45.12,24.73-55.73c2.35-3.46,3.51-5.83,2.44-6.89c-4.64-4.61-25.11,7.07-34.36,6.74
				c-5.48-0.19-9.64-2.12-12.11-3.66c-0.56-0.35-0.86-0.91-0.9-1.48c-0.05-0.72,0.29-1.46,1.03-1.84
				c5.32-2.76,13.35-6.15,19.69-10.73c3.19-2.3,6.05-6.34,7.72-9.86c1.26-2.67,0.83-5.94,0.83-5.94
				c-7.17,6.12-16.63,11.17-24.72,13.93c-5.39,1.84-10.17,2.66-13.25,2.11c-7.96-1.42-12.97-8.73-15.79-14.68
				c-1.23-2.59-2.04-4.92-2.5-6.4c-0.29-0.92,0.16-1.91,1.04-2.31c1.29-0.58,3.34-1.51,5.85-2.66c11.65-5.36,24.58-9.61,26.89-13.31
				c0.79-1.27,1.52-2.68,2.25-4.19c0,0,0,0,0.01-0.02c3.46-7.21,6.82-16.72,16.5-24.4c15.04-11.92,30.38-14.2,36.78-14.61
				c1.96-0.13,3.09-0.08,3.1-0.08c9.98-0.4,17.38,1.08,22.9,3.95c0,0,0,0,0.01,0c21.38,11.11,14.42,43.08,18.9,67.49
				c0.17,0.95,0.37,1.89,0.58,2.82c1.84,8.07,25.4,29.95,26.34,43.25c1.78,25.37,20.76,27.74,62.73,53.41
				c24.26,14.84,26,55.06,23.81,85.63c-0.54,7.58,4.77,14.33,12.26,15.58c10.2,1.69,21.56,2.41,32.03,0.46
				c28.71-5.34,34.72-54.08,17.36-61.43c0,0,29.47-8.68,43.78,14.02C1402.08,1563.69,1402.08,1599.74,1390.73,1610.76z"/>
			<path class="st42" d="M1131.05,1322.86c-8.45,0-15.67,6.44-17.02,15.21c-2.04,13.29-4.07,32.47-1.5,45.66
				c3.82,19.68,20.8,26.88,31.69,21.05c20.12-10.77,10.93-52.41,5.34-71.83c-1.73-5.99-6.99-10.09-12.95-10.09H1131.05z"/>
			<path class="st43" d="M1037.16,1383.79c-1.23-2.59-2.04-4.92-2.5-6.4c-0.29-0.92,0.16-1.91,1.04-2.31
				c1.29-0.58,3.34-1.51,5.85-2.66C1041.56,1372.42,1043.2,1381.73,1037.16,1383.79z"/>
			<path class="st44" d="M1390.73,1610.76h-33.94c38.75-7.96,30.63-37.68,30.63-37.68c-4,7.34-26.37,8.68-26.37,8.68
				s15.02-14.02,13.69-34.71c-1.09-16.82-20.71-19.56-28.02-20c-1.68-0.1-2.72-0.08-2.72-0.08s29.47-8.68,43.78,14.02
				C1402.08,1563.69,1402.08,1599.74,1390.73,1610.76z"/>
			<path class="st15" d="M1149.98,1319.77c0,0,18.88,4.98,22.89,20c0,0-2.51-2.44-4.29-3.18c0,0,4.86,4.15,4.29,14.69
				s-6.52,27.3-3.4,38.8l-11.86-20.62L1149.98,1319.77z"/>
			<path class="st15" d="M1070.69,1354.92c0,0,5.45-13.73,0-18.85c0,0,3.79-1.11,5.68,0c0,0,0.67-10.46,14.02-15.13
				c13.35-4.67,33.59-5.04,33.59-5.04l-34.93,25.96L1070.69,1354.92z"/>
		</g>
		<path class="st44" d="M1137.4,1610.76h-25.11c-0.92,0-1.71-0.65-1.88-1.56c-0.64-3.39-1.7-11.46,1.67-15.57
			c2.66-3.24,11.01-2.5,17.08-1.45C1135.53,1599.09,1137.4,1610.76,1137.4,1610.76z"/>
	</g>
	<g>
		<rect x="1355.53" y="413.81" class="st3" width="297.2" height="366.36"/>
		<path class="st5" d="M1582.35,687.59c-2.61-4.14-6.27-6.09-9.8-6.92c-0.46-0.11-0.92-0.2-1.38-0.27
			c-0.09-0.01-0.17-0.03-0.26-0.04c-5.06-0.75-9.45,0.54-9.45,0.54c0,0,0,0,0,0l0,0h0c8.28,3.51,5.42,26.76-8.28,29.31
			c-5,0.93-10.41,0.59-15.28-0.22c-3.57-0.6-6.11-3.82-5.85-7.44c1.04-14.59,0.22-33.78-11.36-40.86
			c-20.02-12.25-29.08-13.38-29.93-25.48c-0.45-6.34-11.69-16.79-12.57-20.64c-0.09-0.4-0.18-0.82-0.25-1.23
			c-0.83-5.4,1.62-12.62,1.88-17.28c0.28-5.03-2.05-7.01-2.05-7.01c0.85,0.35,2.05,1.52,2.05,1.52c-1.91-7.15-10.87-9.53-10.92-9.54
			l0,0c0,0,0,0,0,0l0,0v0c-2.63-1.37-6.16-2.07-10.92-1.88c-0.01,0-0.54-0.02-1.48,0.04l0,0c0,0-9.66,0.18-16.03,2.41
			c-6.37,2.23-6.69,7.22-6.69,7.22c-0.9-0.53-2.71,0-2.71,0c2.6,2.44,0,8.99,0,8.99l0,0v0c-0.35,0.72-0.69,1.39-1.07,2
			c-1.1,1.77-7.27,3.79-12.83,6.35c-0.73,0.34-1.37,0.63-1.91,0.87c-0.34,0.15-0.65,0.29-0.88,0.4c-0.11,0.05-0.2,0.11-0.27,0.19
			c-0.23,0.23-0.33,0.58-0.22,0.91c0.1,0.33,0.25,0.75,0.42,1.23c0.11,0.29,0.23,0.6,0.37,0.92c0.12,0.29,0.26,0.59,0.4,0.9
			c1.35,2.84,3.74,6.32,7.54,7c1.47,0.26,3.75-0.13,6.32-1c0,0,0.01,0,0.01,0c-2.68,1.27-5.41,2.92-6.66,5.75
			c-0.69,1.56-0.32,7.01,2.02,6.69c1.29-0.18,1.65-1.9,1.73-3.42c0.04-0.78,0.31-1.5,0.74-2.12c0.02,0.27,0.16,0.53,0.42,0.7
			c1.18,0.73,3.17,1.65,5.78,1.75c4.41,0.16,14.18-5.42,16.4-3.22c0.51,0.51-0.04,1.64-1.16,3.29c-3.44,5.06-12.21,14.98-11.8,26.59
			c0.03,0.87,1.14,1.21,1.65,0.51c0.73-1,1.79-2.07,3.25-2.72c0.71-0.31-1.27,1.81-1.71,2.45c-3.37,4.92-0.76,16.05,3.09,20.68
			c1.07,1.29,2.11,2.64,3.1,4.03c4.98,6.94,8.98,14.86,11.74,21.05c2.76,6.18,4.27,10.63,4.27,10.63c0.18,0.66-0.41,1.28-1.08,1.13
			c-0.5-0.11-1.09-0.23-1.74-0.34c-2.9-0.5-6.88-0.85-8.15,0.69c-1.61,1.96-1.1,5.81-0.8,7.43c0.08,0.43,0.46,0.74,0.9,0.74h11.98
			h8.4c0.45,0,0.83-0.32,0.9-0.77l5.2-24.03c-2.18,14.9,7.56,17.92,8.04,18.22c-1.13,0.05-5.73-1.05-6.35-0.69
			c-2.76,1.59-3.93,7.26-3.93,7.26s16.56,1.1,16.56,0h92.06c0,0,0,0,0,0l0,0C1589.18,715.62,1589.18,698.42,1582.35,687.59z"/>
		<g>
			<rect x="1382.77" y="437.62" class="st5" width="103.11" height="4.3"/>
			<rect x="1495.67" y="437.62" class="st5" width="58.06" height="4.3"/>
			<rect x="1382.77" y="449.07" class="st5" width="58.06" height="4.3"/>
			<rect x="1446.07" y="449.07" class="st5" width="66.43" height="4.3"/>
			<rect x="1520.52" y="449.07" class="st5" width="66.43" height="4.3"/>
		</g>
		<g>
			<rect x="1382.77" y="463.39" class="st5" width="103.11" height="4.3"/>
			<rect x="1495.67" y="463.39" class="st5" width="58.06" height="4.3"/>
			<rect x="1382.77" y="474.85" class="st5" width="58.06" height="4.3"/>
			<rect x="1446.07" y="474.85" class="st5" width="66.43" height="4.3"/>
			<rect x="1520.52" y="474.85" class="st5" width="66.43" height="4.3"/>
		</g>
		<g>
			<rect x="1382.77" y="743.13" class="st5" width="103.11" height="4.3"/>
			<rect x="1495.67" y="743.13" class="st5" width="58.06" height="4.3"/>
			<rect x="1382.77" y="754.59" class="st5" width="58.06" height="4.3"/>
			<rect x="1446.07" y="754.59" class="st5" width="66.43" height="4.3"/>
			<rect x="1520.52" y="754.59" class="st5" width="66.43" height="4.3"/>
		</g>
		<g>
			<rect x="1508.08" y="570.86" class="st5" width="103.11" height="4.3"/>
			<rect x="1508.08" y="594.85" class="st5" width="103.11" height="4.3"/>
			<rect x="1508.08" y="582.32" class="st5" width="58.06" height="4.3"/>
			<rect x="1571.37" y="582.32" class="st5" width="46.38" height="4.3"/>
			<rect x="1508.08" y="607.86" class="st5" width="58.06" height="4.3"/>
			<rect x="1571.37" y="607.86" class="st5" width="46.38" height="4.3"/>
		</g>
		<path class="st5" d="M1460.46,583.33c0,0-10.02-12.89-22.91-10.02c0,0-0.54,2.09,0.9,4.8c1.43,2.71,1.61,6.47,1.61,6.47
			L1460.46,583.33z"/>
		<rect x="1382.77" y="505.88" class="st5" width="243.22" height="42.96"/>
		<g>
			<path class="st5" d="M1656.3,783.75h-304.36V410.23h304.36V783.75z M1359.11,776.59h290.04v-359.2h-290.04V776.59z"/>
		</g>
	</g>
	<path class="st35" d="M3080.11,1614.85H146.92c-1.75,0-3.18-1.43-3.18-3.18v-0.76c0-1.75,1.43-3.18,3.18-3.18h2933.19
		c1.75,0,3.18,1.43,3.18,3.18v0.76C3083.29,1613.42,3081.86,1614.85,3080.11,1614.85z"/>
</g>
</svg>
