<svg width="606" height="387" viewBox="0 0 606 387" fill="none" xmlns="http://www.w3.org/2000/svg">
<path d="M36.7368 386.15C36.7368 386.15 -33.9846 301.631 24.7761 210.124C76.9143 128.937 113.8 172.148 163.708 91.9009C283.231 -100.28 586.566 42.2167 546.393 215.552C526.951 299.432 605.562 302.483 565.507 386.33L36.7368 386.15Z" fill="#EBF3FA"/>
<path opacity="0.5" d="M472.38 253.609C462.729 241.274 442.911 257.142 442.911 257.142C442.911 257.142 438.933 289.712 434.896 292.561C430.86 295.41 433.355 263.985 433.355 263.985C424.65 267.478 408.322 289.854 408.322 289.854C408.322 289.854 422.247 318.083 417.695 319.752C413.144 321.422 406.524 294.066 406.524 294.066C399.627 300.961 396.605 315.248 396.605 315.248C394.529 337.021 420.052 338.828 420.052 338.828C420.052 338.828 424.686 348.725 424.056 363.206C424.056 363.206 423.708 366.001 423.987 370.296L426.182 369.142C426.081 368.401 426.005 367.67 425.962 366.955C425.96 366.951 425.96 366.946 425.962 366.941C425.962 366.932 425.962 366.92 425.96 366.91C425.947 366.457 425.934 365.813 425.921 365.025V365.023C425.921 365.02 425.921 365.02 425.921 365.018C425.964 363.22 425.953 361.914 425.904 360.993C425.904 360.991 425.904 360.988 425.904 360.984C425.943 355.392 426.269 347.963 427.661 345.707C427.661 345.707 427.255 345.46 426.709 344.847C427.013 345.123 427.328 345.408 427.661 345.707C435.27 352.588 454.701 344.178 464.143 336.309C473.584 328.44 467.61 327.593 459.679 325.287C451.748 322.982 440.543 330.584 436.157 330.354C431.769 330.124 435.969 325.373 443.205 322.293C450.44 319.211 457.268 325.052 469.054 320.301C480.839 315.55 479.287 287.705 479.287 287.705C472.658 294.458 456.648 297.077 454.827 294.408C453.007 291.737 473.803 281.159 476.639 278.578C479.475 275.997 482.031 265.944 472.38 253.609Z" fill="#AFCDFB"/>
<path d="M108.937 218.033C111.48 190.828 152.656 191.782 152.656 191.782C152.656 191.782 186.572 232.493 194.628 232.159C202.684 231.824 171.809 191.124 171.809 191.124C186.863 186.746 228.91 200.361 228.91 200.361C228.91 200.361 234.348 253.996 242.082 251.491C249.816 248.986 235.064 204.271 235.064 204.271C250.593 206.494 267.231 223.005 267.231 223.005C289.1 250.838 255.48 280.288 255.48 280.288C255.48 280.288 257.729 298.829 271.238 318.133C271.238 318.133 274.156 321.621 277.521 327.837L273.485 328.564C272.978 327.434 272.444 326.348 271.877 325.316C271.874 325.306 271.872 325.301 271.866 325.297C271.857 325.282 271.849 325.268 271.84 325.252C271.462 324.615 270.918 323.711 270.247 322.611C270.247 322.609 270.245 322.609 270.245 322.606C270.245 322.604 270.243 322.604 270.24 322.602C268.613 320.168 267.488 318.356 266.752 317.036C266.75 317.031 266.748 317.027 266.746 317.024C261.813 309.355 254.876 299.454 250.988 297.813C250.988 297.813 251.331 297.041 251.549 295.621C251.37 296.32 251.185 297.048 250.988 297.813C246.5 315.338 212.363 324.264 192.474 323.383C172.584 322.502 180.085 315.023 189.007 303.469C197.928 291.915 220.019 290.566 225.869 285.613C231.719 280.66 221.778 278.547 209.112 281.94C196.443 285.333 192.126 300.598 171.725 306.496C151.325 312.394 129.163 272.355 129.163 272.355C144.197 274.667 168.565 261.368 168.746 255.763C168.926 250.157 131.012 257.534 124.85 256.969C118.691 256.401 106.394 245.239 108.937 218.033Z" fill="#DFEBFA"/>
<path d="M404.081 72.4427C385.677 56.437 359.176 87.703 359.176 87.703C359.176 87.703 361.9 139.721 356.396 145.496C350.891 151.27 346.17 101.522 346.17 101.522C333.573 109.842 314.286 150.085 314.286 150.085C314.286 150.085 343.69 189.415 337.063 193.523C330.434 197.628 312.641 157.237 312.641 157.237C303.793 170.254 303.001 193.496 303.001 193.496C305.73 228.077 345.959 222.438 345.959 222.438C345.959 222.438 355.882 236.309 358.867 259.061C358.867 259.061 359.092 263.527 360.7 270.121L363.802 267.594C363.439 266.473 363.124 265.362 362.86 264.26C362.856 264.253 362.856 264.249 362.856 264.239C362.852 264.223 362.85 264.208 362.845 264.192C362.703 263.491 362.504 262.494 362.269 261.269C362.269 261.266 362.269 261.266 362.269 261.264C362.267 261.262 362.269 261.259 362.269 261.257C361.844 258.446 361.468 256.418 361.142 254.998C361.142 254.993 361.14 254.989 361.138 254.986C359.666 246.27 358.14 234.595 359.69 230.625C359.69 230.625 358.988 230.373 357.973 229.601C358.522 229.929 359.092 230.269 359.69 230.625C373.42 238.814 401.365 219.287 413.906 203.908C426.448 188.529 416.915 189.192 403.94 188.228C390.967 187.266 375.603 202.814 368.71 203.908C361.816 205.003 367.055 196.218 377.476 189.023C387.896 181.829 400.124 188.66 417.172 177.36C434.221 166.06 424.179 123.229 424.179 123.229C415.709 135.936 391.5 145.32 387.934 141.766C384.369 138.211 413.846 114.854 417.554 109.896C421.259 104.943 422.485 88.4485 404.081 72.4427Z" fill="#DFEBFA"/>
<path d="M195.606 346.322C195.085 334.554 212.676 332.026 212.676 332.026C212.676 332.026 229.517 346.944 232.927 346.227C236.338 345.51 220.794 330.38 220.794 330.38C226.946 327.443 245.654 330.242 245.654 330.242C245.654 330.242 251.131 352.695 254.276 351.075C257.421 349.456 248.506 331.468 248.506 331.468C255.249 331.306 263.307 337.152 263.307 337.152C274.26 347.445 261.677 362.382 261.677 362.382C261.677 362.382 263.728 370.118 270.618 377.374C270.618 377.374 272.067 378.652 273.865 381.059L272.19 381.655C271.907 381.209 271.615 380.786 271.313 380.387C271.313 380.385 271.311 380.383 271.307 380.38C271.302 380.375 271.298 380.368 271.294 380.363C271.095 380.119 270.81 379.772 270.461 379.352C270.461 379.352 270.461 379.352 270.458 379.35C270.458 379.35 270.456 379.35 270.456 379.347C269.621 378.426 269.034 377.735 268.643 377.227C268.641 377.225 268.641 377.225 268.639 377.222C266.085 374.309 262.549 370.586 260.797 370.165C260.797 370.165 260.898 369.812 260.907 369.192C260.872 369.503 260.836 369.826 260.797 370.165C259.918 377.949 245.907 384.184 237.387 385.226C228.865 386.269 231.619 382.55 234.738 376.994C237.858 371.438 247.185 369.289 249.384 366.763C251.584 364.237 247.226 364.044 242.032 366.393C236.839 368.741 235.9 375.548 227.559 379.513C219.218 383.479 207.422 368.01 207.422 368.01C213.96 367.922 223.553 360.521 223.3 358.123C223.048 355.722 207.335 361.565 204.678 361.765C202.021 361.964 196.126 358.089 195.606 346.322Z" fill="#D9E8FA"/>
<path d="M218.724 146.483C211.782 150.408 200.3 153.956 196.242 164.018C194.805 167.587 195.578 180.086 200.447 179.357C203.126 178.956 203.897 175.002 204.048 171.524C204.199 168.074 206.116 165.016 208.967 163.565L240.655 148.276L234.691 134.787C234.691 134.787 221.77 144.76 218.724 146.483Z" fill="#ED7D2B"/>
<path d="M532.857 385.402H340.986C340.986 387.924 306.459 385.402 306.459 385.402C306.459 385.402 308.892 372.412 314.647 368.76C315.95 367.934 325.537 370.453 327.885 370.341C326.892 369.657 306.582 362.731 311.135 328.561L300.294 383.647C300.143 384.659 299.349 385.402 298.418 385.402H255.94C255.022 385.402 254.239 384.687 254.068 383.695C253.432 379.981 252.38 371.153 255.728 366.666C258.368 363.128 266.679 363.926 272.718 365.077C274.076 365.334 275.315 365.609 276.354 365.858C277.75 366.193 278.972 364.783 278.598 363.263C278.598 363.263 275.44 353.06 269.692 338.883C263.94 324.701 255.601 306.541 245.225 290.623C243.146 287.437 240.99 284.338 238.755 281.38C230.73 270.762 225.292 245.237 232.316 233.97C233.236 232.496 237.376 227.626 235.889 228.348C232.828 229.834 230.618 232.289 229.105 234.576C228.045 236.176 225.735 235.388 225.675 233.405C224.828 206.793 243.105 184.046 250.274 172.443C252.609 168.66 253.766 166.063 252.698 164.899C248.087 159.858 227.723 172.637 218.525 172.276C213.077 172.065 208.941 169.954 206.478 168.271C205.921 167.889 205.626 167.278 205.585 166.652C205.533 165.866 205.876 165.051 206.606 164.636C211.892 161.618 219.879 157.909 226.19 152.901C229.364 150.387 232.211 145.961 233.864 142.11C235.118 139.187 234.687 135.616 234.687 135.616C227.557 142.314 218.148 147.839 210.103 150.855C204.745 152.863 199.992 153.763 196.922 153.158C189.007 151.603 184.023 143.606 181.217 137.102C179.993 134.267 179.185 131.715 178.728 130.102C178.441 129.091 178.89 128.008 179.766 127.576C181.053 126.94 183.09 125.926 185.588 124.663C197.177 118.798 210.034 114.154 212.332 110.103C213.122 108.714 213.846 107.173 214.567 105.523C214.567 105.523 214.569 105.516 214.575 105.504C218.014 97.6113 221.353 87.2115 230.987 78.8132C245.948 65.7731 261.2 63.2823 267.566 62.8336C269.519 62.6935 270.635 62.7457 270.648 62.7457C280.569 62.3112 287.932 63.9258 293.419 67.0647C293.419 67.0647 293.421 67.0647 293.426 67.0647C314.688 79.2216 307.772 114.189 312.227 140.896C312.4 141.936 312.589 142.962 312.801 143.976C314.634 152.804 338.065 176.743 338.995 191.288C340.765 219.04 359.642 221.633 401.38 249.715C425.511 265.956 427.238 309.946 425.064 343.394C424.527 351.683 429.809 359.075 437.258 360.44C447.407 362.294 458.699 363.076 469.11 360.943C497.666 355.1 503.64 301.781 486.376 293.746C486.376 293.746 515.683 284.25 529.915 309.084C544.146 333.916 544.146 373.345 532.857 385.402Z" fill="#F1A34F"/>
<path d="M274.594 70.4459C266.189 70.4459 259.009 77.4883 257.669 87.0809C255.638 101.619 253.626 122.602 256.173 137.033C259.974 158.562 276.856 166.443 287.69 160.063C307.702 148.278 298.561 102.73 292.998 81.4797C291.282 74.9216 286.043 70.4435 280.116 70.4435L274.594 70.4459Z" fill="#ED7D2B"/>
<path d="M228.999 107.781C228.442 107.781 227.889 107.527 227.494 107.028C226.773 106.114 226.86 104.732 227.691 103.937C227.93 103.709 233.659 98.3569 242.958 100.781C244.029 101.059 244.692 102.241 244.437 103.419C244.184 104.597 243.109 105.323 242.039 105.046C234.708 103.134 230.348 107.204 230.305 107.244C229.927 107.605 229.463 107.781 228.999 107.781Z" fill="#E07F20"/>
<path d="M181.219 137.1C179.995 134.267 179.188 131.715 178.732 130.1C178.445 129.089 178.894 128.006 179.77 127.574C181.057 126.937 183.095 125.926 185.592 124.663C185.59 124.663 187.224 134.854 181.219 137.1Z" fill="#BC6211"/>
<path d="M532.857 385.402H499.099C537.636 376.688 529.558 344.185 529.558 344.185C525.576 352.217 503.334 353.68 503.334 353.68C503.334 353.68 518.273 338.344 516.946 315.704C515.867 297.305 496.349 294.306 489.077 293.829C487.402 293.72 486.374 293.743 486.374 293.743C486.374 293.743 515.679 284.246 529.912 309.079C544.146 333.916 544.146 373.345 532.857 385.402Z" fill="#FFDABB"/>
<path d="M293.421 67.0623C293.421 67.0623 312.199 72.5092 316.183 88.94C316.183 88.94 313.69 86.2759 311.92 85.4639C311.92 85.4639 316.758 90.0085 316.183 101.531C315.609 113.054 309.699 131.397 312.801 143.974L301 121.412L293.421 67.0623Z" fill="#F1A34F"/>
<path d="M214.569 105.518C214.569 105.518 219.985 90.4952 214.569 84.8964C214.569 84.8964 218.338 83.6783 220.218 84.8964C220.218 84.8964 220.882 73.4542 234.16 68.3421C247.439 63.2301 267.57 62.8288 267.57 62.8288L232.832 91.2265L214.569 105.518Z" fill="#F1A34F"/>
<path d="M489.608 135.917H458.144C456.7 135.917 455.517 134.619 455.517 133.028V99.6272C455.517 98.0387 456.698 96.7375 458.144 96.7375H489.608C491.052 96.7375 492.235 98.0363 492.235 99.6272V133.03C492.235 134.619 491.052 135.917 489.608 135.917Z" fill="#C0D8FB"/>
<path d="M488.246 134.222H459.508C458.19 134.222 457.11 133.035 457.11 131.584V101.073C457.11 99.6224 458.19 98.4352 459.508 98.4352H488.246C489.564 98.4352 490.644 99.6224 490.644 101.073V131.582C490.644 133.035 489.564 134.222 488.246 134.222Z" fill="#DFEBFD"/>
<path d="M473.116 102.011C473.116 101.548 473.457 101.175 473.876 101.175C474.295 101.175 474.636 101.55 474.636 102.011C474.636 102.474 474.295 102.847 473.876 102.847C473.457 102.847 473.116 102.474 473.116 102.011Z" fill="#B7D3F3"/>
<path d="M479.253 103.194C479.458 102.79 479.92 102.645 480.287 102.868C480.654 103.094 480.785 103.602 480.582 104.006C480.38 104.409 479.916 104.554 479.549 104.331C479.182 104.108 479.048 103.597 479.253 103.194Z" fill="#B7D3F3"/>
<path d="M484.509 107.788C484.861 107.539 485.334 107.65 485.56 108.037C485.787 108.424 485.685 108.944 485.334 109.194C484.982 109.443 484.509 109.331 484.282 108.944C484.056 108.557 484.157 108.04 484.509 107.788Z" fill="#B7D3F3"/>
<path d="M487.114 114.899C487.535 114.899 487.874 115.274 487.874 115.735C487.874 116.198 487.533 116.571 487.114 116.571C486.696 116.571 486.355 116.196 486.355 115.735C486.355 115.274 486.694 114.899 487.114 114.899Z" fill="#B7D3F3"/>
<path d="M485.247 124.58C485.667 124.58 486.007 124.205 486.007 123.744C486.007 123.282 485.667 122.908 485.247 122.908C484.828 122.908 484.487 123.282 484.487 123.744C484.487 124.205 484.828 124.58 485.247 124.58Z" fill="#B7D3F3"/>
<path d="M480.47 129.846C480.89 129.846 481.23 129.472 481.23 129.01C481.23 128.549 480.89 128.174 480.47 128.174C480.051 128.174 479.711 128.549 479.711 129.01C479.711 129.472 480.051 129.846 480.47 129.846Z" fill="#B7D3F3"/>
<path d="M473.116 131.135C473.116 130.672 473.457 130.3 473.876 130.3C474.295 130.3 474.636 130.675 474.636 131.135C474.636 131.598 474.295 131.971 473.876 131.971C473.457 131.971 473.116 131.596 473.116 131.135Z" fill="#B7D3F3"/>
<path d="M468.475 103.194C468.27 102.79 467.808 102.645 467.441 102.868C467.074 103.094 466.943 103.602 467.145 104.006C467.35 104.409 467.812 104.554 468.179 104.331C468.546 104.108 468.68 103.597 468.475 103.194Z" fill="#B7D3F3"/>
<path d="M463.219 107.788C462.867 107.539 462.394 107.65 462.168 108.037C461.939 108.424 462.043 108.944 462.394 109.194C462.748 109.443 463.219 109.331 463.446 108.944C463.672 108.557 463.571 108.04 463.219 107.788Z" fill="#B7D3F3"/>
<path d="M460.614 116.573C461.033 116.573 461.373 116.199 461.373 115.737C461.373 115.276 461.033 114.902 460.614 114.902C460.194 114.902 459.854 115.276 459.854 115.737C459.854 116.199 460.194 116.573 460.614 116.573Z" fill="#B7D3F3"/>
<path d="M461.943 123.153C461.646 123.48 461.646 124.01 461.943 124.335C462.241 124.663 462.723 124.663 463.018 124.335C463.316 124.007 463.316 123.478 463.018 123.153C462.723 122.825 462.241 122.825 461.943 123.153Z" fill="#B7D3F3"/>
<path d="M466.72 128.419C466.422 128.747 466.422 129.276 466.72 129.602C467.018 129.929 467.499 129.929 467.795 129.602C468.093 129.274 468.093 128.744 467.795 128.419C467.497 128.094 467.016 128.094 466.72 128.419Z" fill="#B7D3F3"/>
<path d="M473.671 115.737C473.671 115.274 474.012 114.902 474.431 114.902C474.852 114.902 475.19 115.277 475.19 115.737C475.19 116.2 474.849 116.573 474.431 116.573C474.012 116.573 473.671 116.198 473.671 115.737Z" fill="#B7D3F3"/>
<path d="M474.535 105.285H474.327V115.737H474.535V105.285Z" fill="#B7D3F3"/>
<path d="M479.21 111.109L474.172 115.459L474.558 115.999L479.595 111.649L479.21 111.109Z" fill="#B7D3F3"/>
<path d="M354.47 269.631C354.47 269.631 354.351 270.035 353.818 270.491C353.44 271.023 353.022 271.676 352.933 272.075C352.765 272.839 351.925 272.958 351.727 272.246C351.66 272.008 351.653 271.752 351.694 271.493C350.323 271.832 348.294 271.956 345.29 271.498C345.29 271.498 342.956 271.251 344.839 269.465C346.097 268.271 346.954 268.458 348.75 266.803C350.548 265.151 352.89 264.548 354.418 265.443L356.365 265.631L356.968 269.244L354.47 269.631Z" fill="#FFB27D"/>
<path d="M377.547 198.518C377.547 198.518 392.519 214.902 381.988 244.183C379.145 252.087 355.936 270.189 355.936 270.189C355.936 270.189 353.248 267.516 353.974 264.989C353.974 264.989 369.187 242.079 371.389 240.989C373.342 240.023 370.804 214.22 372.095 207.807C373.386 201.394 377.547 198.518 377.547 198.518Z" fill="#9DB0F4"/>
<path d="M432.12 368.192C432.12 368.192 435.378 371.462 434.743 373.786C434.106 376.111 431.169 377.659 430.771 380.499C430.374 383.339 428.785 384.887 427.354 384.887C425.923 384.887 420.535 384.887 420.535 384.887C420.535 384.887 419.482 382.888 422.025 382.287C424.568 381.684 425.526 378.348 425.366 375.249C425.207 372.151 425.604 368.021 425.604 368.021L431.007 366.644L432.12 368.192Z" fill="#233862"/>
<path d="M432.122 366.141C431.527 368.079 424.971 370.918 424.971 370.918C424.971 370.918 421.397 364.723 409.956 342.521C408.972 340.607 407.942 338.51 406.882 336.273C395.647 312.532 381.115 273.077 381.115 273.077L408.885 264.56C408.885 264.56 410.196 276.821 410.433 283.018C410.578 286.805 412.536 294.895 415.022 301.961C416.605 306.458 418.403 310.537 420.086 312.833C427.745 323.283 432.122 366.141 432.122 366.141Z" fill="#B5453C"/>
<path d="M415.02 301.959C413.274 311.696 410.071 328.003 406.88 336.273C395.645 312.532 381.113 273.077 381.113 273.077L408.883 264.56C408.883 264.56 410.194 276.821 410.431 283.018C410.578 286.803 412.534 294.893 415.02 301.959Z" fill="#93312C"/>
<path d="M392.157 376.65C392.157 376.65 392.742 384.091 391.31 384.865L373.008 384.825C373.008 384.825 373.008 382.501 375.948 381.985C378.888 381.47 384.051 379.575 384.925 375.358C385.802 371.144 392.157 376.65 392.157 376.65Z" fill="#233862"/>
<path d="M376.706 271.528C376.706 271.528 377.67 284.573 378.806 300.254C380.347 321.555 382.201 347.718 382.385 352.676C382.702 361.283 383.976 375.05 383.976 375.05C383.976 375.05 386.993 378.322 393.033 376.942C393.033 376.942 398.414 357.289 399.951 336.494C399.975 336.155 399.999 335.81 400.022 335.466C401.454 314.296 403.677 269.722 403.677 269.722L376.706 271.528Z" fill="#B5453C"/>
<path d="M386.462 195.629C386.462 195.629 376.874 205.288 369.839 204.186C369.839 204.186 371.249 200.753 372.658 197.96C372.209 196.521 371.842 195.27 371.579 194.199C370.927 191.737 370.72 190.315 370.72 190.315L374.635 185.64L378.344 181.173C379.538 191.673 386.462 195.629 386.462 195.629Z" fill="#FFB27D"/>
<path d="M415.461 287.672C403.316 300.204 375.354 302.189 375.119 302.035C373.716 295.674 371.901 285.096 370.318 275.292C369.662 271.201 369.038 267.252 368.509 263.793C367.452 256.945 366.737 252.042 366.722 251.888C366.722 251.888 366.677 251.515 366.599 250.886C366.476 249.924 366.288 248.357 366.079 246.616C365.857 244.75 365.615 242.677 365.418 240.915C365.345 240.277 365.28 239.681 365.226 239.151C365.226 239.12 365.22 239.094 365.22 239.063C365.116 237.9 365.235 235.2 365.513 231.812C365.602 230.72 365.71 229.556 365.829 228.35C365.831 228.319 365.835 228.293 365.837 228.26C366.567 221.016 367.817 212.242 369.144 208.021C369.835 205.848 372.27 199.468 372.27 199.468C374.661 199.563 376.226 198.514 378.482 196.766C380.954 194.866 383.615 192.822 384.14 193.133C388.058 195.332 391.354 201.244 393.801 209.118C395.207 213.65 416.063 287.048 415.461 287.672Z" fill="#AEC3FF"/>
<path d="M379.007 185.15C379.007 185.15 376.93 191.561 371.579 194.197C370.927 191.735 370.72 190.312 370.72 190.312L374.635 185.637L379.007 185.15Z" fill="#ED985F"/>
<path d="M368.65 190.505C368.65 190.505 380.03 190.536 379.974 182.854C379.918 175.171 381.346 170.002 374.079 169.658C366.811 169.313 365.421 172.265 364.864 174.836C364.309 177.408 365.688 190.301 368.65 190.505Z" fill="#FFB27D"/>
<path d="M381.841 167.361C381.923 167.217 382.141 167.074 382.652 166.951C382.652 166.951 382.197 166.739 381.644 166.822C381.42 166.051 380.833 164.721 379.548 164.6C379.548 164.6 380.269 164.873 380.479 165.697C378.81 164.332 375.568 163.698 367.18 165.942C356.124 168.898 360.97 176.13 362.556 176.814C364.143 177.498 367.415 174.273 370.152 174.031C372.887 173.789 374.031 177.992 375.033 178.419C376.036 178.846 375.523 177.868 376.673 177.032C377.824 176.197 378.27 178.436 378.128 179.967C377.986 181.501 379.971 183.137 379.971 183.137C379.971 183.137 379.971 183.137 381.394 180.793C382.816 178.45 383.175 169.522 382.124 167.82C382.026 167.668 381.936 167.516 381.841 167.361Z" fill="#2C3A64"/>
<path d="M384.168 193.124C384.168 193.124 382.655 190.013 381.761 189.79C381.761 189.79 370.526 194.819 368.71 209.695C368.71 209.695 371.978 200.185 384.168 193.124Z" fill="#9DB0F4"/>
<path d="M328.675 238.973L342.952 255.546L336.884 261.366C336.884 261.366 321.925 244.933 322.197 244.75C322.469 244.567 328.675 238.973 328.675 238.973Z" fill="white"/>
<path d="M322.368 231.161L329.416 239.372L323.043 245.99L315.996 237.779C315.396 237.078 315.424 235.974 316.06 235.312L320.125 231.09C320.762 230.43 321.768 230.461 322.368 231.161Z" fill="#B0D0FF"/>
<path d="M344.172 253.003L334.562 262.984L336.376 265.097L345.986 255.116L344.172 253.003Z" fill="#1C468A"/>
<path d="M350.322 264.908L345.01 270.426L346.013 271.595L351.326 266.077L350.322 264.908Z" fill="#1C468A"/>
<path d="M342.475 258.761L339.888 261.448L346.873 269.586L349.46 266.9L342.475 258.761Z" fill="#1C468A"/>
<path d="M320.125 231.09L316.06 235.312C315.424 235.972 315.396 237.078 315.996 237.779L336.545 261.722C337.145 262.423 338.151 262.454 338.788 261.793L342.853 257.572C343.489 256.912 343.517 255.805 342.917 255.105L322.368 231.161C321.768 230.461 320.762 230.43 320.125 231.09ZM342.578 255.456C343.004 255.95 342.982 256.731 342.533 257.197L338.469 261.418C338.022 261.884 337.309 261.862 336.886 261.368L316.337 237.425C315.914 236.934 315.935 236.15 316.382 235.685L320.447 231.463C320.896 230.995 321.606 231.021 322.029 231.513L342.578 255.456Z" fill="#1C468A"/>
<path d="M317.339 230.817L316.025 232.181L317.639 234.062L318.952 232.697L317.339 230.817Z" fill="#1C468A"/>
<path d="M309.339 222.721L309.127 222.941L317.013 232.127L317.225 231.907L309.339 222.721Z" fill="#1C468A"/>
<path d="M321.366 233.995L318.642 236.825L318.88 237.103L321.605 234.273L321.366 233.995Z" fill="#1C468A"/>
<path d="M322.109 234.864L319.385 237.694L319.623 237.972L322.348 235.142L322.109 234.864Z" fill="#1C468A"/>
<path d="M322.911 235.801L320.186 238.63L320.424 238.908L323.149 236.078L322.911 235.801Z" fill="#1C468A"/>
<path d="M323.628 236.648L320.903 239.478L321.142 239.756L323.866 236.926L323.628 236.648Z" fill="#1C468A"/>
<path d="M324.914 236.809L320.981 240.894L321.22 241.172L325.153 237.087L324.914 236.809Z" fill="#1C468A"/>
<path d="M325.084 238.328L322.359 241.158L322.598 241.436L325.322 238.606L325.084 238.328Z" fill="#1C468A"/>
<path d="M325.823 239.194L323.098 242.024L323.337 242.302L326.062 239.472L325.823 239.194Z" fill="#1C468A"/>
<path d="M326.629 240.148L323.905 242.978L324.143 243.256L326.868 240.426L326.629 240.148Z" fill="#1C468A"/>
<path d="M327.343 240.959L324.618 243.789L324.857 244.067L327.582 241.237L327.343 240.959Z" fill="#1C468A"/>
<path d="M328.697 241.148L324.762 245.234L325.001 245.512L328.936 241.426L328.697 241.148Z" fill="#1C468A"/>
<path d="M328.802 242.679L326.077 245.509L326.316 245.787L329.041 242.957L328.802 242.679Z" fill="#1C468A"/>
<path d="M329.541 243.522L326.816 246.352L327.055 246.63L329.779 243.8L329.541 243.522Z" fill="#1C468A"/>
<path d="M330.346 244.479L327.622 247.309L327.86 247.587L330.585 244.757L330.346 244.479Z" fill="#1C468A"/>
<path d="M331.06 245.308L328.335 248.138L328.573 248.416L331.298 245.586L331.06 245.308Z" fill="#1C468A"/>
<path d="M332.347 245.468L328.414 249.553L328.651 249.83L332.585 245.745L332.347 245.468Z" fill="#1C468A"/>
<path d="M332.589 247.077L329.864 249.906L330.103 250.184L332.828 247.355L332.589 247.077Z" fill="#1C468A"/>
<path d="M333.334 247.943L330.609 250.773L330.848 251.051L333.573 248.221L333.334 247.943Z" fill="#1C468A"/>
<path d="M334.139 248.898L331.414 251.728L331.651 252.004L334.376 249.174L334.139 248.898Z" fill="#1C468A"/>
<path d="M334.853 249.728L332.128 252.557L332.367 252.835L335.092 250.006L334.853 249.728Z" fill="#1C468A"/>
<path d="M336.204 249.893L332.269 253.98L332.507 254.258L336.443 250.171L336.204 249.893Z" fill="#1C468A"/>
<path d="M336.181 251.259L333.456 254.089L333.693 254.365L336.418 251.535L336.181 251.259Z" fill="#1C468A"/>
<path d="M336.927 252.144L334.202 254.973L334.441 255.251L337.165 252.422L336.927 252.144Z" fill="#1C468A"/>
<path d="M337.728 253.062L335.004 255.892L335.242 256.17L337.967 253.34L337.728 253.062Z" fill="#1C468A"/>
<path d="M338.443 253.912L335.718 256.742L335.957 257.02L338.681 254.19L338.443 253.912Z" fill="#1C468A"/>
<path d="M339.731 254.07L335.797 258.155L336.036 258.433L339.969 254.348L339.731 254.07Z" fill="#1C468A"/>
<path d="M382.726 219.318C382.607 219.665 375.713 239.434 366.081 246.616C365.859 244.75 365.617 242.677 365.421 240.915C365.347 240.277 365.282 239.681 365.228 239.151C365.228 239.12 365.222 239.094 365.222 239.063C365.118 237.9 365.237 235.2 365.515 231.812C367.296 228.979 368.712 226.947 368.712 226.947L382.726 219.318Z" fill="#9DB0F4"/>
<path d="M324.973 246.555C324.973 246.555 320.82 243.022 319.534 243.126C318.247 243.23 318.757 245.963 319.559 247.493C320.46 249.209 321.664 250.776 322.992 250.81C324.319 250.843 325.418 250.574 325.418 250.574L324.973 246.555Z" fill="#FFB27D"/>
<path d="M325.252 246.317C325.252 246.317 324.429 244.802 323.961 244.707C323.492 244.612 321.865 244.781 321.517 244.995C321.17 245.208 324.131 247.329 324.68 247.155C325.228 246.98 325.252 246.317 325.252 246.317Z" fill="#FFB27D"/>
<path d="M384.552 202.115C384.552 202.115 388.733 227.134 362.649 246.255C355.608 251.417 324.455 251.781 324.455 251.781C324.455 251.781 323.553 247.533 325.638 245.754C325.638 245.754 352.322 235.578 354.921 236.107C357.227 236.577 369.578 211.615 374.376 206.731C379.177 201.85 384.552 202.115 384.552 202.115Z" fill="#AEC3FF"/>
<path d="M133.713 272.412C132.247 267.236 125.875 266.267 123.313 270.895C122.851 271.728 122.559 272.685 122.534 273.779C122.393 279.848 133.272 303.336 134.717 305.414C137.346 309.196 153.216 318.292 153.216 318.292L156.587 317.751C156.587 317.751 154.681 316.433 152.706 314.265C148.629 309.787 142.684 302.507 141.596 301.501C139.727 299.772 136.495 282.239 133.713 272.412Z" fill="#ED985F"/>
<path d="M138.319 242.725C138.408 242.335 130.622 246.595 130.227 247.077C126.574 251.531 127.617 257.346 129.707 257.403C131.047 257.439 130.788 259.889 130.788 259.889L145.717 252.942C145.714 252.942 143.916 241.412 138.319 242.725Z" fill="#B5453C"/>
<path d="M140.156 243.622C140.156 243.622 140.689 237.226 134.192 237.226C134.192 237.226 136.161 237.812 137.179 238.987C137.179 238.987 133.035 236.311 128.526 240.424C124.016 244.536 126.818 254.851 125.445 256.81C124.075 258.769 118.732 259.16 119.386 265.49C120.038 271.823 136.338 279.753 135.291 284.991C135.291 284.991 141.678 274.663 137.11 269.952C137.11 269.952 139.336 272.257 139.563 275C139.563 275 140.167 269.648 137.069 267.936C134.33 266.421 132.085 260.879 132.323 259.889C132.56 258.899 140.156 243.622 140.156 243.622Z" fill="#B5453C"/>
<path d="M121.905 381.947L118.674 381.425C118.674 381.425 107.812 371.93 106.193 354.212C106.029 352.41 105.995 350.579 106.115 348.734C106.131 348.521 106.109 348.309 106.003 348.129C106.003 348.129 106.001 348.126 105.999 348.124C105.651 347.538 104.786 346.07 103.614 343.981C102.459 341.922 100.484 338.033 98.3079 333.666C94.3922 325.805 89.8312 316.402 88.2662 313.406C83.2821 303.861 85.6846 297.443 85.6846 297.443C85.6846 297.443 99.5879 295.93 103.398 292.264L104.771 294.591C104.771 294.591 107.784 309.26 107.642 309.329C107.791 309.827 107.942 310.336 108.093 310.853C110.469 318.924 113.204 329.013 114.696 337.228C115.533 341.851 115.978 345.878 115.738 348.623C115.656 349.563 115.756 351.011 115.984 352.797C117.334 363.325 121.905 381.947 121.905 381.947Z" fill="#F1A34F"/>
<path d="M128.681 386.442H115.203C115.203 386.442 114.879 384.182 115.583 382.467C116.256 380.822 117.219 380.77 115.706 378.191C116.563 379.162 119.315 379.563 121.264 379.274C121.504 379.699 122.803 382.555 123.602 383.187C124.483 383.885 128.409 383.636 128.681 386.442Z" fill="#233862"/>
<path d="M108.095 310.853C106.918 317.995 104.136 329.884 98.31 333.666C94.3944 325.805 89.8333 316.402 88.2683 313.406C83.2842 303.861 85.6867 297.443 85.6867 297.443C85.6867 297.443 99.5901 295.93 103.4 292.264L104.773 294.591C104.773 294.591 107.786 309.26 107.644 309.329C107.79 309.827 107.942 310.336 108.095 310.853Z" fill="#E58435"/>
<path d="M98.6424 298.547L98.6878 295.773C93.6648 296.469 81.3695 289.173 81.3695 289.173C81.3695 289.173 76.1156 293.017 75.3968 303.996C75.0449 309.355 72.8238 332.016 72.5798 338.783C72.4892 341.236 72.4611 342.986 72.4503 343.686C72.4525 343.689 72.4503 343.691 72.4503 343.693C72.4482 343.907 72.3553 344.095 72.2366 344.263C71.1983 345.716 70.2961 347.255 69.5147 348.853C61.8517 364.538 65.858 385.851 65.858 385.851L67.6367 385.352C67.6367 385.352 74.1167 363.258 78.3519 353.701C79.0707 352.08 79.7247 350.819 80.2708 350.09C81.8639 347.963 83.5432 344.349 85.1967 340.001C88.3245 331.781 91.3637 320.932 93.5288 312.534C93.6842 312.56 98.6424 298.547 98.6424 298.547Z" fill="#F1A34F"/>
<path d="M128.034 280.041C119.822 277.968 125.068 265.277 125.545 265.5C126.682 265.246 129.182 263.047 131.416 258.757L131.718 259.044L136.761 263.907C136.761 263.907 135.595 265.799 134.615 267.651C133.849 269.102 133.197 270.531 133.301 271.02C133.706 271.372 130.225 280.594 128.034 280.041Z" fill="#FFB27D"/>
<path d="M133.218 270.612C133.218 270.612 134.663 273.746 135.433 276.46C136.204 279.174 138.131 287.807 138.131 287.807C138.131 287.807 134.157 292.796 128.627 292.504C128.627 292.504 125.655 287.385 126.702 282.762C127.749 278.141 133.218 270.612 133.218 270.612Z" fill="#9DB0F4"/>
<path d="M136.761 263.909C136.761 263.909 135.595 265.799 134.615 267.654C131.481 265.528 131.477 261.257 131.718 259.046L136.761 263.909Z" fill="#ED985F"/>
<path d="M136.901 266.345C136.901 266.345 129.288 261.687 131.999 256.515C134.71 251.346 135.554 247.262 140.527 250.019C145.503 252.776 145.404 255.342 144.881 257.311C144.359 259.277 138.95 267.423 136.901 266.345Z" fill="#FFB27D"/>
<path d="M146.168 254.293C145.818 251.997 144.758 251.778 144.02 251.93C141.21 246.816 136.616 248.813 136.616 248.813C134.162 252.199 130.615 252.778 130.615 252.778C130.615 252.778 131.498 254.587 135.137 255.706C136.249 256.047 137.512 255.841 138.727 255.39C136.202 256.938 133.562 257.531 133.562 257.531C138.358 258.013 142.921 253.191 143.396 252.673C143.618 253.421 144.005 254.986 143.774 256.131C143.459 257.686 142.202 260.502 142.969 260.865C142.969 260.865 146.69 257.736 146.168 254.293Z" fill="#B5453C"/>
<path d="M76.5775 386.442H63.0994C63.0994 386.442 62.7756 384.182 63.4793 382.467C64.1528 380.822 65.2105 380.074 64.9579 378.084C65.8149 379.053 67.2093 380.14 69.1585 379.853C69.3981 380.278 70.6997 382.558 71.4962 383.187C72.3791 383.885 76.3055 383.636 76.5775 386.442Z" fill="#233862"/>
<path d="M129.001 290.101C127.265 290.766 124.832 291.132 122.344 291.428C118.799 291.853 115.14 292.143 113.224 292.986C112.85 293.15 111.758 293.651 110.668 294.52V294.522C110.668 294.522 110.64 294.541 110.592 294.584C110.23 294.874 109.869 295.211 109.537 295.588C109.027 296.163 108.585 296.835 108.3 297.606C107.596 299.516 108.529 304.813 109.124 307.707C109.364 308.871 108.865 310.074 107.901 310.625C106.554 311.392 105.228 312.1 103.927 312.748C103.858 312.784 103.791 312.814 103.722 312.85C103.735 312.556 103.739 312.264 103.739 311.979C103.741 309.982 103.51 308.32 103.51 308.32C103.191 310.336 101.982 312.513 100.857 314.189C82.7705 322.172 70.132 318.703 70.3392 314.726C71.0537 300.916 79.5175 289.173 79.5175 289.173C95.3053 268.978 127.241 263.66 127.241 263.66C127.241 263.66 128.772 263.458 130.615 265.896C133.27 269.411 133.402 270.327 133.402 270.327C133.402 270.327 134.103 288.142 129.001 290.101Z" fill="#AEC3FF"/>
<path d="M122.341 291.428C118.797 291.853 115.138 292.145 113.221 292.986C112.438 280.11 117.962 270.427 117.962 270.427C117.962 270.427 121.564 286.556 122.341 291.428Z" fill="#9DB0F4"/>
<path d="M109.122 307.71C109.362 308.873 108.863 310.077 107.898 310.628C106.551 311.395 105.226 312.102 103.924 312.75C103.855 312.506 103.793 312.252 103.737 311.979C103.532 310.97 103.437 309.766 103.508 308.32C103.81 302.208 107.594 297.578 109.535 295.591C109.025 296.165 108.583 296.837 108.298 297.609C107.594 299.518 108.524 304.815 109.122 307.71Z" fill="#9DB0F4"/>
<path d="M127.241 263.66C127.241 263.66 128.632 261.727 129.573 261.789C129.573 261.789 133.374 267.642 133.404 270.327C133.402 270.327 128.662 263.387 127.241 263.66Z" fill="#9DB0F4"/>
<path d="M163.704 320.296C163.704 320.296 161.684 320.336 161.248 320.268C160.82 320.199 160.248 319.995 159.672 319.973C159.106 319.949 158.586 320.151 158.055 320.272C157.975 320.289 157.895 320.298 157.813 320.298H154.461C154.461 320.298 154.124 320.123 153.757 319.47C153.6 319.187 153.576 318.518 153.216 318.295C151.186 317.048 156.587 317.753 156.587 317.753C156.587 317.753 159.978 317.684 160.291 317.943C160.848 318.404 163.829 320.12 163.704 320.296Z" fill="#ED985F"/>
<path d="M154.461 320.296C154.461 320.296 156.518 320.949 157.077 321.369L157.669 321.78C157.669 321.78 158.01 321.36 157.472 320.894C157.187 320.648 156.404 319.93 156.38 319.104C156.354 318.28 154.029 319 154.461 320.296Z" fill="#ED985F"/>
<path d="M243.127 355.929C240.033 350.522 232.515 350.824 227.343 351.8C227.341 351.802 227.339 351.802 227.337 351.8C226.993 351.864 226.663 351.933 226.344 352.001C223.794 352.552 222.022 353.198 222.022 353.198L177.357 325.102L174.503 323.304C174.503 323.304 171.591 305.995 162.545 304.955C162.374 304.934 162.204 304.922 162.029 304.915C153.414 304.528 155.547 317.504 155.991 319.802C156.035 320.028 156.061 320.149 156.061 320.149C156.061 320.149 155.607 320.147 154.884 320.218C151.968 320.51 144.663 322.037 145.142 330.022C145.581 337.337 156.561 338.717 162.364 338.933C164.829 339.025 167.24 339.79 169.375 341.131L209.155 366.158C211.752 367.791 213.928 370.082 215.51 372.808C218.648 378.217 224.822 386.888 230.762 383.88C231.118 383.7 231.455 383.51 231.777 383.31C231.779 383.31 231.779 383.308 231.779 383.308C239.002 378.851 236.748 370.507 236.748 370.507C236.748 370.507 248.059 364.552 243.127 355.929Z" fill="#F2CCAA"/>
<path d="M243.127 355.929C240.033 350.522 232.515 350.824 227.343 351.8C227.341 351.802 227.339 351.802 227.337 351.8C226.791 351.973 226.48 352.087 226.48 352.087L226.344 352.001C223.794 352.552 222.022 353.198 222.022 353.198L177.357 325.102L175.984 324.238C175.065 323.658 174.406 322.711 174.154 321.612C173.15 317.228 169.845 305.793 162.545 304.953C158.182 308.51 160.525 319.033 160.525 319.033C160.525 319.033 158.383 319.016 155.994 319.798C155.631 319.916 155.26 320.054 154.888 320.213C152.067 321.429 149.304 323.896 149.606 328.906C150.038 336.091 160.637 337.548 166.51 337.803C167.305 337.836 168.015 337.85 168.6 337.85C169.785 337.852 170.953 338.201 171.98 338.847L215.011 365.915C216.788 367.034 218.264 368.617 219.305 370.507C219.825 371.452 220.472 372.566 221.219 373.737C223.842 377.844 224.474 384.341 231.779 383.305C231.781 383.305 231.781 383.303 231.781 383.303C239.004 378.846 236.75 370.503 236.75 370.503C236.75 370.503 248.059 364.552 243.127 355.929Z" fill="#F9DDBF"/>
<path d="M126.063 267.936C126.063 267.936 117.18 268.902 116.468 275.249C115.756 281.596 124.984 307.455 126.305 309.797C128.711 314.059 142.878 328.671 142.878 328.671L145.49 326.93C145.49 326.93 135.442 308.218 133.886 306.465C131.444 303.718 129.072 270.135 126.063 267.936Z" fill="#FFB27D"/>
<path d="M130.615 280.064C130.615 280.064 131.528 263.695 120.138 267.654C108.747 271.612 121.905 299.767 121.905 299.767C121.905 299.767 128.591 299.404 130.961 292.988L130.615 280.064Z" fill="#AEC3FF"/>
<path d="M145.49 326.93C145.49 326.93 146.96 328.367 148.078 328.671C149.196 328.975 150.468 332.498 150.671 333.002C150.873 333.505 149.602 332.778 149.095 331.921C148.585 331.064 148.24 330.729 148.091 330.914C147.942 331.102 148.18 333.45 149.028 334.754C149.876 336.06 150.383 337.214 149.773 337.14C149.162 337.067 145.535 336.095 144.791 333.674C144.046 331.249 144.592 331.166 142.878 328.673C141.166 326.18 145.49 326.93 145.49 326.93Z" fill="#FFB27D"/>
<path d="M187.943 285.58C187.943 285.58 188.275 285.549 188.789 285.863C189.303 286.017 190.943 286.198 191.265 286.141C191.876 286.031 191.733 286.886 191.282 287.302C191.131 287.439 190.438 287.347 190.235 287.397C190.945 288.489 191.718 290.234 192.4 293.036C192.4 293.036 193.009 295.173 191.075 294.121C189.782 293.416 189.629 292.599 187.82 291.576C186.011 290.552 184.783 288.691 184.919 287.045L184.396 285.269L186.818 283.519L187.943 285.58Z" fill="#FFB27D"/>
<path d="M189.577 222.834C189.577 222.834 178.829 231.1 173.767 254.806C172.233 261.993 183.822 286.551 183.822 286.551C183.822 286.551 186.876 285.742 187.278 283.481C187.278 283.481 184.005 263.503 182.993 259.982C182.432 258.03 193.501 247.065 194.934 241.585C196.365 236.103 189.577 222.834 189.577 222.834Z" fill="#9DB0F4"/>
<path d="M175.192 378.037C175.192 378.037 175.639 385.979 177.035 386.093C177.221 386.107 184.12 386.107 184.12 386.107L192.927 386.05C192.927 386.05 192.869 383.716 190.296 383.222C187.72 382.728 183.412 380.739 181.853 376.997C180.213 373.06 175.192 378.037 175.192 378.037Z" fill="#163560"/>
<path d="M174.683 378.588C174.683 378.588 177.359 379.573 179.451 379.573C181.782 379.573 183.902 378.875 183.902 378.875C183.902 378.875 184.407 373.513 187.181 361.698C188.636 355.506 190.712 347.545 193.667 337.651C201.837 310.307 204.32 294.313 204.546 292.798C204.559 292.72 204.564 292.68 204.564 292.68L204.538 292.665L179.423 280.535C179.423 280.535 182.527 318.219 178.566 332.683C178.011 334.704 177.536 337.062 177.128 339.614C174.626 355.326 174.683 378.588 174.683 378.588Z" fill="#F1A34F"/>
<path d="M177.126 339.614L187.179 361.698C188.633 355.506 190.71 347.545 193.665 337.651C201.835 310.307 204.318 294.313 204.544 292.798C204.542 292.753 204.54 292.71 204.536 292.665L179.421 280.535C179.421 280.535 182.525 318.219 178.564 332.683C178.009 334.704 177.534 337.062 177.126 339.614Z" fill="#E58435"/>
<path d="M194.807 378.037C194.807 378.037 195.254 385.979 196.65 386.093C196.836 386.107 203.735 386.107 203.735 386.107L212.542 386.05C212.542 386.05 212.484 383.716 209.91 383.222C207.335 382.728 203.027 380.739 201.468 376.997C199.828 373.06 194.807 378.037 194.807 378.037Z" fill="#163560"/>
<path d="M209.047 281.423C209.047 281.423 209.373 305.843 205.533 335.825C201.693 365.808 202.994 378.535 202.994 378.535C202.994 378.535 200.354 379.475 199.29 379.57C196.577 379.813 193.795 378.87 193.795 378.87C193.795 378.87 188.297 348.877 189.872 333.868C191.448 318.86 182.343 282.372 182.343 282.372L209.047 281.423Z" fill="#F1A34F"/>
<path d="M191.239 224.276L196.141 227.811L203.225 226.358C203.128 225.729 202.66 223.122 202.235 220.762C202.209 220.622 202.183 220.484 202.159 220.346C201.794 218.337 201.479 216.611 201.479 216.611L194.863 213.401L192.396 212.204C192.402 212.247 192.588 214.434 192.614 214.754C193.074 220.424 191.239 224.276 191.239 224.276Z" fill="#FFB27D"/>
<path d="M210.511 282.479C210.409 295.37 209.63 325.522 209.054 326.135C202.951 332.614 176.105 324.359 174.683 317.217C173.262 310.079 180.092 225.677 190.516 222.307C192.679 221.609 204.244 225.722 204.244 225.722C204.244 225.722 206.057 230.941 207.247 237.591C207.391 238.399 207.644 240.825 207.944 244.137C208.24 247.369 208.585 251.446 208.924 255.682C209.302 260.359 209.671 265.236 209.969 269.382C210.191 272.514 210.372 275.228 210.478 277.134C210.521 277.92 210.532 279.839 210.511 282.479Z" fill="#AEC3FF"/>
<path d="M193.108 214.854C194.561 217.561 199.975 219.902 202.232 220.764C202.207 220.624 202.181 220.486 202.157 220.348C201.792 218.34 201.477 216.614 201.477 216.614L194.861 213.403C193.397 213.38 192.508 213.738 193.108 214.854Z" fill="#FCA56B"/>
<path d="M203.97 216.17C203.97 216.17 193.313 219.826 191.345 212.492C189.376 205.157 186.676 200.688 193.397 198.043C200.119 195.398 202.198 197.766 203.396 200.04C204.594 202.31 206.692 215.03 203.97 216.17Z" fill="#FFB27D"/>
<path d="M202.977 199.33C202.977 199.33 202.297 207.866 200.693 207.496C199.09 207.125 197.633 206.85 197.868 209.424C198.103 211.998 200.329 214.968 195.383 215.424C190.438 215.88 183.328 201.85 184.685 199.193C188.605 191.528 208.643 189.98 202.977 199.33Z" fill="#163560"/>
<path d="M201.41 222.493C201.272 222.428 193.477 218.582 192.564 218.912C191.653 219.242 190.516 222.305 190.516 222.305L204.244 225.719C204.244 225.722 203.163 223.305 201.41 222.493Z" fill="#9DB0F4"/>
<path d="M256.771 247.12C264.718 247.12 271.16 240.033 271.16 231.292C271.16 222.551 264.718 215.464 256.771 215.464C248.824 215.464 242.382 222.551 242.382 231.292C242.382 240.033 248.824 247.12 256.771 247.12Z" fill="white"/>
<path d="M255.67 242.055C260.709 242.055 264.794 237.562 264.794 232.019C264.794 226.476 260.709 221.982 255.67 221.982C250.631 221.982 246.546 226.476 246.546 232.019C246.546 237.562 250.631 242.055 255.67 242.055Z" fill="#DFEBFA"/>
<path d="M239.997 305.632C237.48 305.632 234.978 304.656 232.526 302.711C225.737 297.331 219.328 284.751 213.479 265.319C209.14 250.905 207.391 239.363 207.368 239.234L207.001 236.274C207.024 236.402 210.077 250.491 214.39 264.816C218.353 277.975 224.8 295.025 233.014 301.536C236.498 304.297 240.077 304.974 243.647 303.542C258.323 297.663 255.588 244.954 255.558 244.422L256.536 244.32C256.542 244.456 257.267 257.978 256.113 272.072C255.433 280.38 254.241 287.268 252.573 292.544C250.451 299.257 247.539 303.395 243.919 304.844C242.611 305.371 241.303 305.632 239.997 305.632Z" fill="white"/>
<path d="M198.567 209.296C198.567 208.771 198.954 208.346 199.431 208.346C199.908 208.346 200.294 208.771 200.294 209.296C200.294 209.82 199.908 210.245 199.431 210.245C198.954 210.245 198.567 209.82 198.567 209.296Z" fill="white"/>
<path d="M203.648 224.658L203.297 224.152C203.31 224.138 204.363 222.965 203.737 219.733C203.089 216.388 199.258 209.507 199.219 209.438L199.638 209.156C199.798 209.44 203.551 216.186 204.218 219.622C204.905 223.153 203.711 224.587 203.648 224.658Z" fill="white"/>
<path d="M208.924 255.682C202.647 253.493 194.934 241.585 194.934 241.585L207.944 244.137C208.238 247.369 208.583 251.446 208.924 255.682Z" fill="#9DB0F4"/>
<path d="M252.13 237.76C252.13 237.76 252.111 237.392 252.411 236.836C252.564 236.276 252.87 234.619 252.832 234.262C252.706 233.137 253.464 233.365 253.758 234.31C253.82 234.514 253.803 235.06 253.844 235.286C254.856 234.533 256.467 233.728 259.031 233.054C259.031 233.054 260.993 232.441 259.981 234.545C259.305 235.951 258.558 236.095 257.576 238.061C256.596 240.025 254.869 241.329 253.376 241.134L251.746 241.661L250.22 238.942L252.13 237.76Z" fill="#FFB27D"/>
<path d="M194.462 228.934C194.462 228.934 180.893 248.02 222.601 253.668C229.271 254.573 252.903 242.328 252.903 242.328C252.903 242.328 252.247 238.938 250.202 238.437C250.202 238.437 227.896 241.027 226.19 242.373C224.677 243.568 208.14 230.209 203.191 228.478C198.246 226.747 194.462 228.934 194.462 228.934Z" fill="#AEC3FF"/>
<path d="M280.912 385.402H255.942C255.025 385.402 254.241 384.687 254.071 383.695C253.434 379.981 252.383 371.153 255.73 366.666C258.37 363.128 266.681 363.926 272.721 365.077C279.054 372.642 280.912 385.402 280.912 385.402Z" fill="#FFDABB"/>
<path d="M605.307 387H0.690743C0.310835 387 0 386.658 0 386.24V385.967C0 385.549 0.310835 385.207 0.690743 385.207H605.307C605.687 385.207 606 385.549 606 385.967V386.24C606 386.658 605.689 387 605.307 387Z" fill="#2E3552"/>
</svg>
