<svg width="141" height="40" viewBox="0 0 141 40" fill="none" xmlns="http://www.w3.org/2000/svg">
<path d="M52.401 27.1615C51.1343 27.1615 50.041 26.9549 49.121 26.5415C48.2143 26.1149 47.5077 25.5015 47.001 24.7015C46.5077 23.8882 46.2343 22.9015 46.181 21.7415C46.1677 21.1682 46.161 20.5615 46.161 19.9215C46.161 19.2682 46.1677 18.6482 46.181 18.0615C46.2343 16.9282 46.5143 15.9682 47.021 15.1815C47.5277 14.3949 48.241 13.7949 49.161 13.3815C50.081 12.9682 51.161 12.7615 52.401 12.7615C53.401 12.7615 54.2877 12.8882 55.061 13.1415C55.8343 13.3815 56.481 13.7082 57.001 14.1215C57.5343 14.5349 57.9343 14.9882 58.201 15.4815C58.481 15.9749 58.6277 16.4615 58.641 16.9415C58.6543 17.0615 58.6143 17.1615 58.521 17.2415C58.441 17.3215 58.341 17.3615 58.221 17.3615H55.301C55.1543 17.3615 55.041 17.3415 54.961 17.3015C54.8943 17.2482 54.8343 17.1749 54.781 17.0815C54.6877 16.8815 54.5477 16.6749 54.361 16.4615C54.1877 16.2349 53.941 16.0415 53.621 15.8815C53.3143 15.7215 52.9077 15.6415 52.401 15.6415C51.641 15.6415 51.041 15.8415 50.601 16.2415C50.1743 16.6415 49.941 17.2815 49.901 18.1615C49.861 19.3082 49.861 20.4682 49.901 21.6415C49.941 22.5749 50.1877 23.2482 50.641 23.6615C51.0943 24.0749 51.6943 24.2815 52.441 24.2815C52.9477 24.2815 53.3943 24.1949 53.781 24.0215C54.181 23.8482 54.4943 23.5815 54.721 23.2215C54.9477 22.8482 55.061 22.3749 55.061 21.8015V21.4215H53.181C53.0343 21.4215 52.9077 21.3749 52.801 21.2815C52.7077 21.1749 52.661 21.0482 52.661 20.9015V19.4215C52.661 19.2749 52.7077 19.1549 52.801 19.0615C52.9077 18.9549 53.0343 18.9015 53.181 18.9015H58.221C58.3677 18.9015 58.4877 18.9549 58.581 19.0615C58.6743 19.1549 58.721 19.2749 58.721 19.4215V21.7015C58.721 22.8482 58.461 23.8282 57.941 24.6415C57.421 25.4549 56.681 26.0815 55.721 26.5215C54.7743 26.9482 53.6677 27.1615 52.401 27.1615ZM65.7155 27.1615C64.5955 27.1615 63.6489 26.9815 62.8755 26.6215C62.1155 26.2615 61.5289 25.7482 61.1155 25.0815C60.7155 24.4015 60.4889 23.5949 60.4355 22.6615C60.4222 22.3949 60.4155 22.0949 60.4155 21.7615C60.4155 21.4149 60.4222 21.1149 60.4355 20.8615C60.4889 19.9149 60.7289 19.1082 61.1555 18.4415C61.5822 17.7749 62.1755 17.2615 62.9355 16.9015C63.7089 16.5415 64.6355 16.3615 65.7155 16.3615C66.8089 16.3615 67.7355 16.5415 68.4955 16.9015C69.2689 17.2615 69.8689 17.7749 70.2955 18.4415C70.7222 19.1082 70.9622 19.9149 71.0155 20.8615C71.0289 21.1149 71.0355 21.4149 71.0355 21.7615C71.0355 22.0949 71.0289 22.3949 71.0155 22.6615C70.9622 23.5949 70.7289 24.4015 70.3155 25.0815C69.9155 25.7482 69.3289 26.2615 68.5555 26.6215C67.7955 26.9815 66.8489 27.1615 65.7155 27.1615ZM65.7155 24.7215C66.3155 24.7215 66.7489 24.5415 67.0155 24.1815C67.2955 23.8215 67.4555 23.2815 67.4955 22.5615C67.5089 22.3615 67.5155 22.0949 67.5155 21.7615C67.5155 21.4282 67.5089 21.1615 67.4955 20.9615C67.4555 20.2549 67.2955 19.7215 67.0155 19.3615C66.7489 18.9882 66.3155 18.8015 65.7155 18.8015C65.1289 18.8015 64.6955 18.9882 64.4155 19.3615C64.1355 19.7215 63.9822 20.2549 63.9555 20.9615C63.9422 21.1615 63.9355 21.4282 63.9355 21.7615C63.9355 22.0949 63.9422 22.3615 63.9555 22.5615C63.9822 23.2815 64.1355 23.8215 64.4155 24.1815C64.6955 24.5415 65.1289 24.7215 65.7155 24.7215Z" fill="black"/>
<path d="M77.2226 26.9615C76.9959 26.9615 76.8159 26.9015 76.6826 26.7815C76.5492 26.6615 76.4559 26.5215 76.4026 26.3615L72.3226 13.5615C72.2959 13.4949 72.2826 13.4349 72.2826 13.3815C72.2826 13.2749 72.3226 13.1815 72.4026 13.1015C72.4959 13.0082 72.6026 12.9615 72.7226 12.9615H75.2026C75.4159 12.9615 75.5826 13.0215 75.7026 13.1415C75.8226 13.2615 75.8959 13.3749 75.9226 13.4815L78.7426 22.7215L81.5826 13.4815C81.6226 13.3749 81.6959 13.2615 81.8026 13.1415C81.9226 13.0215 82.0892 12.9615 82.3026 12.9615H84.7826C84.9026 12.9615 85.0026 13.0082 85.0826 13.1015C85.1759 13.1815 85.2226 13.2749 85.2226 13.3815C85.2226 13.4349 85.2092 13.4949 85.1826 13.5615L81.1026 26.3615C81.0492 26.5215 80.9559 26.6615 80.8226 26.7815C80.7026 26.9015 80.5226 26.9615 80.2826 26.9615H77.2226ZM90.5955 27.1615C89.0222 27.1615 87.7689 26.7349 86.8355 25.8815C85.9022 25.0282 85.4155 23.7615 85.3755 22.0815C85.3755 21.9882 85.3755 21.8682 85.3755 21.7215C85.3755 21.5749 85.3755 21.4615 85.3755 21.3815C85.4155 20.3282 85.6489 19.4282 86.0755 18.6815C86.5155 17.9215 87.1155 17.3482 87.8755 16.9615C88.6489 16.5615 89.5489 16.3615 90.5755 16.3615C91.7489 16.3615 92.7155 16.5949 93.4755 17.0615C94.2489 17.5282 94.8289 18.1615 95.2155 18.9615C95.6022 19.7615 95.7955 20.6749 95.7955 21.7015V22.1815C95.7955 22.3282 95.7422 22.4482 95.6355 22.5415C95.5422 22.6349 95.4289 22.6815 95.2955 22.6815H88.8955C88.8955 22.6949 88.8955 22.7149 88.8955 22.7415C88.8955 22.7682 88.8955 22.7949 88.8955 22.8215C88.9089 23.2082 88.9755 23.5615 89.0955 23.8815C89.2155 24.2015 89.4022 24.4549 89.6555 24.6415C89.9089 24.8282 90.2155 24.9215 90.5755 24.9215C90.8422 24.9215 91.0622 24.8815 91.2355 24.8015C91.4222 24.7082 91.5755 24.6082 91.6955 24.5015C91.8155 24.3815 91.9089 24.2815 91.9755 24.2015C92.0955 24.0682 92.1889 23.9882 92.2555 23.9615C92.3355 23.9215 92.4555 23.9015 92.6155 23.9015H95.0955C95.2289 23.9015 95.3355 23.9415 95.4155 24.0215C95.5089 24.0882 95.5489 24.1882 95.5355 24.3215C95.5222 24.5482 95.4089 24.8215 95.1955 25.1415C94.9822 25.4615 94.6689 25.7815 94.2555 26.1015C93.8555 26.4082 93.3489 26.6615 92.7355 26.8615C92.1222 27.0615 91.4089 27.1615 90.5955 27.1615ZM88.8955 20.7015H92.2755V20.6615C92.2755 20.2349 92.2089 19.8615 92.0755 19.5415C91.9555 19.2215 91.7622 18.9749 91.4955 18.8015C91.2422 18.6282 90.9355 18.5415 90.5755 18.5415C90.2155 18.5415 89.9089 18.6282 89.6555 18.8015C89.4155 18.9749 89.2289 19.2215 89.0955 19.5415C88.9622 19.8615 88.8955 20.2349 88.8955 20.6615V20.7015ZM102.971 26.9615C102.118 26.9615 101.378 26.8282 100.751 26.5615C100.138 26.2815 99.6643 25.8549 99.331 25.2815C98.9977 24.6949 98.831 23.9415 98.831 23.0215V19.1815H97.271C97.1243 19.1815 96.9977 19.1349 96.891 19.0415C96.7977 18.9482 96.751 18.8282 96.751 18.6815V17.0615C96.751 16.9149 96.7977 16.7949 96.891 16.7015C96.9977 16.6082 97.1243 16.5615 97.271 16.5615H98.831V13.2615C98.831 13.1149 98.8777 12.9949 98.971 12.9015C99.0777 12.8082 99.1977 12.7615 99.331 12.7615H101.651C101.798 12.7615 101.918 12.8082 102.011 12.9015C102.104 12.9949 102.151 13.1149 102.151 13.2615V16.5615H104.651C104.798 16.5615 104.918 16.6082 105.011 16.7015C105.104 16.7949 105.151 16.9149 105.151 17.0615V18.6815C105.151 18.8282 105.104 18.9482 105.011 19.0415C104.918 19.1349 104.798 19.1815 104.651 19.1815H102.151V22.7415C102.151 23.1949 102.238 23.5549 102.411 23.8215C102.584 24.0882 102.878 24.2215 103.291 24.2215H104.831C104.978 24.2215 105.098 24.2682 105.191 24.3615C105.284 24.4549 105.331 24.5749 105.331 24.7215V26.4615C105.331 26.6082 105.284 26.7282 105.191 26.8215C105.098 26.9149 104.978 26.9615 104.831 26.9615H102.971Z" fill="#F27F11"/>
<g clip-path="url(#clip0_62_6)">
<path d="M0.905312 39.8611H22.0785C22.0785 40.1587 25.8845 39.8611 25.8845 39.8611C25.8845 39.8611 25.6074 38.3333 24.9792 37.9166C24.8314 37.8174 23.7783 38.1151 23.5196 38.0952C23.6305 38.0159 25.8661 37.2024 25.3672 33.1746L26.5681 39.6428C26.5866 39.7619 26.679 39.8611 26.7714 39.8611H28.7113H31.4642C31.5751 39.8611 31.6674 39.7817 31.6674 39.6627C31.7413 39.2262 31.8522 38.1944 31.4827 37.6587C31.2055 37.2619 30.2818 37.3412 29.6166 37.4801C29.4688 37.5198 29.3395 37.5595 29.2102 37.5793C29.0624 37.619 28.933 37.4603 28.97 37.2817C28.97 37.2817 29.321 36.0913 29.9492 34.4246C30.5774 32.7579 31.5012 30.6349 32.6467 28.75C32.8868 28.373 33.1085 28.0159 33.3672 27.6587C34.254 26.4087 34.8637 23.4127 34.0878 22.0833C33.9954 21.9246 33.5335 21.3492 33.6998 21.4286C34.0323 21.5873 34.291 21.8849 34.4573 22.1627C34.5681 22.3412 34.8268 22.2619 34.8268 22.0238C34.9192 18.8889 32.9053 16.2301 32.1109 14.8611C31.8522 14.4246 31.7229 14.127 31.8337 13.9881C32.3326 13.3928 34.5866 14.9008 35.6028 14.8611C36.194 14.8412 36.6559 14.5833 36.933 14.3849C37.0069 14.3452 37.0439 14.2659 37.0439 14.2063C37.1547 14.3651 37.1917 14.5635 37.2102 14.7817C37.2286 15.1786 37.321 15.6547 37.6166 15.6944C38.1709 15.7738 38.2448 14.3055 38.0785 13.8889C37.8014 13.1151 37.1547 12.6984 36.545 12.3412C37.1363 12.5793 37.6536 12.6786 38.0046 12.5992C38.873 12.4206 39.4273 11.4881 39.7413 10.7143C39.7598 10.6349 39.8152 10.5555 39.8337 10.4762C39.8522 10.377 39.8892 10.3174 39.9076 10.2182C39.9631 10.0992 39.9815 9.9603 40.0185 9.88093C40.037 9.78173 40.0185 9.68252 39.9631 9.623C39.9446 9.60315 39.9261 9.58331 39.8892 9.56347C39.8152 9.54363 39.7598 9.48411 39.6859 9.44443C39.5566 9.36506 39.4088 9.30554 39.2425 9.20633C37.9677 8.51188 36.545 7.95633 36.2864 7.48014C36.194 7.32141 36.1201 7.123 36.0462 6.94442C36.0462 6.94442 35.455 5.17855 36.0462 4.52379C36.0462 4.52379 35.6213 4.3849 35.418 4.52379C35.418 4.52379 35.3441 3.17458 33.8845 2.57935C32.4249 1.98411 30.1894 1.94442 30.1894 1.94442C29.9861 1.92458 29.8568 1.92458 29.8568 1.92458C28.7667 1.86506 27.9538 2.06347 27.3441 2.42062C27.3441 2.42062 25.2748 3.05554 24.8314 4.98014C24.8314 4.98014 25.1085 4.68252 25.2933 4.58331C25.2933 4.58331 24.7575 5.11903 24.8314 6.46823C24.8868 7.71823 25.4596 9.66268 25.2564 11.1111C25.2379 11.2301 25.2379 11.3293 25.2009 11.4484C24.9977 12.4801 22.4111 15.2976 22.3002 17.0039C22.097 20.2778 20.0277 20.5754 15.4088 23.869C12.7483 25.7738 12.5635 30.9524 12.8037 34.8611C12.8591 35.8333 12.2679 36.7063 11.455 36.8651C10.3279 37.0833 9.07159 37.1627 7.9261 36.9246C4.76674 36.2301 4.10162 29.9801 6.0231 29.0278C6.0231 29.0278 5.0254 28.6905 3.86143 28.8889C3.84296 28.8889 3.82448 28.9087 3.78753 28.9087C3.69515 28.9484 3.5843 28.9881 3.49192 29.0079C2.67898 29.246 1.8291 29.7619 1.23788 30.873C-0.351039 33.8095 -0.351039 38.4325 0.905312 39.8611Z" fill="#1E3865"/>
<path d="M33.9584 3.15476C33.9584 3.15476 34.0139 2.14285 34.3279 1.40872C34.6605 0.674598 34.5312 0.119042 34.5312 0.119042C31.5751 -0.654767 29.2471 2.81745 29.2471 2.81745L33.9584 3.15476Z" fill="#1E3865"/>
</g>
<defs>
<clipPath id="clip0_62_6">
<rect width="40" height="40" fill="white"/>
</clipPath>
</defs>
</svg>
